{
  "title" : "",
  "description" : "",
  "author" : "",
  "targetLoudness" : -18.0,
  "shouldApplyLoudnessNormalization" : true,
  "videoFormatFrameRate" : 30,
  "audioFormatSampleRate" : 44100,
  "allowSubFrameEditing" : false,
  "width" : 1920.0,
  "height" : 1080.0,
  "version" : "7.0",
  "editRate" : 705600000,
  "authoringClientName" :  {
    "name" : "Camtasia",
    "platform" : "Windows",
    "version" : "2023.2.0"
  },
  "sourceBin" : [
    {
      "id" : 1,
      "src" : "C:\\Users\\kathl\\Dropbox\\Projects\\mslearn-create-razor-pages-aspnet-core\\demo\\video\\project\\Green tip.png",
      "rect" : [0, 0, 672, 898],
      "lastMod" : "20190226T222816",
      "loudnessNormalization" : true,
      "sourceTracks" : [
        {
          "range" : [0, 1],
          "type" : 1,
          "editRate" : 10000000,
          "trackRect" : [0, 0, 672, 898],
          "sampleRate" : 0,
          "bitDepth" : 32,
          "numChannels" : 0,
          "integratedLUFS" : 100.0,
          "peakLevel" : -1.0,
          "metaData" : ""
        }
      ],
      "metadata" : {
        "assetLibraryId" : "a4f77d76-db61-4939-83c8-96b18899dac9",
        "timeAdded" : "20220309T012128.091157"
      }
    },
    {
      "id" : 2,
      "src" : "C:\\Users\\kathl\\Dropbox\\Projects\\mslearn-create-razor-pages-aspnet-core\\demo\\video\\project\\Blue tip.png",
      "rect" : [0, 0, 671, 898],
      "lastMod" : "20190226T222816",
      "loudnessNormalization" : true,
      "sourceTracks" : [
        {
          "range" : [0, 1],
          "type" : 1,
          "editRate" : 10000000,
          "trackRect" : [0, 0, 671, 898],
          "sampleRate" : 0,
          "bitDepth" : 32,
          "numChannels" : 0,
          "integratedLUFS" : 100.0,
          "peakLevel" : -1.0,
          "metaData" : ""
        }
      ],
      "metadata" : {
        "assetLibraryId" : "a4f77d76-db61-4939-83c8-96b18899dac9",
        "timeAdded" : "20220309T012128.091157"
      }
    },
    {
      "id" : 3,
      "src" : "C:\\Users\\kathl\\Dropbox\\Projects\\mslearn-create-razor-pages-aspnet-core\\demo\\video\\project\\headprofilesmall.jpg",
      "rect" : [0, 0, 285, 343],
      "lastMod" : "20191010T175830",
      "loudnessNormalization" : true,
      "sourceTracks" : [
        {
          "range" : [0, 1],
          "type" : 1,
          "editRate" : 10000000,
          "trackRect" : [0, 0, 285, 343],
          "sampleRate" : 0,
          "bitDepth" : 24,
          "numChannels" : 0,
          "integratedLUFS" : 100.0,
          "peakLevel" : -1.0,
          "metaData" : ""
        }
      ],
      "metadata" : {
        "assetLibraryId" : "ff4b6caf-b421-4e91-9698-70fccb648ada",
        "timeAdded" : "20220309T012228.489339"
      }
    },
    {
      "id" : 4,
      "src" : "C:\\Users\\kathl\\Dropbox\\Projects\\mslearn-create-razor-pages-aspnet-core\\demo\\video\\project\\audioblocks-fun-times-by-cronicbeats-92bpm_SBKXmx0.mp3",
      "rect" : [0, 0, 0, 0],
      "lastMod" : "20211019T024332",
      "loudnessNormalization" : true,
      "sourceTracks" : [
        {
          "range" : [0, 2201861000],
          "type" : 2,
          "editRate" : 10000000,
          "trackRect" : [0, 0, 0, 0],
          "sampleRate" : 44100,
          "bitDepth" : 0,
          "numChannels" : 2,
          "integratedLUFS" : -9.21513575189741,
          "peakLevel" : 0.840099513530731,
          "metaData" : ""
        }
      ],
      "metadata" : {
        "assetLibraryId" : "c251dc60-233c-45f1-9703-25d8679aafc3",
        "timeAdded" : "20220327T214839.272661"
      }
    },
    {
      "id" : 5,
      "src" : "C:\\Users\\kathl\\Dropbox\\Projects\\mslearn-create-razor-pages-aspnet-core\\demo\\video\\project\\recording\\screenrecording.mp4",
      "rect" : [0, 0, 1918, 1076],
      "lastMod" : "20231014T211638",
      "loudnessNormalization" : true,
      "sourceTracks" : [
        {
          "range" : [0, 5239232],
          "type" : 0,
          "editRate" : 30000,
          "trackRect" : [0, 0, 1918, 1076],
          "sampleRate" : "59007/5000",
          "bitDepth" : 24,
          "numChannels" : 0,
          "integratedLUFS" : 100.0,
          "peakLevel" : -1.0,
          "metaData" : ""
        },
        {
          "range" : [0, 7702528],
          "type" : 2,
          "editRate" : 44100,
          "trackRect" : [0, 0, 0, 0],
          "sampleRate" : 44100,
          "bitDepth" : 16,
          "numChannels" : 2,
          "integratedLUFS" : -1.79769313486232e+308,
          "peakLevel" : 1.95404190890258e-05,
          "metaData" : ""
        }
      ],
      "metadata" : {
        "timeAdded" : "20231014T213342.989585"
      }
    },
    {
      "id" : 6,
      "src" : "C:\\Users\\kathl\\Dropbox\\Projects\\mslearn-create-razor-pages-aspnet-core\\demo\\video\\project\\narration\\n1.mp3",
      "rect" : [0, 0, 0, 0],
      "lastMod" : "20231014T214214",
      "loudnessNormalization" : true,
      "sourceTracks" : [
        {
          "range" : [0, 27360000],
          "type" : 2,
          "editRate" : 10000000,
          "trackRect" : [0, 0, 0, 0],
          "sampleRate" : 24000,
          "bitDepth" : 0,
          "numChannels" : 1,
          "integratedLUFS" : -17.6307891101211,
          "peakLevel" : 0.581623613834381,
          "metaData" : ""
        }
      ],
      "metadata" : {
        "timeAdded" : "20231014T214444.847157"
      }
    },
    {
      "id" : 7,
      "src" : "C:\\Users\\kathl\\Dropbox\\Projects\\mslearn-create-razor-pages-aspnet-core\\demo\\video\\project\\narration\\n2.mp3",
      "rect" : [0, 0, 0, 0],
      "lastMod" : "20231014T214401",
      "loudnessNormalization" : true,
      "sourceTracks" : [
        {
          "range" : [0, 21360000],
          "type" : 2,
          "editRate" : 10000000,
          "trackRect" : [0, 0, 0, 0],
          "sampleRate" : 24000,
          "bitDepth" : 0,
          "numChannels" : 1,
          "integratedLUFS" : -16.4212220430253,
          "peakLevel" : 0.876343548297882,
          "metaData" : ""
        }
      ],
      "metadata" : {
        "timeAdded" : "20231014T214444.860158"
      }
    },
    {
      "id" : 8,
      "src" : "C:\\Users\\kathl\\Dropbox\\Projects\\mslearn-create-razor-pages-aspnet-core\\demo\\video\\project\\narration\\n3.mp3",
      "rect" : [0, 0, 0, 0],
      "lastMod" : "20231014T222801",
      "loudnessNormalization" : true,
      "sourceTracks" : [
        {
          "range" : [0, 81360000],
          "type" : 2,
          "editRate" : 10000000,
          "trackRect" : [0, 0, 0, 0],
          "sampleRate" : 24000,
          "bitDepth" : 0,
          "numChannels" : 1,
          "integratedLUFS" : -17.2077248656467,
          "peakLevel" : 0.715583264827728,
          "metaData" : ""
        }
      ],
      "metadata" : {
        "timeAdded" : "20231014T222825.283035"
      }
    },
    {
      "id" : 9,
      "src" : "C:\\Users\\kathl\\Dropbox\\Projects\\mslearn-create-razor-pages-aspnet-core\\demo\\video\\project\\narration\\n4.mp3",
      "rect" : [0, 0, 0, 0],
      "lastMod" : "20231014T223309",
      "loudnessNormalization" : true,
      "sourceTracks" : [
        {
          "range" : [0, 26400000],
          "type" : 2,
          "editRate" : 10000000,
          "trackRect" : [0, 0, 0, 0],
          "sampleRate" : 24000,
          "bitDepth" : 0,
          "numChannels" : 1,
          "integratedLUFS" : -15.5209986919997,
          "peakLevel" : 0.66863888502121,
          "metaData" : ""
        }
      ],
      "metadata" : {
        "timeAdded" : "20231014T223412.929612"
      }
    },
    {
      "id" : 10,
      "src" : "C:\\Users\\kathl\\Dropbox\\Projects\\mslearn-create-razor-pages-aspnet-core\\demo\\video\\project\\narration\\n5.mp3",
      "rect" : [0, 0, 0, 0],
      "lastMod" : "20231014T223620",
      "loudnessNormalization" : true,
      "sourceTracks" : [
        {
          "range" : [0, 61440000],
          "type" : 2,
          "editRate" : 10000000,
          "trackRect" : [0, 0, 0, 0],
          "sampleRate" : 24000,
          "bitDepth" : 0,
          "numChannels" : 1,
          "integratedLUFS" : -16.2664620049005,
          "peakLevel" : 0.814303576946259,
          "metaData" : ""
        }
      ],
      "metadata" : {
        "timeAdded" : "20231014T223650.707230"
      }
    },
    {
      "id" : 11,
      "src" : "C:\\Users\\kathl\\Dropbox\\Projects\\mslearn-create-razor-pages-aspnet-core\\demo\\video\\project\\narration\\n6.mp3",
      "rect" : [0, 0, 0, 0],
      "lastMod" : "20231014T224402",
      "loudnessNormalization" : true,
      "sourceTracks" : [
        {
          "range" : [0, 97920000],
          "type" : 2,
          "editRate" : 10000000,
          "trackRect" : [0, 0, 0, 0],
          "sampleRate" : 24000,
          "bitDepth" : 0,
          "numChannels" : 1,
          "integratedLUFS" : -17.6705032563146,
          "peakLevel" : 0.758354067802429,
          "metaData" : ""
        }
      ],
      "metadata" : {
        "timeAdded" : "20231014T224444.898957"
      }
    },
    {
      "id" : 12,
      "src" : "C:\\Users\\kathl\\Dropbox\\Projects\\mslearn-create-razor-pages-aspnet-core\\demo\\video\\project\\images\\pizzalistpage.jpg",
      "rect" : [0, 0, 1920, 1080],
      "lastMod" : "20231014T224736",
      "loudnessNormalization" : true,
      "sourceTracks" : [
        {
          "range" : [0, 1],
          "type" : 1,
          "editRate" : 10000000,
          "trackRect" : [0, 0, 1920, 1080],
          "sampleRate" : 0,
          "bitDepth" : 24,
          "numChannels" : 0,
          "integratedLUFS" : 100.0,
          "peakLevel" : -1.0,
          "metaData" : ""
        }
      ],
      "metadata" : {
        "timeAdded" : "20231014T224835.053354"
      }
    },
    {
      "id" : 13,
      "src" : "C:\\Users\\kathl\\Dropbox\\Projects\\mslearn-create-razor-pages-aspnet-core\\demo\\video\\project\\narration\\n7.mp3",
      "rect" : [0, 0, 0, 0],
      "lastMod" : "20231014T225100",
      "loudnessNormalization" : true,
      "sourceTracks" : [
        {
          "range" : [0, 21840000],
          "type" : 2,
          "editRate" : 10000000,
          "trackRect" : [0, 0, 0, 0],
          "sampleRate" : 24000,
          "bitDepth" : 0,
          "numChannels" : 1,
          "integratedLUFS" : -17.9717389771155,
          "peakLevel" : 0.511979341506958,
          "metaData" : ""
        }
      ],
      "metadata" : {
        "timeAdded" : "20231014T225133.310881"
      }
    },
    {
      "id" : 14,
      "src" : "C:\\Users\\kathl\\Dropbox\\Projects\\mslearn-create-razor-pages-aspnet-core\\demo\\video\\project\\narration\\n8.mp3",
      "rect" : [0, 0, 0, 0],
      "lastMod" : "20231014T225319",
      "loudnessNormalization" : true,
      "sourceTracks" : [
        {
          "range" : [0, 43200000],
          "type" : 2,
          "editRate" : 10000000,
          "trackRect" : [0, 0, 0, 0],
          "sampleRate" : 24000,
          "bitDepth" : 0,
          "numChannels" : 1,
          "integratedLUFS" : -17.9577995026593,
          "peakLevel" : 0.647256672382355,
          "metaData" : ""
        }
      ],
      "metadata" : {
        "timeAdded" : "20231014T225339.421483"
      }
    },
    {
      "id" : 15,
      "src" : "C:\\Users\\kathl\\Dropbox\\Projects\\mslearn-create-razor-pages-aspnet-core\\demo\\video\\project\\narration\\n9.mp3",
      "rect" : [0, 0, 0, 0],
      "lastMod" : "20231014T225502",
      "loudnessNormalization" : true,
      "sourceTracks" : [
        {
          "range" : [0, 39840000],
          "type" : 2,
          "editRate" : 10000000,
          "trackRect" : [0, 0, 0, 0],
          "sampleRate" : 24000,
          "bitDepth" : 0,
          "numChannels" : 1,
          "integratedLUFS" : -17.3665400640671,
          "peakLevel" : 0.799494743347168,
          "metaData" : ""
        }
      ],
      "metadata" : {
        "timeAdded" : "20231014T225523.395267"
      }
    },
    {
      "id" : 16,
      "src" : "C:\\Users\\kathl\\Dropbox\\Projects\\mslearn-create-razor-pages-aspnet-core\\demo\\video\\project\\narration\\n10.mp3",
      "rect" : [0, 0, 0, 0],
      "lastMod" : "20231014T225959",
      "loudnessNormalization" : true,
      "sourceTracks" : [
        {
          "range" : [0, 48000000],
          "type" : 2,
          "editRate" : 10000000,
          "trackRect" : [0, 0, 0, 0],
          "sampleRate" : 24000,
          "bitDepth" : 0,
          "numChannels" : 1,
          "integratedLUFS" : -17.2064320589788,
          "peakLevel" : 0.875670552253723,
          "metaData" : ""
        }
      ],
      "metadata" : {
        "timeAdded" : "20231014T230026.416974"
      }
    },
    {
      "id" : 17,
      "src" : "C:\\Users\\kathl\\Dropbox\\Projects\\mslearn-create-razor-pages-aspnet-core\\demo\\video\\project\\narration\\n11.mp3",
      "rect" : [0, 0, 0, 0],
      "lastMod" : "20231014T230133",
      "loudnessNormalization" : true,
      "sourceTracks" : [
        {
          "range" : [0, 21120000],
          "type" : 2,
          "editRate" : 10000000,
          "trackRect" : [0, 0, 0, 0],
          "sampleRate" : 24000,
          "bitDepth" : 0,
          "numChannels" : 1,
          "integratedLUFS" : -18.7788400516519,
          "peakLevel" : 0.432463109493256,
          "metaData" : ""
        }
      ],
      "metadata" : {
        "timeAdded" : "20231014T230156.634660"
      }
    },
    {
      "id" : 18,
      "src" : "C:\\Users\\kathl\\Dropbox\\Projects\\mslearn-create-razor-pages-aspnet-core\\demo\\video\\project\\narration\\n12.mp3",
      "rect" : [0, 0, 0, 0],
      "lastMod" : "20231014T230542",
      "loudnessNormalization" : true,
      "sourceTracks" : [
        {
          "range" : [0, 22080000],
          "type" : 2,
          "editRate" : 10000000,
          "trackRect" : [0, 0, 0, 0],
          "sampleRate" : 24000,
          "bitDepth" : 0,
          "numChannels" : 1,
          "integratedLUFS" : -15.6315401191958,
          "peakLevel" : 0.794968485832214,
          "metaData" : ""
        }
      ],
      "metadata" : {
        "timeAdded" : "20231014T230610.298224"
      }
    },
    {
      "id" : 19,
      "src" : "C:\\Users\\kathl\\Dropbox\\Projects\\mslearn-create-razor-pages-aspnet-core\\demo\\video\\project\\narration\\n13.mp3",
      "rect" : [0, 0, 0, 0],
      "lastMod" : "20231014T230743",
      "loudnessNormalization" : true,
      "sourceTracks" : [
        {
          "range" : [0, 74880000],
          "type" : 2,
          "editRate" : 10000000,
          "trackRect" : [0, 0, 0, 0],
          "sampleRate" : 24000,
          "bitDepth" : 0,
          "numChannels" : 1,
          "integratedLUFS" : -16.65545480396,
          "peakLevel" : 0.676031112670898,
          "metaData" : ""
        }
      ],
      "metadata" : {
        "timeAdded" : "20231014T232038.635946"
      }
    },
    {
      "id" : 20,
      "src" : "C:\\Users\\kathl\\Dropbox\\Projects\\mslearn-create-razor-pages-aspnet-core\\demo\\video\\project\\narration\\n14.mp3",
      "rect" : [0, 0, 0, 0],
      "lastMod" : "20231014T233055",
      "loudnessNormalization" : true,
      "sourceTracks" : [
        {
          "range" : [0, 26400000],
          "type" : 2,
          "editRate" : 10000000,
          "trackRect" : [0, 0, 0, 0],
          "sampleRate" : 24000,
          "bitDepth" : 0,
          "numChannels" : 1,
          "integratedLUFS" : -17.5153816088043,
          "peakLevel" : 0.723146975040436,
          "metaData" : ""
        }
      ],
      "metadata" : {
        "timeAdded" : "20231014T233124.850746"
      }
    },
    {
      "id" : 21,
      "src" : "C:\\Users\\kathl\\Dropbox\\Projects\\mslearn-create-razor-pages-aspnet-core\\demo\\video\\project\\narration\\n15.mp3",
      "rect" : [0, 0, 0, 0],
      "lastMod" : "20231014T233710",
      "loudnessNormalization" : true,
      "sourceTracks" : [
        {
          "range" : [0, 47520000],
          "type" : 2,
          "editRate" : 10000000,
          "trackRect" : [0, 0, 0, 0],
          "sampleRate" : 24000,
          "bitDepth" : 0,
          "numChannels" : 1,
          "integratedLUFS" : -17.4548751152881,
          "peakLevel" : 0.693094730377197,
          "metaData" : ""
        }
      ],
      "metadata" : {
        "timeAdded" : "20231014T233755.817217"
      }
    },
    {
      "id" : 22,
      "src" : "C:\\Users\\kathl\\Dropbox\\Projects\\mslearn-create-razor-pages-aspnet-core\\demo\\video\\project\\narration\\n16.mp3",
      "rect" : [0, 0, 0, 0],
      "lastMod" : "20231014T234153",
      "loudnessNormalization" : true,
      "sourceTracks" : [
        {
          "range" : [0, 123840000],
          "type" : 2,
          "editRate" : 10000000,
          "trackRect" : [0, 0, 0, 0],
          "sampleRate" : 24000,
          "bitDepth" : 0,
          "numChannels" : 1,
          "integratedLUFS" : -17.0756270194344,
          "peakLevel" : 0.815138936042786,
          "metaData" : ""
        }
      ],
      "metadata" : {
        "timeAdded" : "20231014T234215.710115"
      }
    }
  ],
  "timeline" : {
    "id" : 23,
    "sceneTrack" : {
      "scenes" : [
        {
          "csml" : {
            "tracks" : [
              {
                "trackIndex" : 0,
                "medias" : [
                  {
                    "id" : 24,
                    "_type" : "Group",
                    "parameters" : {
                      "scale0" : 0.998148143291473,
                      "scale1" : 0.998148143291473,
                      "geometryCrop0" : 0.0,
                      "geometryCrop1" : 0.0,
                      "geometryCrop2" : 0.0,
                      "geometryCrop3" : 0.0,
                      "volume" : 1.0
                    },
                    "tracks" : [
                      {
                        "trackIndex" : 0,
                        "medias" : [
                          {
                            "id" : 25,
                            "_type" : "Callout",
                            "def" : {
                                "kind" : "remix",
                                "shape" : "shape-rectangle",
                                "style" : "basic",
                                "fill-color-blue" : 1.0,
                                "fill-color-green" : 1.0,
                                "fill-color-opacity" : {
                                  "type" : "double",
                                  "defaultValue" : 1.0,
                                  "keyframes" : [
                                    {
                                      "endTime" : 7949760000,
                                      "time" : 7126560000,
                                      "value" : 0.0,
                                      "interp" : "eioe",
                                      "duration" : 823200000
                                    }
                                  ]
                                },
                                "fill-color-red" : 1.0,
                                "height" : 1079.99999999997,
                                "stroke-color-blue" : 1.0,
                                "stroke-color-green" : 1.0,
                                "stroke-color-opacity" : 1.0,
                                "stroke-color-red" : 1.0,
                                "stroke-width" : 0.0,
                                "width" : 1920.00000666417,
                                "fill-style" : "solid",
                                "horizontal-alignment" : "center",
                                "stroke-style" : "solid",
                                "vertical-alignment" : "center",
                                "textAttributes" : {
                                  "type" : "textAttributeList",
                                  "keyframes" : [
                                    {
                                      "endTime" : 0,
                                      "time" : 0,
                                      "value" : null,
                                      "duration" : 0
                                    }
                                  ]
                                }
                            },
                            "attributes" : {
                              "ident" : "",
                              "autoRotateText" : true
                            },
                            "parameters" : {
                              "translation0" : {
                                "type" : "double",
                                "defaultValue" : 0.593162372344601,
                                "keyframes" : [
                                  {
                                    "endTime" : 7949760000,
                                    "time" : 7126560000,
                                    "value" : 0.593162372344601,
                                    "interp" : "eioe",
                                    "duration" : 823200000
                                  }
                                ]
                              },
                              "translation1" : {
                                "type" : "double",
                                "defaultValue" : -8.60040927364025e-11,
                                "keyframes" : [
                                  {
                                    "endTime" : 7949760000,
                                    "time" : 7126560000,
                                    "value" : -8.60040927364025e-11,
                                    "interp" : "eioe",
                                    "duration" : 823200000
                                  }
                                ]
                              },
                              "geometryCrop0" : 0.0,
                              "geometryCrop1" : 0.0,
                              "geometryCrop2" : 0.0,
                              "geometryCrop3" : 0.0
                            },
                            "effects" : [

                            ],
                            "start" : 0,
                            "duration" : 3457440000,
                            "mediaStart" : 0,
                            "mediaDuration" : 3457440000,
                            "scalar" : 1,
                            "metadata" : {
                              "WinSubProjectDisplayName" : "",
                              "clipSpeedAttribute" : false,
                              "effectApplied" : "none"
                            },
                            "animationTracks" : {
                              "visual" : [
                                {
                                  "endTime" : 7949760000,
                                  "duration" : 823200000,
                                  "range" : [ 7126560000, 823200000],
                                  "interp" : "eioe"
                                }
                              ]
                            }
                          }
                        ],
                          "ident" : "",
                          "audioMuted" : false,
                          "videoHidden" : false,
                          "magnetic" : false,
                          "matte" : 0,
                          "solo" : false,
                          "metadata" : {
                            "IsLocked" : "False",
                            "WinTrackHeight" : "56"
                          }
                      },
                      {
                        "trackIndex" : 1,
                        "medias" : [
                          {
                            "id" : 26,
                            "_type" : "IMFile",
                            "src" : 1,
                            "trackNumber" : 0,
                            "trimStartSum" : 0,
                            "attributes" : {
                              "ident" : "Green tip"
                            },
                            "parameters" : {
                              "translation0" : {
                                "type" : "double",
                                "defaultValue" : -1542.0735042944,
                                "keyframes" : [
                                  {
                                    "endTime" : 2116800000,
                                    "time" : 0,
                                    "value" : 337.926495705756,
                                    "interp" : "sprg",
                                    "duration" : 2116800000
                                  },
                                  {
                                    "endTime" : 7126560000,
                                    "time" : 5997600000,
                                    "value" : -1353.50207572253,
                                    "interp" : "eioe",
                                    "duration" : 1128960000
                                  }
                                ]
                              },
                              "translation1" : {
                                "type" : "double",
                                "defaultValue" : 2.91271704628983,
                                "keyframes" : [
                                  {
                                    "endTime" : 2116800000,
                                    "time" : 0,
                                    "value" : 2.91271704628983,
                                    "interp" : "sprg",
                                    "duration" : 2116800000
                                  },
                                  {
                                    "endTime" : 7126560000,
                                    "time" : 5997600000,
                                    "value" : 2.91271704628983,
                                    "interp" : "eioe",
                                    "duration" : 1128960000
                                  }
                                ]
                              },
                              "rotation2" : {
                                "type" : "double",
                                "defaultValue" : 3.14159265358979,
                                "keyframes" : [
                                  {
                                    "endTime" : 2116800000,
                                    "time" : 0,
                                    "value" : 0.0,
                                    "interp" : "sprg",
                                    "duration" : 2116800000
                                  },
                                  {
                                    "endTime" : 7126560000,
                                    "time" : 5997600000,
                                    "value" : -3.14159265358979,
                                    "interp" : "eioe",
                                    "duration" : 1128960000
                                  }
                                ]
                              },
                              "geometryCrop0" : 0.0,
                              "geometryCrop1" : 0.0,
                              "geometryCrop2" : 0.0,
                              "geometryCrop3" : 0.0
                            },
                            "effects" : [

                            ],
                            "start" : 0,
                            "duration" : 7949760000,
                            "mediaStart" : 0,
                            "mediaDuration" : 1,
                            "scalar" : 1,
                            "metadata" : {
                              "WinSubProjectDisplayName" : "",
                              "clipSpeedAttribute" : false,
                              "effectApplied" : "none"
                            },
                            "animationTracks" : {
                              "visual" : [
                                {
                                  "endTime" : 2116800000,
                                  "duration" : 2116800000,
                                  "range" : [ 0, 2116800000],
                                  "interp" : "sprg"
                                },
                                {
                                  "endTime" : 7126560000,
                                  "duration" : 1128960000,
                                  "range" : [ 5997600000, 1128960000],
                                  "interp" : "eioe"
                                }
                              ]
                            }
                          }
                        ],
                          "ident" : "",
                          "audioMuted" : false,
                          "videoHidden" : false,
                          "magnetic" : false,
                          "matte" : 0,
                          "solo" : false,
                          "metadata" : {
                            "IsLocked" : "False",
                            "WinTrackHeight" : "56"
                          }
                      },
                      {
                        "trackIndex" : 2,
                        "medias" : [
                          {
                            "id" : 27,
                            "_type" : "IMFile",
                            "src" : 2,
                            "trackNumber" : 0,
                            "trimStartSum" : 0,
                            "attributes" : {
                              "ident" : "Blue tip"
                            },
                            "parameters" : {
                              "translation0" : {
                                "type" : "double",
                                "defaultValue" : 1626.42649570601,
                                "keyframes" : [
                                  {
                                    "endTime" : 2116800000,
                                    "time" : 0,
                                    "value" : -333.573504294209,
                                    "interp" : "sprg",
                                    "duration" : 2116800000
                                  },
                                  {
                                    "endTime" : 7126560000,
                                    "time" : 5997600000,
                                    "value" : 1340.7122099912,
                                    "interp" : "eioe",
                                    "duration" : 1128960000
                                  }
                                ]
                              },
                              "translation1" : {
                                "type" : "double",
                                "defaultValue" : 2.91271704630461,
                                "keyframes" : [
                                  {
                                    "endTime" : 2116800000,
                                    "time" : 0,
                                    "value" : 2.91271704630461,
                                    "interp" : "sprg",
                                    "duration" : 2116800000
                                  },
                                  {
                                    "endTime" : 7126560000,
                                    "time" : 5997600000,
                                    "value" : 2.91271704630461,
                                    "interp" : "eioe",
                                    "duration" : 1128960000
                                  }
                                ]
                              },
                              "rotation2" : {
                                "type" : "double",
                                "defaultValue" : -3.14159265358979,
                                "keyframes" : [
                                  {
                                    "endTime" : 2116800000,
                                    "time" : 0,
                                    "value" : 0.0,
                                    "interp" : "sprg",
                                    "duration" : 2116800000
                                  },
                                  {
                                    "endTime" : 7126560000,
                                    "time" : 5997600000,
                                    "value" : 3.14159265358979,
                                    "interp" : "eioe",
                                    "duration" : 1128960000
                                  }
                                ]
                              },
                              "geometryCrop0" : 0.0,
                              "geometryCrop1" : 0.0,
                              "geometryCrop2" : 0.0,
                              "geometryCrop3" : 0.0
                            },
                            "effects" : [

                            ],
                            "start" : 0,
                            "duration" : 7949760000,
                            "mediaStart" : 0,
                            "mediaDuration" : 1,
                            "scalar" : 1,
                            "metadata" : {
                              "WinSubProjectDisplayName" : "",
                              "clipSpeedAttribute" : false,
                              "effectApplied" : "none"
                            },
                            "animationTracks" : {
                              "visual" : [
                                {
                                  "endTime" : 2116800000,
                                  "duration" : 2116800000,
                                  "range" : [ 0, 2116800000],
                                  "interp" : "sprg"
                                },
                                {
                                  "endTime" : 7126560000,
                                  "duration" : 1128960000,
                                  "range" : [ 5997600000, 1128960000],
                                  "interp" : "eioe"
                                }
                              ]
                            }
                          }
                        ],
                          "ident" : "",
                          "audioMuted" : false,
                          "videoHidden" : false,
                          "magnetic" : false,
                          "matte" : 0,
                          "solo" : false,
                          "metadata" : {
                            "IsLocked" : "False",
                            "WinTrackHeight" : "56"
                          }
                      },
                      {
                        "trackIndex" : 3,
                        "medias" : [
                          {
                            "id" : 28,
                            "_type" : "Callout",
                            "def" : {
                                "kind" : "remix",
                                "shape" : "shape-rectangle",
                                "style" : "bold",
                                "fill-color-blue" : {
                                  "type" : "double",
                                  "defaultValue" : 0.392156862745098,
                                  "keyframes" : [
                                    {
                                      "endTime" : 1176000000,
                                      "time" : 0,
                                      "value" : 0.392156862745098,
                                      "interp" : "sprg",
                                      "duration" : 1176000000
                                    }
                                  ]
                                },
                                "fill-color-green" : {
                                  "type" : "double",
                                  "defaultValue" : 0.105882352941176,
                                  "keyframes" : [
                                    {
                                      "endTime" : 1176000000,
                                      "time" : 0,
                                      "value" : 0.105882352941176,
                                      "interp" : "sprg",
                                      "duration" : 1176000000
                                    }
                                  ]
                                },
                                "fill-color-opacity" : 1.0,
                                "fill-color-red" : {
                                  "type" : "double",
                                  "defaultValue" : 0.0901960784313725,
                                  "keyframes" : [
                                    {
                                      "endTime" : 1176000000,
                                      "time" : 0,
                                      "value" : 0.0901960784313725,
                                      "interp" : "sprg",
                                      "duration" : 1176000000
                                    }
                                  ]
                                },
                                "height" : 180.0,
                                "stroke-color-blue" : 0.36078431372549,
                                "stroke-color-green" : 0.109803921568627,
                                "stroke-color-opacity" : 1.0,
                                "stroke-color-red" : 0.0901960784313725,
                                "stroke-width" : {
                                  "type" : "double",
                                  "defaultValue" : 0.0,
                                  "keyframes" : [
                                    {
                                      "endTime" : 1176000000,
                                      "time" : 0,
                                      "value" : 4.0,
                                      "interp" : "sprg",
                                      "duration" : 1176000000
                                    }
                                  ]
                                },
                                "width" : {
                                  "type" : "double",
                                  "defaultValue" : 1.39383657907605,
                                  "keyframes" : [
                                    {
                                      "endTime" : 1176000000,
                                      "time" : 0,
                                      "value" : 1142.69232109579,
                                      "interp" : "sprg",
                                      "duration" : 1176000000
                                    }
                                  ]
                                },
                                "fill-style" : "solid",
                                "horizontal-alignment" : "center",
                                "stroke-style" : "solid",
                                "vertical-alignment" : "center",
                                "textAttributes" : {
                                  "type" : "textAttributeList",
                                  "keyframes" : [
                                    {
                                      "endTime" : 0,
                                      "time" : 0,
                                      "value" : null,
                                      "duration" : 0
                                    }
                                  ]
                                }
                            },
                            "attributes" : {
                              "ident" : "",
                              "autoRotateText" : true
                            },
                            "parameters" : {
                              "translation0" : {
                                "type" : "double",
                                "defaultValue" : 2.6968881127488,
                                "keyframes" : [
                                  {
                                    "endTime" : 1176000000,
                                    "time" : 0,
                                    "value" : 2.68067348017098e-05,
                                    "interp" : "sprg",
                                    "duration" : 1176000000
                                  }
                                ]
                              },
                              "translation1" : {
                                "type" : "double",
                                "defaultValue" : -1.1394263310649e-10,
                                "keyframes" : [
                                  {
                                    "endTime" : 1176000000,
                                    "time" : 0,
                                    "value" : -1.1394263310649e-10,
                                    "interp" : "sprg",
                                    "duration" : 1176000000
                                  }
                                ]
                              },
                              "geometryCrop0" : 0.0,
                              "geometryCrop1" : 0.0,
                              "geometryCrop2" : 0.0,
                              "geometryCrop3" : 0.0
                            },
                            "effects" : [

                            ],
                            "start" : 611520000,
                            "duration" : 6373920000,
                            "mediaStart" : 0,
                            "mediaDuration" : 6373920000,
                            "scalar" : 1,
                            "metadata" : {
                              "WinSubProjectDisplayName" : "",
                              "clipSpeedAttribute" : false,
                              "effectApplied" : "none"
                            },
                            "animationTracks" : {
                              "visual" : [
                                {
                                  "endTime" : 1176000000,
                                  "duration" : 1176000000,
                                  "range" : [ 0, 1176000000],
                                  "interp" : "sprg"
                                }
                              ]
                            }
                          }
                        ],
                          "ident" : "",
                          "audioMuted" : false,
                          "videoHidden" : false,
                          "magnetic" : false,
                          "matte" : 0,
                          "solo" : false,
                          "metadata" : {
                            "IsLocked" : "False",
                            "WinTrackHeight" : "56"
                          }
                      },
                      {
                        "trackIndex" : 4,
                        "medias" : [
                          {
                            "id" : 29,
                            "_type" : "Callout",
                            "def" : {
                                "kind" : "remix",
                                "shape" : "shape-rectangle",
                                "style" : "bold",
                                "fill-color-blue" : {
                                  "type" : "double",
                                  "defaultValue" : 0.313725490196078,
                                  "keyframes" : [
                                    {
                                      "endTime" : 1176000000,
                                      "time" : 0,
                                      "value" : 0.403921568627451,
                                      "interp" : "sprg",
                                      "duration" : 1176000000
                                    }
                                  ]
                                },
                                "fill-color-green" : {
                                  "type" : "double",
                                  "defaultValue" : 0.764705882352941,
                                  "keyframes" : [
                                    {
                                      "endTime" : 1176000000,
                                      "time" : 0,
                                      "value" : 0.831372549019608,
                                      "interp" : "sprg",
                                      "duration" : 1176000000
                                    }
                                  ]
                                },
                                "fill-color-opacity" : 1.0,
                                "fill-color-red" : {
                                  "type" : "double",
                                  "defaultValue" : 0.909803921568627,
                                  "keyframes" : [
                                    {
                                      "endTime" : 1176000000,
                                      "time" : 0,
                                      "value" : 0.635294117647059,
                                      "interp" : "sprg",
                                      "duration" : 1176000000
                                    }
                                  ]
                                },
                                "height" : 180.0,
                                "stroke-color-blue" : 0.36078431372549,
                                "stroke-color-green" : 0.109803921568627,
                                "stroke-color-opacity" : 1.0,
                                "stroke-color-red" : 0.0901960784313725,
                                "stroke-width" : {
                                  "type" : "double",
                                  "defaultValue" : 0.0,
                                  "keyframes" : [
                                    {
                                      "endTime" : 1176000000,
                                      "time" : 0,
                                      "value" : 4.0,
                                      "interp" : "sprg",
                                      "duration" : 1176000000
                                    }
                                  ]
                                },
                                "width" : {
                                  "type" : "double",
                                  "defaultValue" : 1.39383657907605,
                                  "keyframes" : [
                                    {
                                      "endTime" : 1176000000,
                                      "time" : 0,
                                      "value" : 1142.69232109579,
                                      "interp" : "sprg",
                                      "duration" : 1176000000
                                    }
                                  ]
                                },
                                "fill-style" : "solid",
                                "horizontal-alignment" : "center",
                                "stroke-style" : "solid",
                                "vertical-alignment" : "center",
                                "textAttributes" : {
                                  "type" : "textAttributeList",
                                  "keyframes" : [
                                    {
                                      "endTime" : 0,
                                      "time" : 0,
                                      "value" : null,
                                      "duration" : 0
                                    }
                                  ]
                                }
                            },
                            "attributes" : {
                              "ident" : "",
                              "autoRotateText" : true
                            },
                            "parameters" : {
                              "translation0" : {
                                "type" : "double",
                                "defaultValue" : 2.6968881127488,
                                "keyframes" : [
                                  {
                                    "endTime" : 1176000000,
                                    "time" : 0,
                                    "value" : 2.68067348017098e-05,
                                    "interp" : "sprg",
                                    "duration" : 1176000000
                                  }
                                ]
                              },
                              "translation1" : {
                                "type" : "double",
                                "defaultValue" : -1.1394263310649e-10,
                                "keyframes" : [
                                  {
                                    "endTime" : 1176000000,
                                    "time" : 0,
                                    "value" : -1.1394263310649e-10,
                                    "interp" : "sprg",
                                    "duration" : 1176000000
                                  }
                                ]
                              },
                              "geometryCrop0" : 0.0,
                              "geometryCrop1" : 0.0,
                              "geometryCrop2" : 0.0,
                              "geometryCrop3" : 0.0
                            },
                            "effects" : [

                            ],
                            "start" : 705600000,
                            "duration" : 6279840000,
                            "mediaStart" : 0,
                            "mediaDuration" : 6279840000,
                            "scalar" : 1,
                            "metadata" : {
                              "WinSubProjectDisplayName" : "",
                              "clipSpeedAttribute" : false,
                              "effectApplied" : "none"
                            },
                            "animationTracks" : {
                              "visual" : [
                                {
                                  "endTime" : 1176000000,
                                  "duration" : 1176000000,
                                  "range" : [ 0, 1176000000],
                                  "interp" : "sprg"
                                }
                              ]
                            }
                          }
                        ],
                          "ident" : "",
                          "audioMuted" : false,
                          "videoHidden" : false,
                          "magnetic" : false,
                          "matte" : 0,
                          "solo" : false,
                          "metadata" : {
                            "IsLocked" : "False",
                            "WinTrackHeight" : "56"
                          }
                      },
                      {
                        "trackIndex" : 5,
                        "medias" : [
                          {
                            "id" : 30,
                            "_type" : "Callout",
                            "def" : {
                                "kind" : "remix",
                                "shape" : "shape-rectangle",
                                "style" : "abstract",
                                "fill-color-blue" : 0.352941176470588,
                                "fill-color-green" : 0.105882352941176,
                                "fill-color-opacity" : 1.0,
                                "fill-color-red" : 0.0823529411764706,
                                "height" : 83.8738208871416,
                                "stroke-color-blue" : 1.0,
                                "stroke-color-green" : 1.0,
                                "stroke-color-opacity" : 1.0,
                                "stroke-color-red" : 1.0,
                                "stroke-width" : 0.0,
                                "width" : 584.467235396954,
                                "fill-style" : "solid",
                                "horizontal-alignment" : "center",
                                "stroke-style" : "solid",
                                "vertical-alignment" : "center",
                                "textAttributes" : {
                                  "type" : "textAttributeList",
                                  "keyframes" : [
                                    {
                                      "endTime" : 0,
                                      "time" : 0,
                                      "value" : null,
                                      "duration" : 0
                                    }
                                  ]
                                }
                            },
                            "attributes" : {
                              "ident" : "",
                              "autoRotateText" : true
                            },
                            "parameters" : {
                              "translation0" : {
                                "type" : "double",
                                "defaultValue" : -1283.28912015033,
                                "keyframes" : [
                                  {
                                    "endTime" : 705600000,
                                    "time" : 0,
                                    "value" : -277.95578681687,
                                    "interp" : "sprg",
                                    "duration" : 705600000
                                  }
                                ]
                              },
                              "translation1" : {
                                "type" : "double",
                                "defaultValue" : 136.794054574234,
                                "keyframes" : [
                                  {
                                    "endTime" : 705600000,
                                    "time" : 0,
                                    "value" : 136.794054574234,
                                    "interp" : "sprg",
                                    "duration" : 705600000
                                  }
                                ]
                              },
                              "geometryCrop0" : 0.0,
                              "geometryCrop1" : 0.0,
                              "geometryCrop2" : 0.0,
                              "geometryCrop3" : 0.0
                            },
                            "effects" : [

                            ],
                            "start" : 493920000,
                            "duration" : 6491520000,
                            "mediaStart" : 0,
                            "mediaDuration" : 6491520000,
                            "scalar" : 1,
                            "metadata" : {
                              "WinSubProjectDisplayName" : "",
                              "clipSpeedAttribute" : false,
                              "effectApplied" : "none"
                            },
                            "animationTracks" : {
                              "visual" : [
                                {
                                  "endTime" : 705600000,
                                  "duration" : 705600000,
                                  "range" : [ 0, 705600000],
                                  "interp" : "sprg"
                                }
                              ]
                            }
                          }
                        ],
                          "ident" : "",
                          "audioMuted" : false,
                          "videoHidden" : false,
                          "magnetic" : false,
                          "matte" : 0,
                          "solo" : false,
                          "metadata" : {
                            "IsLocked" : "False",
                            "WinTrackHeight" : "56"
                          }
                      },
                      {
                        "trackIndex" : 6,
                        "medias" : [
                          {
                            "id" : 31,
                            "_type" : "Callout",
                            "def" : {
                                "kind" : "remix",
                                "shape" : "text",
                                "style" : "basic",
                                "enable-ligatures" : 1.0,
                                "height" : 121.364764268116,
                                "line-spacing" : 0.0,
                                "width" : 1103.17265627741,
                                "word-wrap" : 1.0,
                                "horizontal-alignment" : "center",
                                "resize-behavior" : "resizeText",
                                "text" : "Contoso Pizza 🍕 Web UI",
                                "vertical-alignment" : "center",
                                "font" : {
                                  "color-blue" : 1.0,
                                  "color-green" : 1.0,
                                  "color-red" : 1.0,
                                  "size" : 96.0,
                                  "tracking" : 0.0,
                                  "name" : "Montserrat",
                                  "weight" : "Regular"
                                },
                                "textAttributes" : {
                                  "type" : "textAttributeList",
                                  "keyframes" : [
                                    {
                                      "endTime" : 0,
                                      "time" : 0,
                                      "value" : [{"name":"fontItalic","rangeEnd":25,"rangeStart":0,"value":0,"valueType":"int"},{"name":"fgColor","rangeEnd":25,"rangeStart":0,"value":"(23,27,100,255)","valueType":"color"},{"name":"strikethrough","rangeEnd":25,"rangeStart":0,"value":0,"valueType":"int"},{"name":"fontSize","rangeEnd":25,"rangeStart":0,"value":96.0,"valueType":"double"},{"name":"fontWeight","rangeEnd":25,"rangeStart":0,"value":700,"valueType":"int"},{"name":"fontName","rangeEnd":25,"rangeStart":0,"value":"Montserrat","valueType":"string"},{"name":"underline","rangeEnd":25,"rangeStart":0,"value":0,"valueType":"int"}],
                                      "duration" : 0
                                    }
                                  ]
                                }
                            },
                            "attributes" : {
                              "ident" : "",
                              "autoRotateText" : true
                            },
                            "parameters" : {
                              "translation0" : 1.006834233657,
                              "translation1" : 0.317617865848291,
                              "geometryCrop0" : 0.0,
                              "geometryCrop1" : 0.0,
                              "geometryCrop2" : 0.0,
                              "geometryCrop3" : 0.0
                            },
                            "effects" : [
                                {
                                  "_type" : "GenericBehaviorEffect",
                                  "effectName" : "pulsating",
                                  "bypassed" : false,
                                  "start" : 0,
                                  "duration" : 7432320000                                ,
                                  "in" : {
                                    "attributes" : {
                                      "name" : "grow",
                                      "type" : 1,
                                      "characterOrder" : 4,
                                      "offsetBetweenCharacters" : 23520000,
                                      "suggestedDurationPerCharacter" : 423360000,
                                      "overlapProportion" : "3/4",
                                      "movement" : 30,
                                      "springDamping" : 5.0,
                                      "springStiffness" : 50.0,
                                      "bounceBounciness" : 0.45
                                    }
                                  
                                  },
                                  "center" : {
                                    "attributes" : {
                                      "name" : "none",
                                      "type" : 1,
                                      "characterOrder" : 6,
                                      "offsetBetweenCharacters" : 0,
                                      "secondsPerLoop" : 1,
                                      "numberOfLoops" : -1,
                                      "delayBetweenLoops" : 0
                                    }
                                  
                                  },
                                  "out" : {
                                    "attributes" : {
                                      "name" : "shrink",
                                      "type" : 1,
                                      "characterOrder" : 4,
                                      "offsetBetweenCharacters" : 23520000,
                                      "suggestedDurationPerCharacter" : 341040000,
                                      "overlapProportion" : "1/10",
                                      "movement" : 11,
                                      "springDamping" : 5.0,
                                      "springStiffness" : 50.0,
                                      "bounceBounciness" : 0.45
                                    }
                                  
                                  }
                                }
                            ],
                            "start" : 705600000,
                            "duration" : 6256320000,
                            "mediaStart" : 0,
                            "mediaDuration" : 6256320000,
                            "scalar" : 1,
                            "metadata" : {
                              "WinSubProjectDisplayName" : "",
                              "clipSpeedAttribute" : false,
                              "effectApplied" : "none"
                            },
                            "animationTracks" : {

                            }
                          }
                        ],
                          "ident" : "",
                          "audioMuted" : false,
                          "videoHidden" : false,
                          "magnetic" : false,
                          "matte" : 0,
                          "solo" : false,
                          "metadata" : {
                            "IsLocked" : "False",
                            "WinTrackHeight" : "56"
                          }
                      },
                      {
                        "trackIndex" : 7,
                        "medias" : [
                          {
                            "id" : 32,
                            "_type" : "Callout",
                            "def" : {
                                "kind" : "remix",
                                "shape" : "text",
                                "style" : "basic",
                                "enable-ligatures" : 1.0,
                                "height" : 80.2142842565245,
                                "line-spacing" : 0.0,
                                "width" : 672.980597577633,
                                "word-wrap" : 1.0,
                                "horizontal-alignment" : "left",
                                "resize-behavior" : "resizeText",
                                "text" : "Kathleen West",
                                "vertical-alignment" : "center",
                                "font" : {
                                  "color-blue" : 1.0,
                                  "color-green" : 1.0,
                                  "color-red" : 1.0,
                                  "size" : 96.0,
                                  "tracking" : 0.0,
                                  "name" : "Montserrat",
                                  "weight" : "Regular"
                                },
                                "textAttributes" : {
                                  "type" : "textAttributeList",
                                  "keyframes" : [
                                    {
                                      "endTime" : 0,
                                      "time" : 0,
                                      "value" : [{"name":"fontWeight","rangeEnd":13,"rangeStart":0,"value":700,"valueType":"int"},{"name":"fontName","rangeEnd":13,"rangeStart":0,"value":"Montserrat","valueType":"string"},{"name":"underline","rangeEnd":13,"rangeStart":0,"value":0,"valueType":"int"},{"name":"fontItalic","rangeEnd":13,"rangeStart":0,"value":0,"valueType":"int"},{"name":"fgColor","rangeEnd":13,"rangeStart":0,"value":"(255,255,255,255)","valueType":"color"},{"name":"fontSize","rangeEnd":13,"rangeStart":0,"value":96.0,"valueType":"double"},{"name":"strikethrough","rangeEnd":13,"rangeStart":0,"value":0,"valueType":"int"}],
                                      "duration" : 0
                                    }
                                  ]
                                }
                            },
                            "attributes" : {
                              "ident" : "",
                              "autoRotateText" : true
                            },
                            "parameters" : {
                              "translation0" : -207.826499099663,
                              "translation1" : 135.357144130816,
                              "geometryCrop0" : 0.0,
                              "geometryCrop1" : 0.0,
                              "geometryCrop2" : 0.0,
                              "geometryCrop3" : 0.0
                            },
                            "effects" : [
                                {
                                  "_type" : "GenericBehaviorEffect",
                                  "effectName" : "reveal",
                                  "bypassed" : false,
                                  "start" : 0,
                                  "duration" : 7432320000                                ,
                                  "in" : {
                                    "attributes" : {
                                      "name" : "reveal",
                                      "type" : 1,
                                      "characterOrder" : 7,
                                      "offsetBetweenCharacters" : 35280000,
                                      "suggestedDurationPerCharacter" : 517440000,
                                      "overlapProportion" : 0,
                                      "movement" : 16,
                                      "springDamping" : 5.0,
                                      "springStiffness" : 50.0,
                                      "bounceBounciness" : 0.45
                                    },
                                    "parameters" : {
                                      "direction" : {
                                        "type" : "int",
                                        "valueBounds" : {
                                          "minValue" : 0,
                                          "maxValue" : 3,
                                          "defaultValue" : 0
                                        },
                                        "uiHints" : {
                                          "userInterfaceType" : 2,
                                          "unitType" : 0
                                        },
                                        "keyframes" : [
                                          {
                                            "endTime" : 0,
                                            "time" : 0,
                                            "value" : 0,
                                            "duration" : 0
                                          }
                                        ]
                                      }
                                    }
                                  
                                  },
                                  "center" : {
                                    "attributes" : {
                                      "name" : "none",
                                      "type" : 1,
                                      "characterOrder" : 6,
                                      "offsetBetweenCharacters" : 0,
                                      "secondsPerLoop" : 1,
                                      "numberOfLoops" : -1,
                                      "delayBetweenLoops" : 0
                                    }
                                  
                                  },
                                  "out" : {
                                    "attributes" : {
                                      "name" : "reveal",
                                      "type" : 1,
                                      "characterOrder" : 7,
                                      "offsetBetweenCharacters" : 35280000,
                                      "suggestedDurationPerCharacter" : 399840000,
                                      "overlapProportion" : "1/2",
                                      "movement" : 6,
                                      "springDamping" : 5.0,
                                      "springStiffness" : 50.0,
                                      "bounceBounciness" : 0.45
                                    },
                                    "parameters" : {
                                      "direction" : {
                                        "type" : "int",
                                        "valueBounds" : {
                                          "minValue" : 0,
                                          "maxValue" : 3,
                                          "defaultValue" : 2
                                        },
                                        "uiHints" : {
                                          "userInterfaceType" : 2,
                                          "unitType" : 0
                                        },
                                        "keyframes" : [
                                          {
                                            "endTime" : 0,
                                            "time" : 0,
                                            "value" : 2,
                                            "duration" : 0
                                          }
                                        ]
                                      }
                                    }
                                  
                                  }
                                }
                            ],
                            "start" : 493920000,
                            "duration" : 6491520000,
                            "mediaStart" : 0,
                            "mediaDuration" : 6491520000,
                            "scalar" : 1,
                            "metadata" : {
                              "WinSubProjectDisplayName" : "",
                              "clipSpeedAttribute" : false,
                              "effectApplied" : "none"
                            },
                            "animationTracks" : {

                            }
                          }
                        ],
                          "ident" : "",
                          "audioMuted" : false,
                          "videoHidden" : false,
                          "magnetic" : false,
                          "matte" : 0,
                          "solo" : false,
                          "metadata" : {
                            "IsLocked" : "False",
                            "WinTrackHeight" : "56"
                          }
                      },
                      {
                        "trackIndex" : 8,
                        "medias" : [
                          {
                            "id" : 33,
                            "_type" : "Callout",
                            "def" : {
                                "kind" : "remix",
                                "shape" : "shape-rectangle",
                                "style" : "bold",
                                "fill-color-blue" : {
                                  "type" : "double",
                                  "defaultValue" : 0.352941176470588,
                                  "keyframes" : [
                                    {
                                      "endTime" : 6138720000,
                                      "time" : 5809440000,
                                      "value" : 0.352941176470588,
                                      "interp" : "eioe",
                                      "duration" : 329280000
                                    }
                                  ]
                                },
                                "fill-color-green" : {
                                  "type" : "double",
                                  "defaultValue" : 0.105882352941176,
                                  "keyframes" : [
                                    {
                                      "endTime" : 6138720000,
                                      "time" : 5809440000,
                                      "value" : 0.105882352941176,
                                      "interp" : "eioe",
                                      "duration" : 329280000
                                    }
                                  ]
                                },
                                "fill-color-opacity" : 1.0,
                                "fill-color-red" : {
                                  "type" : "double",
                                  "defaultValue" : 0.0823529411764706,
                                  "keyframes" : [
                                    {
                                      "endTime" : 6138720000,
                                      "time" : 5809440000,
                                      "value" : 0.0823529411764706,
                                      "interp" : "eioe",
                                      "duration" : 329280000
                                    }
                                  ]
                                },
                                "height" : 180.0,
                                "stroke-color-blue" : {
                                  "type" : "double",
                                  "defaultValue" : 1.0,
                                  "keyframes" : [
                                    {
                                      "endTime" : 6138720000,
                                      "time" : 5809440000,
                                      "value" : 1.0,
                                      "interp" : "eioe",
                                      "duration" : 329280000
                                    }
                                  ]
                                },
                                "stroke-color-green" : {
                                  "type" : "double",
                                  "defaultValue" : 1.0,
                                  "keyframes" : [
                                    {
                                      "endTime" : 6138720000,
                                      "time" : 5809440000,
                                      "value" : 1.0,
                                      "interp" : "eioe",
                                      "duration" : 329280000
                                    }
                                  ]
                                },
                                "stroke-color-opacity" : 1.0,
                                "stroke-color-red" : {
                                  "type" : "double",
                                  "defaultValue" : 1.0,
                                  "keyframes" : [
                                    {
                                      "endTime" : 6138720000,
                                      "time" : 5809440000,
                                      "value" : 1.0,
                                      "interp" : "eioe",
                                      "duration" : 329280000
                                    }
                                  ]
                                },
                                "stroke-width" : {
                                  "type" : "double",
                                  "defaultValue" : 0.0,
                                  "keyframes" : [
                                    {
                                      "endTime" : 6138720000,
                                      "time" : 5809440000,
                                      "value" : 5.0,
                                      "interp" : "eioe",
                                      "duration" : 329280000
                                    }
                                  ]
                                },
                                "width" : {
                                  "type" : "double",
                                  "defaultValue" : 1.39383657907605,
                                  "keyframes" : [
                                    {
                                      "endTime" : 6138720000,
                                      "time" : 5809440000,
                                      "value" : 1146.6922603268,
                                      "interp" : "eioe",
                                      "duration" : 329280000
                                    }
                                  ]
                                },
                                "fill-style" : "solid",
                                "horizontal-alignment" : "center",
                                "stroke-style" : "solid",
                                "vertical-alignment" : "center",
                                "textAttributes" : {
                                  "type" : "textAttributeList",
                                  "keyframes" : [
                                    {
                                      "endTime" : 0,
                                      "time" : 0,
                                      "value" : null,
                                      "duration" : 0
                                    }
                                  ]
                                }
                            },
                            "attributes" : {
                              "ident" : "",
                              "autoRotateText" : true
                            },
                            "parameters" : {
                              "translation0" : {
                                "type" : "double",
                                "defaultValue" : 2.6968881127488,
                                "keyframes" : [
                                  {
                                    "endTime" : 6138720000,
                                    "time" : 5809440000,
                                    "value" : 2.80880525025395e-05,
                                    "interp" : "eioe",
                                    "duration" : 329280000
                                  }
                                ]
                              },
                              "translation1" : {
                                "type" : "double",
                                "defaultValue" : -1.1394263310649e-10,
                                "keyframes" : [
                                  {
                                    "endTime" : 6138720000,
                                    "time" : 5809440000,
                                    "value" : -1.1394263310649e-10,
                                    "interp" : "eioe",
                                    "duration" : 329280000
                                  }
                                ]
                              },
                              "geometryCrop0" : 0.0,
                              "geometryCrop1" : 0.0,
                              "geometryCrop2" : 0.0,
                              "geometryCrop3" : 0.0
                            },
                            "effects" : [

                            ],
                            "start" : 6444480000,
                            "duration" : 540960000,
                            "mediaStart" : 5738880000,
                            "mediaDuration" : 540960000,
                            "scalar" : 1,
                            "metadata" : {
                              "WinSubProjectDisplayName" : "",
                              "clipSpeedAttribute" : false,
                              "effectApplied" : "none"
                            },
                            "animationTracks" : {
                              "visual" : [
                                {
                                  "endTime" : 6138720000,
                                  "duration" : 329280000,
                                  "range" : [ 5809440000, 329280000],
                                  "interp" : "eioe"
                                }
                              ]
                            }
                          }
                        ],
                          "ident" : "",
                          "audioMuted" : false,
                          "videoHidden" : false,
                          "magnetic" : false,
                          "matte" : 0,
                          "solo" : false,
                          "metadata" : {
                            "IsLocked" : "False",
                            "WinTrackHeight" : "56"
                          }
                      },
                      {
                        "trackIndex" : 9,
                        "medias" : [
                          {
                            "id" : 34,
                            "_type" : "Callout",
                            "def" : {
                                "kind" : "remix",
                                "shape" : "shape-rectangle",
                                "style" : "bold",
                                "fill-color-blue" : {
                                  "type" : "double",
                                  "defaultValue" : 1.0,
                                  "keyframes" : [
                                    {
                                      "endTime" : 6138720000,
                                      "time" : 5809440000,
                                      "value" : 1.0,
                                      "interp" : "eioe",
                                      "duration" : 329280000
                                    }
                                  ]
                                },
                                "fill-color-green" : {
                                  "type" : "double",
                                  "defaultValue" : 1.0,
                                  "keyframes" : [
                                    {
                                      "endTime" : 6138720000,
                                      "time" : 5809440000,
                                      "value" : 1.0,
                                      "interp" : "eioe",
                                      "duration" : 329280000
                                    }
                                  ]
                                },
                                "fill-color-opacity" : 1.0,
                                "fill-color-red" : {
                                  "type" : "double",
                                  "defaultValue" : 1.0,
                                  "keyframes" : [
                                    {
                                      "endTime" : 6138720000,
                                      "time" : 5809440000,
                                      "value" : 1.0,
                                      "interp" : "eioe",
                                      "duration" : 329280000
                                    }
                                  ]
                                },
                                "height" : 180.0,
                                "stroke-color-blue" : {
                                  "type" : "double",
                                  "defaultValue" : 1.0,
                                  "keyframes" : [
                                    {
                                      "endTime" : 6138720000,
                                      "time" : 5809440000,
                                      "value" : 1.0,
                                      "interp" : "eioe",
                                      "duration" : 329280000
                                    }
                                  ]
                                },
                                "stroke-color-green" : {
                                  "type" : "double",
                                  "defaultValue" : 1.0,
                                  "keyframes" : [
                                    {
                                      "endTime" : 6138720000,
                                      "time" : 5809440000,
                                      "value" : 1.0,
                                      "interp" : "eioe",
                                      "duration" : 329280000
                                    }
                                  ]
                                },
                                "stroke-color-opacity" : 1.0,
                                "stroke-color-red" : {
                                  "type" : "double",
                                  "defaultValue" : 1.0,
                                  "keyframes" : [
                                    {
                                      "endTime" : 6138720000,
                                      "time" : 5809440000,
                                      "value" : 1.0,
                                      "interp" : "eioe",
                                      "duration" : 329280000
                                    }
                                  ]
                                },
                                "stroke-width" : {
                                  "type" : "double",
                                  "defaultValue" : 0.0,
                                  "keyframes" : [
                                    {
                                      "endTime" : 6138720000,
                                      "time" : 5809440000,
                                      "value" : 5.0,
                                      "interp" : "eioe",
                                      "duration" : 329280000
                                    }
                                  ]
                                },
                                "width" : {
                                  "type" : "double",
                                  "defaultValue" : 1.39383657907605,
                                  "keyframes" : [
                                    {
                                      "endTime" : 6138720000,
                                      "time" : 5809440000,
                                      "value" : 1146.6922603268,
                                      "interp" : "eioe",
                                      "duration" : 329280000
                                    }
                                  ]
                                },
                                "fill-style" : "solid",
                                "horizontal-alignment" : "center",
                                "stroke-style" : "solid",
                                "vertical-alignment" : "center",
                                "textAttributes" : {
                                  "type" : "textAttributeList",
                                  "keyframes" : [
                                    {
                                      "endTime" : 0,
                                      "time" : 0,
                                      "value" : null,
                                      "duration" : 0
                                    }
                                  ]
                                }
                            },
                            "attributes" : {
                              "ident" : "",
                              "autoRotateText" : true
                            },
                            "parameters" : {
                              "translation0" : {
                                "type" : "double",
                                "defaultValue" : 2.6968881127488,
                                "keyframes" : [
                                  {
                                    "endTime" : 6138720000,
                                    "time" : 5809440000,
                                    "value" : 2.80880525025395e-05,
                                    "interp" : "eioe",
                                    "duration" : 329280000
                                  }
                                ]
                              },
                              "translation1" : {
                                "type" : "double",
                                "defaultValue" : -1.1394263310649e-10,
                                "keyframes" : [
                                  {
                                    "endTime" : 6138720000,
                                    "time" : 5809440000,
                                    "value" : -1.1394263310649e-10,
                                    "interp" : "eioe",
                                    "duration" : 329280000
                                  }
                                ]
                              },
                              "geometryCrop0" : 0.0,
                              "geometryCrop1" : 0.0,
                              "geometryCrop2" : 0.0,
                              "geometryCrop3" : 0.0
                            },
                            "effects" : [

                            ],
                            "start" : 6515040000,
                            "duration" : 470400000,
                            "mediaStart" : 5738880000,
                            "mediaDuration" : 470400000,
                            "scalar" : 1,
                            "metadata" : {
                              "WinSubProjectDisplayName" : "",
                              "clipSpeedAttribute" : false,
                              "effectApplied" : "none"
                            },
                            "animationTracks" : {
                              "visual" : [
                                {
                                  "endTime" : 6138720000,
                                  "duration" : 329280000,
                                  "range" : [ 5809440000, 329280000],
                                  "interp" : "eioe"
                                }
                              ]
                            }
                          }
                        ],
                          "ident" : "",
                          "audioMuted" : false,
                          "videoHidden" : false,
                          "magnetic" : false,
                          "matte" : 0,
                          "solo" : false,
                          "metadata" : {
                            "IsLocked" : "False",
                            "WinTrackHeight" : "56"
                          }
                      },
                      {
                        "trackIndex" : 10,
                        "medias" : [
                          {
                            "id" : 35,
                            "_type" : "Callout",
                            "def" : {
                                "kind" : "remix",
                                "shape" : "shape-rectangle",
                                "style" : "abstract",
                                "fill-color-blue" : {
                                  "type" : "double",
                                  "defaultValue" : 0.313725490196078,
                                  "keyframes" : [
                                    {
                                      "endTime" : 6303360000,
                                      "time" : 5974080000,
                                      "value" : 0.313725490196078,
                                      "interp" : "eioe",
                                      "duration" : 329280000
                                    }
                                  ]
                                },
                                "fill-color-green" : {
                                  "type" : "double",
                                  "defaultValue" : 0.764705882352941,
                                  "keyframes" : [
                                    {
                                      "endTime" : 6303360000,
                                      "time" : 5974080000,
                                      "value" : 0.764705882352941,
                                      "interp" : "eioe",
                                      "duration" : 329280000
                                    }
                                  ]
                                },
                                "fill-color-opacity" : 1.0,
                                "fill-color-red" : {
                                  "type" : "double",
                                  "defaultValue" : 0.909803921568627,
                                  "keyframes" : [
                                    {
                                      "endTime" : 6303360000,
                                      "time" : 5974080000,
                                      "value" : 0.909803921568627,
                                      "interp" : "eioe",
                                      "duration" : 329280000
                                    }
                                  ]
                                },
                                "height" : 83.8738208871416,
                                "stroke-color-blue" : 1.0,
                                "stroke-color-green" : 1.0,
                                "stroke-color-opacity" : 1.0,
                                "stroke-color-red" : 1.0,
                                "stroke-width" : 3.0,
                                "width" : {
                                  "type" : "double",
                                  "defaultValue" : 1.3767110993904,
                                  "keyframes" : [
                                    {
                                      "endTime" : 6303360000,
                                      "time" : 5974080000,
                                      "value" : 584.467235396954,
                                      "interp" : "eioe",
                                      "duration" : 329280000
                                    }
                                  ]
                                },
                                "fill-style" : "solid",
                                "horizontal-alignment" : "center",
                                "stroke-style" : "solid",
                                "vertical-alignment" : "center",
                                "textAttributes" : {
                                  "type" : "textAttributeList",
                                  "keyframes" : [
                                    {
                                      "endTime" : 0,
                                      "time" : 0,
                                      "value" : null,
                                      "duration" : 0
                                    }
                                  ]
                                }
                            },
                            "attributes" : {
                              "ident" : "",
                              "autoRotateText" : true
                            },
                            "parameters" : {
                              "translation0" : {
                                "type" : "double",
                                "defaultValue" : -280.144142431351,
                                "keyframes" : [
                                  {
                                    "endTime" : 6303360000,
                                    "time" : 5974080000,
                                    "value" : -278.265546949217,
                                    "interp" : "eioe",
                                    "duration" : 329280000
                                  }
                                ]
                              },
                              "translation1" : {
                                "type" : "double",
                                "defaultValue" : 136.794054574234,
                                "keyframes" : [
                                  {
                                    "endTime" : 6303360000,
                                    "time" : 5974080000,
                                    "value" : 136.794054574234,
                                    "interp" : "eioe",
                                    "duration" : 329280000
                                  }
                                ]
                              },
                              "geometryCrop0" : 0.0,
                              "geometryCrop1" : 0.0,
                              "geometryCrop2" : 0.0,
                              "geometryCrop3" : 0.0
                            },
                            "effects" : [

                            ],
                            "start" : 6585600000,
                            "duration" : 399840000,
                            "mediaStart" : 5974080000,
                            "mediaDuration" : 399840000,
                            "scalar" : 1,
                            "metadata" : {
                              "WinSubProjectDisplayName" : "",
                              "clipSpeedAttribute" : false,
                              "effectApplied" : "none"
                            },
                            "animationTracks" : {
                              "visual" : [
                                {
                                  "endTime" : 6303360000,
                                  "duration" : 329280000,
                                  "range" : [ 5974080000, 329280000],
                                  "interp" : "eioe"
                                }
                              ]
                            }
                          }
                        ],
                          "ident" : "",
                          "audioMuted" : false,
                          "videoHidden" : false,
                          "magnetic" : false,
                          "matte" : 0,
                          "solo" : false,
                          "metadata" : {
                            "IsLocked" : "False",
                            "WinTrackHeight" : "56"
                          }
                      },
                      {
                        "trackIndex" : 11,
                        "medias" : [
                          {
                            "id" : 36,
                            "_type" : "Callout",
                            "def" : {
                                "kind" : "remix",
                                "shape" : "shape-rectangle",
                                "style" : "abstract",
                                "fill-color-blue" : 1.0,
                                "fill-color-green" : 1.0,
                                "fill-color-opacity" : 1.0,
                                "fill-color-red" : 1.0,
                                "height" : 83.8738208871416,
                                "stroke-color-blue" : 1.0,
                                "stroke-color-green" : 1.0,
                                "stroke-color-opacity" : 1.0,
                                "stroke-color-red" : 1.0,
                                "stroke-width" : 3.0,
                                "width" : {
                                  "type" : "double",
                                  "defaultValue" : 1.3767110993904,
                                  "keyframes" : [
                                    {
                                      "endTime" : 6303360000,
                                      "time" : 5974080000,
                                      "value" : 584.467235396954,
                                      "interp" : "eioe",
                                      "duration" : 329280000
                                    }
                                  ]
                                },
                                "fill-style" : "solid",
                                "horizontal-alignment" : "center",
                                "stroke-style" : "solid",
                                "vertical-alignment" : "center",
                                "textAttributes" : {
                                  "type" : "textAttributeList",
                                  "keyframes" : [
                                    {
                                      "endTime" : 0,
                                      "time" : 0,
                                      "value" : null,
                                      "duration" : 0
                                    }
                                  ]
                                }
                            },
                            "attributes" : {
                              "ident" : "",
                              "autoRotateText" : true
                            },
                            "parameters" : {
                              "translation0" : {
                                "type" : "double",
                                "defaultValue" : -280.144142431351,
                                "keyframes" : [
                                  {
                                    "endTime" : 6303360000,
                                    "time" : 5974080000,
                                    "value" : -278.265546949217,
                                    "interp" : "eioe",
                                    "duration" : 329280000
                                  }
                                ]
                              },
                              "translation1" : {
                                "type" : "double",
                                "defaultValue" : 136.794054574234,
                                "keyframes" : [
                                  {
                                    "endTime" : 6303360000,
                                    "time" : 5974080000,
                                    "value" : 136.794054574234,
                                    "interp" : "eioe",
                                    "duration" : 329280000
                                  }
                                ]
                              },
                              "geometryCrop0" : 0.0,
                              "geometryCrop1" : 0.0,
                              "geometryCrop2" : 0.0,
                              "geometryCrop3" : 0.0
                            },
                            "effects" : [

                            ],
                            "start" : 6632640000,
                            "duration" : 352800000,
                            "mediaStart" : 5974080000,
                            "mediaDuration" : 352800000,
                            "scalar" : 1,
                            "metadata" : {
                              "WinSubProjectDisplayName" : "",
                              "clipSpeedAttribute" : false,
                              "effectApplied" : "none"
                            },
                            "animationTracks" : {
                              "visual" : [
                                {
                                  "endTime" : 6303360000,
                                  "duration" : 329280000,
                                  "range" : [ 5974080000, 329280000],
                                  "interp" : "eioe"
                                }
                              ]
                            }
                          }
                        ],
                          "ident" : "",
                          "audioMuted" : false,
                          "videoHidden" : false,
                          "magnetic" : false,
                          "matte" : 0,
                          "solo" : false,
                          "metadata" : {
                            "IsLocked" : "False",
                            "WinTrackHeight" : "56"
                          }
                      }
                    ],
                    "attributes" : {
                      "ident" : "My Intro",
                      "widthAttr" : 1918.0,
                      "heightAttr" : 1078.0,
                      "gain" : 1.0,
                      "mixToMono" : false,
                      "assetProperties" : [
                        {
                          "type" : 0,
                          "name" : "Title",
                          "objects" : [ 31 ],
                          "themeMappings" :  {
                            "font-color" : "background-1",
                            "font-family" : "font-1"
                          }
                        },
                        {
                          "type" : 0,
                          "name" : "Subtitle",
                          "objects" : [ 32 ],
                          "themeMappings" :  {
                            "font-color" : "foreground-1",
                            "font-family" : "font-1"
                          }
                        }
                      ]
                    },
                    "effects" : [

                    ],
                    "start" : 0,
                    "duration" : 3457440000,
                    "mediaStart" : 0.0,
                    "mediaDuration" : 3457440000.0,
                    "scalar" : 1,
                    "metadata" : {
                      "IsGroupExpanded" : "False",
                      "WinSubProjectDisplayName" : "",
                      "clipSpeedAttribute" : false,
                      "effectApplied" : "none",
                      "isOpen" : false
                    },
                    "animationTracks" : {

                    }
                  },
                  {
                    "id" : 37,
                    "_type" : "Group",
                    "parameters" : {
                      "scale0" : 1.42052974098668,
                      "scale1" : 1.42052974098668,
                      "geometryCrop0" : 0.0,
                      "geometryCrop1" : 0.0,
                      "geometryCrop2" : 0.0,
                      "geometryCrop3" : 0.0,
                      "volume" : 1.0
                    },
                    "tracks" : [
                      {
                        "trackIndex" : 0,
                        "medias" : [
                          {
                            "id" : 38,
                            "_type" : "Group",
                            "parameters" : {
                              "translation0" : 25.8897257495158,
                              "translation1" : 0.557798165143993,
                              "geometryCrop0" : 0.0,
                              "geometryCrop1" : 0.0,
                              "geometryCrop2" : 0.0,
                              "geometryCrop3" : 0.0,
                              "volume" : 1.0
                            },
                            "tracks" : [
                              {
                                "trackIndex" : 0,
                                "medias" : [
                                  {
                                    "id" : 39,
                                    "_type" : "Callout",
                                    "def" : {
                                        "kind" : "remix",
                                        "shape" : "shape-rectangle",
                                        "style" : "urban",
                                        "fill-color-blue" : {
                                          "type" : "double",
                                          "defaultValue" : 0.286274509803922,
                                          "keyframes" : [
                                            {
                                              "endTime" : 399840000,
                                              "time" : 0,
                                              "value" : 0.286274509803922,
                                              "interp" : "eioe",
                                              "duration" : 399840000
                                            },
                                            {
                                              "endTime" : 3504480000,
                                              "time" : 3034080000,
                                              "value" : 0.286274509803922,
                                              "interp" : "eioe",
                                              "duration" : 470400000
                                            }
                                          ]
                                        },
                                        "fill-color-green" : {
                                          "type" : "double",
                                          "defaultValue" : 0.211764705882353,
                                          "keyframes" : [
                                            {
                                              "endTime" : 399840000,
                                              "time" : 0,
                                              "value" : 0.211764705882353,
                                              "interp" : "eioe",
                                              "duration" : 399840000
                                            },
                                            {
                                              "endTime" : 3504480000,
                                              "time" : 3034080000,
                                              "value" : 0.211764705882353,
                                              "interp" : "eioe",
                                              "duration" : 470400000
                                            }
                                          ]
                                        },
                                        "fill-color-opacity" : 1.0,
                                        "fill-color-red" : {
                                          "type" : "double",
                                          "defaultValue" : 0.172549019607843,
                                          "keyframes" : [
                                            {
                                              "endTime" : 399840000,
                                              "time" : 0,
                                              "value" : 0.172549019607843,
                                              "interp" : "eioe",
                                              "duration" : 399840000
                                            },
                                            {
                                              "endTime" : 3504480000,
                                              "time" : 3034080000,
                                              "value" : 0.172549019607843,
                                              "interp" : "eioe",
                                              "duration" : 470400000
                                            }
                                          ]
                                        },
                                        "height" : {
                                          "type" : "double",
                                          "defaultValue" : 144.077255018348,
                                          "keyframes" : [
                                            {
                                              "endTime" : 399840000,
                                              "time" : 0,
                                              "value" : 144.077255102329,
                                              "interp" : "eioe",
                                              "duration" : 399840000
                                            },
                                            {
                                              "endTime" : 3504480000,
                                              "time" : 3034080000,
                                              "value" : 144.077255018348,
                                              "interp" : "eioe",
                                              "duration" : 470400000
                                            }
                                          ]
                                        },
                                        "stroke-color-blue" : 1.0,
                                        "stroke-color-green" : 1.0,
                                        "stroke-color-opacity" : 1.0,
                                        "stroke-color-red" : 1.0,
                                        "stroke-width" : 0.0,
                                        "width" : {
                                          "type" : "double",
                                          "defaultValue" : 0.999999999999773,
                                          "keyframes" : [
                                            {
                                              "endTime" : 399840000,
                                              "time" : 0,
                                              "value" : 607.452331542969,
                                              "interp" : "eioe",
                                              "duration" : 399840000
                                            },
                                            {
                                              "endTime" : 3504480000,
                                              "time" : 3034080000,
                                              "value" : 0.999999999999773,
                                              "interp" : "eioe",
                                              "duration" : 470400000
                                            }
                                          ]
                                        },
                                        "fill-style" : "solid",
                                        "stroke-style" : "solid"
                                    },
                                    "attributes" : {
                                      "ident" : "",
                                      "autoRotateText" : true
                                    },
                                    "parameters" : {
                                      "translation0" : {
                                        "type" : "double",
                                        "defaultValue" : 0.0,
                                        "keyframes" : [
                                          {
                                            "endTime" : 399840000,
                                            "time" : 0,
                                            "value" : 0.0,
                                            "interp" : "eioe",
                                            "duration" : 399840000
                                          }
                                        ]
                                      },
                                      "translation1" : {
                                        "type" : "double",
                                        "defaultValue" : -48.5128632325269,
                                        "keyframes" : [
                                          {
                                            "endTime" : 399840000,
                                            "time" : 0,
                                            "value" : -48.5128632325269,
                                            "interp" : "eioe",
                                            "duration" : 399840000
                                          },
                                          {
                                            "endTime" : 3504480000,
                                            "time" : 3034080000,
                                            "value" : -48.5128632325269,
                                            "interp" : "eioe",
                                            "duration" : 470400000
                                          }
                                        ]
                                      },
                                      "geometryCrop0" : 0.0,
                                      "geometryCrop1" : 0.0,
                                      "geometryCrop2" : 0.0,
                                      "geometryCrop3" : 0.0
                                    },
                                    "effects" : [

                                    ],
                                    "start" : 0,
                                    "duration" : 2187360000,
                                    "mediaStart" : 0,
                                    "mediaDuration" : 2187360000,
                                    "scalar" : 1,
                                    "metadata" : {
                                      "AppliedThemeId" : "",
                                      "clipSpeedAttribute" : false,
                                      "effectApplied" : "none"
                                    },
                                    "animationTracks" : {
                                      "visual" : [
                                        {
                                          "endTime" : 399840000,
                                          "duration" : 399840000,
                                          "range" : [ 0, 399840000],
                                          "interp" : "eioe"
                                        },
                                        {
                                          "endTime" : 3504480000,
                                          "duration" : 470400000,
                                          "range" : [ 3034080000, 470400000],
                                          "interp" : "eioe"
                                        }
                                      ]
                                    }
                                  }
                                ],
                                  "ident" : "",
                                  "audioMuted" : false,
                                  "videoHidden" : false,
                                  "magnetic" : false,
                                  "matte" : 0,
                                  "solo" : false,
                                  "metadata" : {
                                    "IsLocked" : "False",
                                    "WinTrackHeight" : "56",
                                    "trackHeight" : "48"
                                  }
                              },
                              {
                                "trackIndex" : 1,
                                "medias" : [
                                  {
                                    "id" : 40,
                                    "_type" : "Callout",
                                    "def" : {
                                        "kind" : "remix",
                                        "shape" : "shape-rectangle",
                                        "style" : "urban",
                                        "fill-color-blue" : {
                                          "type" : "double",
                                          "defaultValue" : 0.650980392156863,
                                          "keyframes" : [
                                            {
                                              "endTime" : 399840000,
                                              "time" : 0,
                                              "value" : 0.650980392156863,
                                              "interp" : "eioe",
                                              "duration" : 399840000
                                            },
                                            {
                                              "endTime" : 3504480000,
                                              "time" : 3034080000,
                                              "value" : 0.650980392156863,
                                              "interp" : "eioe",
                                              "duration" : 470400000
                                            }
                                          ]
                                        },
                                        "fill-color-green" : {
                                          "type" : "double",
                                          "defaultValue" : 0.184313725490196,
                                          "keyframes" : [
                                            {
                                              "endTime" : 399840000,
                                              "time" : 0,
                                              "value" : 0.184313725490196,
                                              "interp" : "eioe",
                                              "duration" : 399840000
                                            },
                                            {
                                              "endTime" : 3504480000,
                                              "time" : 3034080000,
                                              "value" : 0.184313725490196,
                                              "interp" : "eioe",
                                              "duration" : 470400000
                                            }
                                          ]
                                        },
                                        "fill-color-opacity" : 1.0,
                                        "fill-color-red" : {
                                          "type" : "double",
                                          "defaultValue" : 0.172549019607843,
                                          "keyframes" : [
                                            {
                                              "endTime" : 399840000,
                                              "time" : 0,
                                              "value" : 0.172549019607843,
                                              "interp" : "eioe",
                                              "duration" : 399840000
                                            },
                                            {
                                              "endTime" : 3504480000,
                                              "time" : 3034080000,
                                              "value" : 0.172549019607843,
                                              "interp" : "eioe",
                                              "duration" : 470400000
                                            }
                                          ]
                                        },
                                        "height" : {
                                          "type" : "double",
                                          "defaultValue" : 26.2267330256883,
                                          "keyframes" : [
                                            {
                                              "endTime" : 399840000,
                                              "time" : 0,
                                              "value" : 26.2267331096697,
                                              "interp" : "eioe",
                                              "duration" : 399840000
                                            },
                                            {
                                              "endTime" : 3504480000,
                                              "time" : 3034080000,
                                              "value" : 26.2267330256883,
                                              "interp" : "eioe",
                                              "duration" : 470400000
                                            }
                                          ]
                                        },
                                        "stroke-color-blue" : 1.0,
                                        "stroke-color-green" : 1.0,
                                        "stroke-color-opacity" : 1.0,
                                        "stroke-color-red" : 1.0,
                                        "stroke-width" : 0.0,
                                        "width" : {
                                          "type" : "double",
                                          "defaultValue" : 1.0,
                                          "keyframes" : [
                                            {
                                              "endTime" : 399840000,
                                              "time" : 0,
                                              "value" : 607.452331542969,
                                              "interp" : "eioe",
                                              "duration" : 399840000
                                            },
                                            {
                                              "endTime" : 3504480000,
                                              "time" : 3034080000,
                                              "value" : 1.0,
                                              "interp" : "eioe",
                                              "duration" : 470400000
                                            }
                                          ]
                                        },
                                        "fill-style" : "gradient",
                                        "stroke-style" : "solid"
                                    },
                                    "attributes" : {
                                      "ident" : "",
                                      "autoRotateText" : true
                                    },
                                    "parameters" : {
                                      "translation0" : {
                                        "type" : "double",
                                        "defaultValue" : 0.0,
                                        "keyframes" : [
                                          {
                                            "endTime" : 399840000,
                                            "time" : 0,
                                            "value" : 0.0,
                                            "interp" : "eioe",
                                            "duration" : 399840000
                                          }
                                        ]
                                      },
                                      "translation1" : {
                                        "type" : "double",
                                        "defaultValue" : -107.438124228857,
                                        "keyframes" : [
                                          {
                                            "endTime" : 399840000,
                                            "time" : 0,
                                            "value" : -107.438124228857,
                                            "interp" : "eioe",
                                            "duration" : 399840000
                                          }
                                        ]
                                      },
                                      "geometryCrop0" : 0.0,
                                      "geometryCrop1" : 0.0,
                                      "geometryCrop2" : 0.0,
                                      "geometryCrop3" : 0.0
                                    },
                                    "effects" : [

                                    ],
                                    "start" : 0,
                                    "duration" : 2187360000,
                                    "mediaStart" : 0,
                                    "mediaDuration" : 2187360000,
                                    "scalar" : 1,
                                    "metadata" : {
                                      "AppliedThemeId" : "",
                                      "clipSpeedAttribute" : false,
                                      "effectApplied" : "none"
                                    },
                                    "animationTracks" : {
                                      "visual" : [
                                        {
                                          "endTime" : 399840000,
                                          "duration" : 399840000,
                                          "range" : [ 0, 399840000],
                                          "interp" : "eioe"
                                        },
                                        {
                                          "endTime" : 3504480000,
                                          "duration" : 470400000,
                                          "range" : [ 3034080000, 470400000],
                                          "interp" : "eioe"
                                        }
                                      ]
                                    }
                                  }
                                ],
                                  "ident" : "",
                                  "audioMuted" : false,
                                  "videoHidden" : false,
                                  "magnetic" : false,
                                  "matte" : 0,
                                  "solo" : false,
                                  "metadata" : {
                                    "IsLocked" : "False",
                                    "WinTrackHeight" : "56",
                                    "trackHeight" : "48"
                                  }
                              }
                            ],
                            "attributes" : {
                              "ident" : "Group 2-2",
                              "widthAttr" : 607.452,
                              "heightAttr" : 241.103,
                              "gain" : 1.0,
                              "mixToMono" : false
                            },
                            "effects" : [

                            ],
                            "start" : 0,
                            "duration" : 2187360000,
                            "mediaStart" : 0.0,
                            "mediaDuration" : 2187360000.0,
                            "scalar" : 1,
                            "metadata" : {
                              "IsGroupExpanded" : "False",
                              "clipSpeedAttribute" : false,
                              "effectApplied" : "none",
                              "isOpen" : false
                            },
                            "animationTracks" : {

                            }
                          }
                        ],
                          "ident" : "",
                          "audioMuted" : false,
                          "videoHidden" : false,
                          "magnetic" : false,
                          "matte" : 0,
                          "solo" : false,
                          "metadata" : {
                            "IsLocked" : "False",
                            "WinTrackHeight" : "56",
                            "trackHeight" : "48"
                          }
                      },
                      {
                        "trackIndex" : 1,
                        "medias" : [
                          {
                            "id" : 41,
                            "_type" : "Group",
                            "parameters" : {
                              "translation0" : 30.4878048779248,
                              "geometryCrop0" : 0.0,
                              "geometryCrop1" : 0.0,
                              "geometryCrop2" : 0.0,
                              "geometryCrop3" : 0.0,
                              "volume" : 1.0
                            },
                            "tracks" : [
                              {
                                "trackIndex" : 0,
                                "medias" : [
                                  {
                                    "id" : 42,
                                    "_type" : "Callout",
                                    "def" : {
                                        "kind" : "remix",
                                        "shape" : "shape-rectangle",
                                        "style" : "urban",
                                        "fill-color-blue" : 1.0,
                                        "fill-color-green" : 1.0,
                                        "fill-color-opacity" : 1.0,
                                        "fill-color-red" : 1.0,
                                        "height" : 180.0,
                                        "stroke-color-blue" : 1.0,
                                        "stroke-color-green" : 1.0,
                                        "stroke-color-opacity" : 1.0,
                                        "stroke-color-red" : 1.0,
                                        "stroke-width" : 0.0,
                                        "width" : 240.0,
                                        "fill-style" : "solid",
                                        "stroke-style" : "solid"
                                    },
                                    "attributes" : {
                                      "ident" : "",
                                      "autoRotateText" : true
                                    },
                                    "parameters" : {
                                      "translation0" : {
                                        "type" : "double",
                                        "defaultValue" : -49.0,
                                        "keyframes" : [
                                          {
                                            "endTime" : 423360000,
                                            "time" : 0,
                                            "value" : -339.0,
                                            "interp" : "eioe",
                                            "duration" : 423360000
                                          },
                                          {
                                            "endTime" : 3504480000,
                                            "time" : 3057600000,
                                            "value" : -49.0,
                                            "interp" : "eioe",
                                            "duration" : 446880000
                                          }
                                        ]
                                      },
                                      "translation1" : {
                                        "type" : "double",
                                        "defaultValue" : 70.5,
                                        "keyframes" : [
                                          {
                                            "endTime" : 423360000,
                                            "time" : 0,
                                            "value" : 70.5,
                                            "interp" : "eioe",
                                            "duration" : 423360000
                                          },
                                          {
                                            "endTime" : 3504480000,
                                            "time" : 3057600000,
                                            "value" : 70.5,
                                            "interp" : "eioe",
                                            "duration" : 446880000
                                          }
                                        ]
                                      },
                                      "rotation2" : {
                                        "type" : "double",
                                        "defaultValue" : 0.785398163397446,
                                        "keyframes" : [
                                          {
                                            "endTime" : 423360000,
                                            "time" : 0,
                                            "value" : 0.785398163397446,
                                            "interp" : "eioe",
                                            "duration" : 423360000
                                          },
                                          {
                                            "endTime" : 3504480000,
                                            "time" : 3057600000,
                                            "value" : 0.785398163397446,
                                            "interp" : "eioe",
                                            "duration" : 446880000
                                          }
                                        ]
                                      },
                                      "geometryCrop0" : 0.0,
                                      "geometryCrop1" : 0.0,
                                      "geometryCrop2" : 0.0,
                                      "geometryCrop3" : 0.0
                                    },
                                    "effects" : [

                                    ],
                                    "start" : 0,
                                    "duration" : 2187360000,
                                    "mediaStart" : 0,
                                    "mediaDuration" : 2187360000,
                                    "scalar" : 1,
                                    "metadata" : {
                                      "AppliedThemeId" : "",
                                      "clipSpeedAttribute" : false,
                                      "effectApplied" : "none"
                                    },
                                    "animationTracks" : {
                                      "visual" : [
                                        {
                                          "endTime" : 423360000,
                                          "duration" : 423360000,
                                          "range" : [ 0, 423360000],
                                          "interp" : "eioe"
                                        },
                                        {
                                          "endTime" : 3504480000,
                                          "duration" : 446880000,
                                          "range" : [ 3057600000, 446880000],
                                          "interp" : "eioe"
                                        }
                                      ]
                                    }
                                  }
                                ],
                                  "ident" : "",
                                  "audioMuted" : false,
                                  "videoHidden" : false,
                                  "magnetic" : false,
                                  "matte" : 0,
                                  "solo" : false,
                                  "metadata" : {
                                    "IsLocked" : "False",
                                    "WinTrackHeight" : "56",
                                    "trackHeight" : "48"
                                  }
                              },
                              {
                                "trackIndex" : 1,
                                "medias" : [
                                  {
                                    "id" : 43,
                                    "_type" : "Callout",
                                    "def" : {
                                        "kind" : "remix",
                                        "shape" : "shape-rectangle",
                                        "style" : "urban",
                                        "fill-color-blue" : 1.0,
                                        "fill-color-green" : 1.0,
                                        "fill-color-opacity" : 1.0,
                                        "fill-color-red" : 1.0,
                                        "height" : 180.0,
                                        "stroke-color-blue" : 1.0,
                                        "stroke-color-green" : 1.0,
                                        "stroke-color-opacity" : 1.0,
                                        "stroke-color-red" : 1.0,
                                        "stroke-width" : 0.0,
                                        "width" : 240.0,
                                        "fill-style" : "solid",
                                        "stroke-style" : "solid"
                                    },
                                    "attributes" : {
                                      "ident" : "",
                                      "autoRotateText" : true
                                    },
                                    "parameters" : {
                                      "translation0" : {
                                        "type" : "double",
                                        "defaultValue" : 59.0,
                                        "keyframes" : [
                                          {
                                            "endTime" : 423360000,
                                            "time" : 0,
                                            "value" : 359.0,
                                            "interp" : "eioe",
                                            "duration" : 423360000
                                          },
                                          {
                                            "endTime" : 3504480000,
                                            "time" : 3057600000,
                                            "value" : 59.0,
                                            "interp" : "eioe",
                                            "duration" : 446880000
                                          }
                                        ]
                                      },
                                      "translation1" : {
                                        "type" : "double",
                                        "defaultValue" : -150.5,
                                        "keyframes" : [
                                          {
                                            "endTime" : 423360000,
                                            "time" : 0,
                                            "value" : -150.5,
                                            "interp" : "eioe",
                                            "duration" : 423360000
                                          },
                                          {
                                            "endTime" : 3504480000,
                                            "time" : 3057600000,
                                            "value" : -150.5,
                                            "interp" : "eioe",
                                            "duration" : 446880000
                                          }
                                        ]
                                      },
                                      "rotation2" : {
                                        "type" : "double",
                                        "defaultValue" : 0.785398163397446,
                                        "keyframes" : [
                                          {
                                            "endTime" : 423360000,
                                            "time" : 0,
                                            "value" : 0.785398163397446,
                                            "interp" : "eioe",
                                            "duration" : 423360000
                                          },
                                          {
                                            "endTime" : 3504480000,
                                            "time" : 3057600000,
                                            "value" : 0.785398163397446,
                                            "interp" : "eioe",
                                            "duration" : 446880000
                                          }
                                        ]
                                      },
                                      "geometryCrop0" : 0.0,
                                      "geometryCrop1" : 0.0,
                                      "geometryCrop2" : 0.0,
                                      "geometryCrop3" : 0.0
                                    },
                                    "effects" : [

                                    ],
                                    "start" : 0,
                                    "duration" : 2187360000,
                                    "mediaStart" : 0,
                                    "mediaDuration" : 2187360000,
                                    "scalar" : 1,
                                    "metadata" : {
                                      "AppliedThemeId" : "",
                                      "clipSpeedAttribute" : false,
                                      "effectApplied" : "none"
                                    },
                                    "animationTracks" : {
                                      "visual" : [
                                        {
                                          "endTime" : 423360000,
                                          "duration" : 423360000,
                                          "range" : [ 0, 423360000],
                                          "interp" : "eioe"
                                        },
                                        {
                                          "endTime" : 3504480000,
                                          "duration" : 446880000,
                                          "range" : [ 3057600000, 446880000],
                                          "interp" : "eioe"
                                        }
                                      ]
                                    }
                                  }
                                ],
                                  "ident" : "",
                                  "audioMuted" : false,
                                  "videoHidden" : false,
                                  "magnetic" : false,
                                  "matte" : 0,
                                  "solo" : false,
                                  "metadata" : {
                                    "IsLocked" : "False",
                                    "WinTrackHeight" : "56",
                                    "trackHeight" : "48"
                                  }
                              }
                            ],
                            "attributes" : {
                              "ident" : "Group 2",
                              "widthAttr" : 1014.98,
                              "heightAttr" : 597.985,
                              "gain" : 1.0,
                              "mixToMono" : false
                            },
                            "effects" : [

                            ],
                            "start" : 0,
                            "duration" : 2187360000,
                            "mediaStart" : 0.0,
                            "mediaDuration" : 2187360000.0,
                            "scalar" : 1,
                            "metadata" : {
                              "IsGroupExpanded" : "False",
                              "clipSpeedAttribute" : false,
                              "effectApplied" : "none",
                              "isOpen" : false
                            },
                            "animationTracks" : {

                            }
                          }
                        ],
                          "ident" : "",
                          "audioMuted" : false,
                          "videoHidden" : false,
                          "magnetic" : false,
                          "matte" : 2,
                          "solo" : false,
                          "metadata" : {
                            "IsLocked" : "False",
                            "WinTrackHeight" : "56",
                            "trackHeight" : "48"
                          }
                      },
                      {
                        "trackIndex" : 2,
                        "medias" : [
                          {
                            "id" : 44,
                            "_type" : "Callout",
                            "def" : {
                                "kind" : "remix",
                                "shape" : "text",
                                "style" : "urban",
                                "enable-ligatures" : 1.0,
                                "height" : 238.762499957998,
                                "line-spacing" : 0.0,
                                "width" : 536.563582999083,
                                "word-wrap" : 1.0,
                                "horizontal-alignment" : "left",
                                "resize-behavior" : "resizeText",
                                "text" : "About the Project",
                                "vertical-alignment" : "center",
                                "font" : {
                                  "color-blue" : 1.0,
                                  "color-green" : 1.0,
                                  "color-red" : 1.0,
                                  "size" : 70.0,
                                  "tracking" : 0.0,
                                  "name" : "Dosis",
                                  "weight" : "Semi Bold"
                                },
                                "textAttributes" : {
                                  "type" : "textAttributeList",
                                  "keyframes" : [
                                    {
                                      "endTime" : 0,
                                      "time" : 0,
                                      "value" : [{"name":"strikethrough","rangeEnd":17,"rangeStart":0,"value":0,"valueType":"int"},{"name":"fontName","rangeEnd":17,"rangeStart":0,"value":"Oswald","valueType":"string"},{"name":"fgColor","rangeEnd":17,"rangeStart":0,"value":"(255,255,255,255)","valueType":"color"},{"name":"fontWeight","rangeEnd":17,"rangeStart":0,"value":400,"valueType":"int"},{"name":"fontItalic","rangeEnd":17,"rangeStart":0,"value":0,"valueType":"int"},{"name":"underline","rangeEnd":17,"rangeStart":0,"value":0,"valueType":"int"},{"name":"kerning","rangeEnd":17,"rangeStart":0,"value":0.0,"valueType":"double"},{"name":"fontSize","rangeEnd":17,"rangeStart":0,"value":70.0,"valueType":"double"}],
                                      "duration" : 0
                                    }
                                  ]
                                }
                            },
                            "attributes" : {
                              "ident" : "",
                              "autoRotateText" : true
                            },
                            "parameters" : {
                              "translation0" : 24.8574217978768,
                              "translation1" : -30.612442639549,
                              "geometryCrop0" : 0.0,
                              "geometryCrop1" : 0.0,
                              "geometryCrop2" : 0.0,
                              "geometryCrop3" : 0.0
                            },
                            "effects" : [
                                {
                                  "_type" : "GenericBehaviorEffect",
                                  "effectName" : "scale",
                                  "bypassed" : false,
                                  "start" : -1058400000,
                                  "duration" : 2916480000                                ,
                                  "in" : {
                                    "attributes" : {
                                      "name" : "grow",
                                      "type" : 1,
                                      "characterOrder" : 6,
                                      "offsetBetweenCharacters" : 23520000,
                                      "suggestedDurationPerCharacter" : 423360000,
                                      "overlapProportion" : "3/4",
                                      "movement" : 30,
                                      "springDamping" : 5.0,
                                      "springStiffness" : 50.0,
                                      "bounceBounciness" : 0.45
                                    }
                                  
                                  },
                                  "center" : {
                                    "attributes" : {
                                      "name" : "none",
                                      "type" : 1,
                                      "characterOrder" : 6,
                                      "offsetBetweenCharacters" : 0,
                                      "secondsPerLoop" : 1,
                                      "numberOfLoops" : -1,
                                      "delayBetweenLoops" : 0
                                    }
                                  
                                  },
                                  "out" : {
                                    "attributes" : {
                                      "name" : "shrink",
                                      "type" : 1,
                                      "characterOrder" : 6,
                                      "offsetBetweenCharacters" : 23520000,
                                      "suggestedDurationPerCharacter" : 341040000,
                                      "overlapProportion" : "1/10",
                                      "movement" : 11,
                                      "springDamping" : 5.0,
                                      "springStiffness" : 50.0,
                                      "bounceBounciness" : 0.45
                                    }
                                  
                                  }
                                }
                            ],
                            "start" : 305760000,
                            "duration" : 2916480000,
                            "mediaStart" : -1058400000,
                            "mediaDuration" : 2916480000,
                            "scalar" : 1,
                            "metadata" : {
                              "AppliedThemeId" : "",
                              "clipSpeedAttribute" : false,
                              "effectApplied" : "scale"
                            },
                            "animationTracks" : {

                            }
                          }
                        ],
                          "ident" : "",
                          "audioMuted" : false,
                          "videoHidden" : false,
                          "magnetic" : false,
                          "matte" : 0,
                          "solo" : false,
                          "metadata" : {
                            "IsLocked" : "False",
                            "WinTrackHeight" : "56",
                            "trackHeight" : "48"
                          }
                      },
                      {
                        "trackIndex" : 3,
                        "medias" : [
                        ],
                          "ident" : "",
                          "audioMuted" : false,
                          "videoHidden" : false,
                          "magnetic" : false,
                          "matte" : 0,
                          "solo" : false,
                          "metadata" : {
                            "IsLocked" : "False",
                            "WinTrackHeight" : "56",
                            "trackHeight" : "48"
                          }
                      }
                    ],
                    "attributes" : {
                      "ident" : "Tech Topic",
                      "widthAttr" : 1920.0,
                      "heightAttr" : 1080.0,
                      "gain" : 1.0,
                      "mixToMono" : false,
                      "assetProperties" : [
                        {
                          "type" : 0,
                          "name" : "Feature Text",
                          "objects" : [ 44 ],
                          "themeMappings" :  {
                            "font-color" : "foreground-1",
                            "font-family" : "font-1"
                          }
                        },
                        {
                          "type" : 1,
                          "name" : "BACKGROUND",
                          "objects" : [ 39 ],
                          "themeMappings" :  {
                            "fill" : "background-1"
                          }
                        },
                        {
                          "type" : 1,
                          "name" : "ACCENT",
                          "objects" : [ 40 ],
                          "themeMappings" :  {
                            "fill" : "accent-1"
                          }
                        }
                      ]
                    },
                    "effects" : [

                    ],
                    "start" : 3457440000,
                    "duration" : 2187360000,
                    "mediaStart" : 0.0,
                    "mediaDuration" : 2187360000.0,
                    "scalar" : 1,
                    "metadata" : {
                      "AppliedThemeId" : "",
                      "IsGroupExpanded" : "False",
                      "clipSpeedAttribute" : false,
                      "effectApplied" : "none",
                      "isOpen" : false
                    },
                    "animationTracks" : {

                    }
                  },
                  {
                    "id" : 45,
                    "_type" : "StitchedMedia",
                    "minMediaStart" : 0,
                    "attributes" : {
                      "ident" : "screenrecording",
                      "gain" : 1.0,
                      "mixToMono" : false,
                      "loudnessNormalization" : true,
                      "sourceFileOffset" : 0
                    },
                    "parameters" : {
                      "geometryCrop0" : 0.0,
                      "geometryCrop1" : 0.0,
                      "geometryCrop2" : 0.0,
                      "geometryCrop3" : 0.0,
                      "volume" : 1.0,
                      "smoothCursorAcrossEditDuration" : 0
                    },
                    "medias" : [
                        {
                          "id" : 46,
                          "_type" : "UnifiedMedia",
                          "video" : 
                              {
                                "id" : 47,
                                "_type" : "VMFile",
                                "src" : 5,
                                "trackNumber" : 0,
                                "attributes" : {
                                  "ident" : "screenrecording"
                                },
                                "parameters" : {
                                  "geometryCrop0" : 0.0,
                                  "geometryCrop1" : 0.0,
                                  "geometryCrop2" : 0.0,
                                  "geometryCrop3" : 0.0
                                },
                                "effects" : [

                                ],
                                "start" : 0,
                                "duration" : 4751040000,
                                "mediaStart" : 0,
                                "mediaDuration" : 4751040000,
                                "scalar" : 1,
                                "animationTracks" : {

                                }
                              },
                          "audio" : 
                              {
                                "id" : 48,
                                "_type" : "AMFile",
                                "src" : 5,
                                "trackNumber" : 1,
                                "attributes" : {
                                  "ident" : "",
                                  "gain" : 1.0,
                                  "mixToMono" : false,
                                  "loudnessNormalization" : true,
                                  "sourceFileOffset" : 0
                                },
                                  "channelNumber" : "0,1",
                                "effects" : [

                                ],
                                "start" : 0,
                                "duration" : 4751040000,
                                "mediaStart" : 0,
                                "mediaDuration" : 4751040000,
                                "scalar" : 1,
                                "animationTracks" : {

                                }
                              }
,
                          "start" : 0,
                          "duration" : 4751040000,
                          "mediaStart" : 0,
                          "mediaDuration" : 4751040000,
                          "scalar" : 1,
                          "metadata" : {
                            "clipSpeedAttribute" : false
                          }
                        },
                        {
                          "id" : 49,
                          "_type" : "UnifiedMedia",
                          "video" : 
                              {
                                "id" : 50,
                                "_type" : "VMFile",
                                "src" : 5,
                                "trackNumber" : 0,
                                "attributes" : {
                                  "ident" : "screenrecording"
                                },
                                "parameters" : {
                                  "geometryCrop0" : 0.0,
                                  "geometryCrop1" : 0.0,
                                  "geometryCrop2" : 0.0,
                                  "geometryCrop3" : 0.0
                                },
                                "effects" : [

                                ],
                                "start" : 4751040000,
                                "duration" : 117976320000,
                                "mediaStart" : 5244960000,
                                "mediaDuration" : 117976320000,
                                "scalar" : 1,
                                "animationTracks" : {

                                }
                              },
                          "audio" : 
                              {
                                "id" : 51,
                                "_type" : "AMFile",
                                "src" : 5,
                                "trackNumber" : 1,
                                "attributes" : {
                                  "ident" : "",
                                  "gain" : 1.0,
                                  "mixToMono" : false,
                                  "loudnessNormalization" : true,
                                  "sourceFileOffset" : 0
                                },
                                  "channelNumber" : "0,1",
                                "effects" : [

                                ],
                                "start" : 4751040000,
                                "duration" : 117976320000,
                                "mediaStart" : 5244960000,
                                "mediaDuration" : 117976320000,
                                "scalar" : 1,
                                "animationTracks" : {

                                }
                              }
,
                          "start" : 4751040000,
                          "duration" : 117976320000,
                          "mediaStart" : 5244960000,
                          "mediaDuration" : 117976320000,
                          "scalar" : 1,
                          "metadata" : {
                            "clipSpeedAttribute" : false
                          }
                        }
                    ],
                    "effects" : [

                    ],
                    "start" : 5644800000,
                    "duration" : 5762400000,
                    "mediaStart" : 0,
                    "mediaDuration" : 5762400000,
                    "scalar" : 1,
                    "metadata" : {
                      "clipSpeedAttribute" : false
                    },
                    "animationTracks" : {

                    }
                  },
                  {
                    "id" : 52,
                    "_type" : "Group",
                    "parameters" : {
                      "scale0" : 1.42052974098668,
                      "scale1" : 1.42052974098668,
                      "geometryCrop0" : 0.0,
                      "geometryCrop1" : 0.0,
                      "geometryCrop2" : 0.0,
                      "geometryCrop3" : 0.0,
                      "volume" : 1.0
                    },
                    "tracks" : [
                      {
                        "trackIndex" : 0,
                        "medias" : [
                          {
                            "id" : 53,
                            "_type" : "Group",
                            "parameters" : {
                              "translation0" : 25.8897257495158,
                              "translation1" : 0.557798165143993,
                              "geometryCrop0" : 0.0,
                              "geometryCrop1" : 0.0,
                              "geometryCrop2" : 0.0,
                              "geometryCrop3" : 0.0,
                              "volume" : 1.0
                            },
                            "tracks" : [
                              {
                                "trackIndex" : 0,
                                "medias" : [
                                  {
                                    "id" : 54,
                                    "_type" : "Callout",
                                    "def" : {
                                        "kind" : "remix",
                                        "shape" : "shape-rectangle",
                                        "style" : "urban",
                                        "fill-color-blue" : {
                                          "type" : "double",
                                          "defaultValue" : 0.286274509803922,
                                          "keyframes" : [
                                            {
                                              "endTime" : 399840000,
                                              "time" : 0,
                                              "value" : 0.286274509803922,
                                              "interp" : "eioe",
                                              "duration" : 399840000
                                            },
                                            {
                                              "endTime" : 3504480000,
                                              "time" : 3034080000,
                                              "value" : 0.286274509803922,
                                              "interp" : "eioe",
                                              "duration" : 470400000
                                            }
                                          ]
                                        },
                                        "fill-color-green" : {
                                          "type" : "double",
                                          "defaultValue" : 0.211764705882353,
                                          "keyframes" : [
                                            {
                                              "endTime" : 399840000,
                                              "time" : 0,
                                              "value" : 0.211764705882353,
                                              "interp" : "eioe",
                                              "duration" : 399840000
                                            },
                                            {
                                              "endTime" : 3504480000,
                                              "time" : 3034080000,
                                              "value" : 0.211764705882353,
                                              "interp" : "eioe",
                                              "duration" : 470400000
                                            }
                                          ]
                                        },
                                        "fill-color-opacity" : 1.0,
                                        "fill-color-red" : {
                                          "type" : "double",
                                          "defaultValue" : 0.172549019607843,
                                          "keyframes" : [
                                            {
                                              "endTime" : 399840000,
                                              "time" : 0,
                                              "value" : 0.172549019607843,
                                              "interp" : "eioe",
                                              "duration" : 399840000
                                            },
                                            {
                                              "endTime" : 3504480000,
                                              "time" : 3034080000,
                                              "value" : 0.172549019607843,
                                              "interp" : "eioe",
                                              "duration" : 470400000
                                            }
                                          ]
                                        },
                                        "height" : {
                                          "type" : "double",
                                          "defaultValue" : 144.077255018348,
                                          "keyframes" : [
                                            {
                                              "endTime" : 399840000,
                                              "time" : 0,
                                              "value" : 144.077255102329,
                                              "interp" : "eioe",
                                              "duration" : 399840000
                                            },
                                            {
                                              "endTime" : 3504480000,
                                              "time" : 3034080000,
                                              "value" : 144.077255018348,
                                              "interp" : "eioe",
                                              "duration" : 470400000
                                            }
                                          ]
                                        },
                                        "stroke-color-blue" : 1.0,
                                        "stroke-color-green" : 1.0,
                                        "stroke-color-opacity" : 1.0,
                                        "stroke-color-red" : 1.0,
                                        "stroke-width" : 0.0,
                                        "width" : {
                                          "type" : "double",
                                          "defaultValue" : 0.999999999999773,
                                          "keyframes" : [
                                            {
                                              "endTime" : 399840000,
                                              "time" : 0,
                                              "value" : 607.452331542969,
                                              "interp" : "eioe",
                                              "duration" : 399840000
                                            },
                                            {
                                              "endTime" : 3504480000,
                                              "time" : 3034080000,
                                              "value" : 0.999999999999773,
                                              "interp" : "eioe",
                                              "duration" : 470400000
                                            }
                                          ]
                                        },
                                        "fill-style" : "solid",
                                        "stroke-style" : "solid"
                                    },
                                    "attributes" : {
                                      "ident" : "",
                                      "autoRotateText" : true
                                    },
                                    "parameters" : {
                                      "translation0" : {
                                        "type" : "double",
                                        "defaultValue" : 0.0,
                                        "keyframes" : [
                                          {
                                            "endTime" : 399840000,
                                            "time" : 0,
                                            "value" : 0.0,
                                            "interp" : "eioe",
                                            "duration" : 399840000
                                          }
                                        ]
                                      },
                                      "translation1" : {
                                        "type" : "double",
                                        "defaultValue" : -48.5128632325269,
                                        "keyframes" : [
                                          {
                                            "endTime" : 399840000,
                                            "time" : 0,
                                            "value" : -48.5128632325269,
                                            "interp" : "eioe",
                                            "duration" : 399840000
                                          },
                                          {
                                            "endTime" : 3504480000,
                                            "time" : 3034080000,
                                            "value" : -48.5128632325269,
                                            "interp" : "eioe",
                                            "duration" : 470400000
                                          }
                                        ]
                                      },
                                      "geometryCrop0" : 0.0,
                                      "geometryCrop1" : 0.0,
                                      "geometryCrop2" : 0.0,
                                      "geometryCrop3" : 0.0
                                    },
                                    "effects" : [

                                    ],
                                    "start" : -23520000,
                                    "duration" : 2210880000,
                                    "mediaStart" : -23520000,
                                    "mediaDuration" : 2210880000,
                                    "scalar" : 1,
                                    "metadata" : {
                                      "AppliedThemeId" : "",
                                      "clipSpeedAttribute" : false,
                                      "effectApplied" : "none"
                                    },
                                    "animationTracks" : {
                                      "visual" : [
                                        {
                                          "endTime" : 399840000,
                                          "duration" : 399840000,
                                          "range" : [ 0, 399840000],
                                          "interp" : "eioe"
                                        },
                                        {
                                          "endTime" : 3504480000,
                                          "duration" : 470400000,
                                          "range" : [ 3034080000, 470400000],
                                          "interp" : "eioe"
                                        }
                                      ]
                                    }
                                  }
                                ],
                                  "ident" : "",
                                  "audioMuted" : false,
                                  "videoHidden" : false,
                                  "magnetic" : false,
                                  "matte" : 0,
                                  "solo" : false,
                                  "metadata" : {
                                    "IsLocked" : "False",
                                    "WinTrackHeight" : "56",
                                    "trackHeight" : "48"
                                  }
                              },
                              {
                                "trackIndex" : 1,
                                "medias" : [
                                  {
                                    "id" : 55,
                                    "_type" : "Callout",
                                    "def" : {
                                        "kind" : "remix",
                                        "shape" : "shape-rectangle",
                                        "style" : "urban",
                                        "fill-color-blue" : {
                                          "type" : "double",
                                          "defaultValue" : 0.650980392156863,
                                          "keyframes" : [
                                            {
                                              "endTime" : 399840000,
                                              "time" : 0,
                                              "value" : 0.650980392156863,
                                              "interp" : "eioe",
                                              "duration" : 399840000
                                            },
                                            {
                                              "endTime" : 3504480000,
                                              "time" : 3034080000,
                                              "value" : 0.650980392156863,
                                              "interp" : "eioe",
                                              "duration" : 470400000
                                            }
                                          ]
                                        },
                                        "fill-color-green" : {
                                          "type" : "double",
                                          "defaultValue" : 0.184313725490196,
                                          "keyframes" : [
                                            {
                                              "endTime" : 399840000,
                                              "time" : 0,
                                              "value" : 0.184313725490196,
                                              "interp" : "eioe",
                                              "duration" : 399840000
                                            },
                                            {
                                              "endTime" : 3504480000,
                                              "time" : 3034080000,
                                              "value" : 0.184313725490196,
                                              "interp" : "eioe",
                                              "duration" : 470400000
                                            }
                                          ]
                                        },
                                        "fill-color-opacity" : 1.0,
                                        "fill-color-red" : {
                                          "type" : "double",
                                          "defaultValue" : 0.172549019607843,
                                          "keyframes" : [
                                            {
                                              "endTime" : 399840000,
                                              "time" : 0,
                                              "value" : 0.172549019607843,
                                              "interp" : "eioe",
                                              "duration" : 399840000
                                            },
                                            {
                                              "endTime" : 3504480000,
                                              "time" : 3034080000,
                                              "value" : 0.172549019607843,
                                              "interp" : "eioe",
                                              "duration" : 470400000
                                            }
                                          ]
                                        },
                                        "height" : {
                                          "type" : "double",
                                          "defaultValue" : 26.2267330256883,
                                          "keyframes" : [
                                            {
                                              "endTime" : 399840000,
                                              "time" : 0,
                                              "value" : 26.2267331096697,
                                              "interp" : "eioe",
                                              "duration" : 399840000
                                            },
                                            {
                                              "endTime" : 3504480000,
                                              "time" : 3034080000,
                                              "value" : 26.2267330256883,
                                              "interp" : "eioe",
                                              "duration" : 470400000
                                            }
                                          ]
                                        },
                                        "stroke-color-blue" : 1.0,
                                        "stroke-color-green" : 1.0,
                                        "stroke-color-opacity" : 1.0,
                                        "stroke-color-red" : 1.0,
                                        "stroke-width" : 0.0,
                                        "width" : {
                                          "type" : "double",
                                          "defaultValue" : 1.0,
                                          "keyframes" : [
                                            {
                                              "endTime" : 399840000,
                                              "time" : 0,
                                              "value" : 607.452331542969,
                                              "interp" : "eioe",
                                              "duration" : 399840000
                                            },
                                            {
                                              "endTime" : 3504480000,
                                              "time" : 3034080000,
                                              "value" : 1.0,
                                              "interp" : "eioe",
                                              "duration" : 470400000
                                            }
                                          ]
                                        },
                                        "fill-style" : "gradient",
                                        "stroke-style" : "solid"
                                    },
                                    "attributes" : {
                                      "ident" : "",
                                      "autoRotateText" : true
                                    },
                                    "parameters" : {
                                      "translation0" : {
                                        "type" : "double",
                                        "defaultValue" : 0.0,
                                        "keyframes" : [
                                          {
                                            "endTime" : 399840000,
                                            "time" : 0,
                                            "value" : 0.0,
                                            "interp" : "eioe",
                                            "duration" : 399840000
                                          }
                                        ]
                                      },
                                      "translation1" : {
                                        "type" : "double",
                                        "defaultValue" : -107.438124228857,
                                        "keyframes" : [
                                          {
                                            "endTime" : 399840000,
                                            "time" : 0,
                                            "value" : -107.438124228857,
                                            "interp" : "eioe",
                                            "duration" : 399840000
                                          }
                                        ]
                                      },
                                      "geometryCrop0" : 0.0,
                                      "geometryCrop1" : 0.0,
                                      "geometryCrop2" : 0.0,
                                      "geometryCrop3" : 0.0
                                    },
                                    "effects" : [

                                    ],
                                    "start" : -23520000,
                                    "duration" : 2210880000,
                                    "mediaStart" : -23520000,
                                    "mediaDuration" : 2210880000,
                                    "scalar" : 1,
                                    "metadata" : {
                                      "AppliedThemeId" : "",
                                      "clipSpeedAttribute" : false,
                                      "effectApplied" : "none"
                                    },
                                    "animationTracks" : {
                                      "visual" : [
                                        {
                                          "endTime" : 399840000,
                                          "duration" : 399840000,
                                          "range" : [ 0, 399840000],
                                          "interp" : "eioe"
                                        },
                                        {
                                          "endTime" : 3504480000,
                                          "duration" : 470400000,
                                          "range" : [ 3034080000, 470400000],
                                          "interp" : "eioe"
                                        }
                                      ]
                                    }
                                  }
                                ],
                                  "ident" : "",
                                  "audioMuted" : false,
                                  "videoHidden" : false,
                                  "magnetic" : false,
                                  "matte" : 0,
                                  "solo" : false,
                                  "metadata" : {
                                    "IsLocked" : "False",
                                    "WinTrackHeight" : "56",
                                    "trackHeight" : "48"
                                  }
                              }
                            ],
                            "attributes" : {
                              "ident" : "Group 2-2",
                              "widthAttr" : 607.452,
                              "heightAttr" : 241.103,
                              "gain" : 1.0,
                              "mixToMono" : false
                            },
                            "effects" : [

                            ],
                            "start" : -23520000,
                            "duration" : 2210880000,
                            "mediaStart" : -23520000.0,
                            "mediaDuration" : 2210880000.0,
                            "scalar" : 1,
                            "metadata" : {
                              "IsGroupExpanded" : "False",
                              "clipSpeedAttribute" : false,
                              "effectApplied" : "none",
                              "isOpen" : false
                            },
                            "animationTracks" : {

                            }
                          }
                        ],
                          "ident" : "",
                          "audioMuted" : false,
                          "videoHidden" : false,
                          "magnetic" : false,
                          "matte" : 0,
                          "solo" : false,
                          "metadata" : {
                            "IsLocked" : "False",
                            "WinTrackHeight" : "56",
                            "trackHeight" : "48"
                          }
                      },
                      {
                        "trackIndex" : 1,
                        "medias" : [
                          {
                            "id" : 56,
                            "_type" : "Group",
                            "parameters" : {
                              "translation0" : 30.4878048779248,
                              "geometryCrop0" : 0.0,
                              "geometryCrop1" : 0.0,
                              "geometryCrop2" : 0.0,
                              "geometryCrop3" : 0.0,
                              "volume" : 1.0
                            },
                            "tracks" : [
                              {
                                "trackIndex" : 0,
                                "medias" : [
                                  {
                                    "id" : 57,
                                    "_type" : "Callout",
                                    "def" : {
                                        "kind" : "remix",
                                        "shape" : "shape-rectangle",
                                        "style" : "urban",
                                        "fill-color-blue" : 1.0,
                                        "fill-color-green" : 1.0,
                                        "fill-color-opacity" : 1.0,
                                        "fill-color-red" : 1.0,
                                        "height" : 180.0,
                                        "stroke-color-blue" : 1.0,
                                        "stroke-color-green" : 1.0,
                                        "stroke-color-opacity" : 1.0,
                                        "stroke-color-red" : 1.0,
                                        "stroke-width" : 0.0,
                                        "width" : 240.0,
                                        "fill-style" : "solid",
                                        "stroke-style" : "solid"
                                    },
                                    "attributes" : {
                                      "ident" : "",
                                      "autoRotateText" : true
                                    },
                                    "parameters" : {
                                      "translation0" : {
                                        "type" : "double",
                                        "defaultValue" : -49.0,
                                        "keyframes" : [
                                          {
                                            "endTime" : 423360000,
                                            "time" : 0,
                                            "value" : -339.0,
                                            "interp" : "eioe",
                                            "duration" : 423360000
                                          },
                                          {
                                            "endTime" : 3504480000,
                                            "time" : 3057600000,
                                            "value" : -49.0,
                                            "interp" : "eioe",
                                            "duration" : 446880000
                                          }
                                        ]
                                      },
                                      "translation1" : {
                                        "type" : "double",
                                        "defaultValue" : 70.5,
                                        "keyframes" : [
                                          {
                                            "endTime" : 423360000,
                                            "time" : 0,
                                            "value" : 70.5,
                                            "interp" : "eioe",
                                            "duration" : 423360000
                                          },
                                          {
                                            "endTime" : 3504480000,
                                            "time" : 3057600000,
                                            "value" : 70.5,
                                            "interp" : "eioe",
                                            "duration" : 446880000
                                          }
                                        ]
                                      },
                                      "rotation2" : {
                                        "type" : "double",
                                        "defaultValue" : 0.785398163397446,
                                        "keyframes" : [
                                          {
                                            "endTime" : 423360000,
                                            "time" : 0,
                                            "value" : 0.785398163397446,
                                            "interp" : "eioe",
                                            "duration" : 423360000
                                          },
                                          {
                                            "endTime" : 3504480000,
                                            "time" : 3057600000,
                                            "value" : 0.785398163397446,
                                            "interp" : "eioe",
                                            "duration" : 446880000
                                          }
                                        ]
                                      },
                                      "geometryCrop0" : 0.0,
                                      "geometryCrop1" : 0.0,
                                      "geometryCrop2" : 0.0,
                                      "geometryCrop3" : 0.0
                                    },
                                    "effects" : [

                                    ],
                                    "start" : -23520000,
                                    "duration" : 2210880000,
                                    "mediaStart" : -23520000,
                                    "mediaDuration" : 2210880000,
                                    "scalar" : 1,
                                    "metadata" : {
                                      "AppliedThemeId" : "",
                                      "clipSpeedAttribute" : false,
                                      "effectApplied" : "none"
                                    },
                                    "animationTracks" : {
                                      "visual" : [
                                        {
                                          "endTime" : 423360000,
                                          "duration" : 423360000,
                                          "range" : [ 0, 423360000],
                                          "interp" : "eioe"
                                        },
                                        {
                                          "endTime" : 3504480000,
                                          "duration" : 446880000,
                                          "range" : [ 3057600000, 446880000],
                                          "interp" : "eioe"
                                        }
                                      ]
                                    }
                                  }
                                ],
                                  "ident" : "",
                                  "audioMuted" : false,
                                  "videoHidden" : false,
                                  "magnetic" : false,
                                  "matte" : 0,
                                  "solo" : false,
                                  "metadata" : {
                                    "IsLocked" : "False",
                                    "WinTrackHeight" : "56",
                                    "trackHeight" : "48"
                                  }
                              },
                              {
                                "trackIndex" : 1,
                                "medias" : [
                                  {
                                    "id" : 58,
                                    "_type" : "Callout",
                                    "def" : {
                                        "kind" : "remix",
                                        "shape" : "shape-rectangle",
                                        "style" : "urban",
                                        "fill-color-blue" : 1.0,
                                        "fill-color-green" : 1.0,
                                        "fill-color-opacity" : 1.0,
                                        "fill-color-red" : 1.0,
                                        "height" : 180.0,
                                        "stroke-color-blue" : 1.0,
                                        "stroke-color-green" : 1.0,
                                        "stroke-color-opacity" : 1.0,
                                        "stroke-color-red" : 1.0,
                                        "stroke-width" : 0.0,
                                        "width" : 240.0,
                                        "fill-style" : "solid",
                                        "stroke-style" : "solid"
                                    },
                                    "attributes" : {
                                      "ident" : "",
                                      "autoRotateText" : true
                                    },
                                    "parameters" : {
                                      "translation0" : {
                                        "type" : "double",
                                        "defaultValue" : 59.0,
                                        "keyframes" : [
                                          {
                                            "endTime" : 423360000,
                                            "time" : 0,
                                            "value" : 359.0,
                                            "interp" : "eioe",
                                            "duration" : 423360000
                                          },
                                          {
                                            "endTime" : 3504480000,
                                            "time" : 3057600000,
                                            "value" : 59.0,
                                            "interp" : "eioe",
                                            "duration" : 446880000
                                          }
                                        ]
                                      },
                                      "translation1" : {
                                        "type" : "double",
                                        "defaultValue" : -150.5,
                                        "keyframes" : [
                                          {
                                            "endTime" : 423360000,
                                            "time" : 0,
                                            "value" : -150.5,
                                            "interp" : "eioe",
                                            "duration" : 423360000
                                          },
                                          {
                                            "endTime" : 3504480000,
                                            "time" : 3057600000,
                                            "value" : -150.5,
                                            "interp" : "eioe",
                                            "duration" : 446880000
                                          }
                                        ]
                                      },
                                      "rotation2" : {
                                        "type" : "double",
                                        "defaultValue" : 0.785398163397446,
                                        "keyframes" : [
                                          {
                                            "endTime" : 423360000,
                                            "time" : 0,
                                            "value" : 0.785398163397446,
                                            "interp" : "eioe",
                                            "duration" : 423360000
                                          },
                                          {
                                            "endTime" : 3504480000,
                                            "time" : 3057600000,
                                            "value" : 0.785398163397446,
                                            "interp" : "eioe",
                                            "duration" : 446880000
                                          }
                                        ]
                                      },
                                      "geometryCrop0" : 0.0,
                                      "geometryCrop1" : 0.0,
                                      "geometryCrop2" : 0.0,
                                      "geometryCrop3" : 0.0
                                    },
                                    "effects" : [

                                    ],
                                    "start" : -23520000,
                                    "duration" : 2210880000,
                                    "mediaStart" : -23520000,
                                    "mediaDuration" : 2210880000,
                                    "scalar" : 1,
                                    "metadata" : {
                                      "AppliedThemeId" : "",
                                      "clipSpeedAttribute" : false,
                                      "effectApplied" : "none"
                                    },
                                    "animationTracks" : {
                                      "visual" : [
                                        {
                                          "endTime" : 423360000,
                                          "duration" : 423360000,
                                          "range" : [ 0, 423360000],
                                          "interp" : "eioe"
                                        },
                                        {
                                          "endTime" : 3504480000,
                                          "duration" : 446880000,
                                          "range" : [ 3057600000, 446880000],
                                          "interp" : "eioe"
                                        }
                                      ]
                                    }
                                  }
                                ],
                                  "ident" : "",
                                  "audioMuted" : false,
                                  "videoHidden" : false,
                                  "magnetic" : false,
                                  "matte" : 0,
                                  "solo" : false,
                                  "metadata" : {
                                    "IsLocked" : "False",
                                    "WinTrackHeight" : "56",
                                    "trackHeight" : "48"
                                  }
                              }
                            ],
                            "attributes" : {
                              "ident" : "Group 2",
                              "widthAttr" : 1014.98,
                              "heightAttr" : 597.985,
                              "gain" : 1.0,
                              "mixToMono" : false
                            },
                            "effects" : [

                            ],
                            "start" : -23520000,
                            "duration" : 2210880000,
                            "mediaStart" : -23520000.0,
                            "mediaDuration" : 2210880000.0,
                            "scalar" : 1,
                            "metadata" : {
                              "IsGroupExpanded" : "False",
                              "clipSpeedAttribute" : false,
                              "effectApplied" : "none",
                              "isOpen" : false
                            },
                            "animationTracks" : {

                            }
                          }
                        ],
                          "ident" : "",
                          "audioMuted" : false,
                          "videoHidden" : false,
                          "magnetic" : false,
                          "matte" : 2,
                          "solo" : false,
                          "metadata" : {
                            "IsLocked" : "False",
                            "WinTrackHeight" : "56",
                            "trackHeight" : "48"
                          }
                      },
                      {
                        "trackIndex" : 2,
                        "medias" : [
                          {
                            "id" : 59,
                            "_type" : "Callout",
                            "def" : {
                                "kind" : "remix",
                                "shape" : "text",
                                "style" : "urban",
                                "enable-ligatures" : 1.0,
                                "height" : 238.762499957998,
                                "line-spacing" : 0.0,
                                "width" : 536.563582999083,
                                "word-wrap" : 1.0,
                                "horizontal-alignment" : "left",
                                "resize-behavior" : "resizeText",
                                "text" : "Running the Project",
                                "vertical-alignment" : "center",
                                "font" : {
                                  "color-blue" : 1.0,
                                  "color-green" : 1.0,
                                  "color-red" : 1.0,
                                  "size" : 70.0,
                                  "tracking" : 0.0,
                                  "name" : "Dosis",
                                  "weight" : "Semi Bold"
                                },
                                "textAttributes" : {
                                  "type" : "textAttributeList",
                                  "keyframes" : [
                                    {
                                      "endTime" : 0,
                                      "time" : 0,
                                      "value" : [{"name":"strikethrough","rangeEnd":19,"rangeStart":0,"value":0,"valueType":"int"},{"name":"fontName","rangeEnd":19,"rangeStart":0,"value":"Oswald","valueType":"string"},{"name":"fgColor","rangeEnd":19,"rangeStart":0,"value":"(255,255,255,255)","valueType":"color"},{"name":"fontWeight","rangeEnd":19,"rangeStart":0,"value":400,"valueType":"int"},{"name":"fontItalic","rangeEnd":19,"rangeStart":0,"value":0,"valueType":"int"},{"name":"underline","rangeEnd":19,"rangeStart":0,"value":0,"valueType":"int"},{"name":"kerning","rangeEnd":19,"rangeStart":0,"value":0.0,"valueType":"double"},{"name":"fontSize","rangeEnd":19,"rangeStart":0,"value":70.0,"valueType":"double"}],
                                      "duration" : 0
                                    }
                                  ]
                                }
                            },
                            "attributes" : {
                              "ident" : "",
                              "autoRotateText" : true
                            },
                            "parameters" : {
                              "translation0" : 24.8574217978768,
                              "translation1" : -30.612442639549,
                              "geometryCrop0" : 0.0,
                              "geometryCrop1" : 0.0,
                              "geometryCrop2" : 0.0,
                              "geometryCrop3" : 0.0
                            },
                            "effects" : [
                                {
                                  "_type" : "GenericBehaviorEffect",
                                  "effectName" : "scale",
                                  "bypassed" : false,
                                  "start" : -1058400000,
                                  "duration" : 2916480000                                ,
                                  "in" : {
                                    "attributes" : {
                                      "name" : "grow",
                                      "type" : 1,
                                      "characterOrder" : 6,
                                      "offsetBetweenCharacters" : 23520000,
                                      "suggestedDurationPerCharacter" : 423360000,
                                      "overlapProportion" : "3/4",
                                      "movement" : 30,
                                      "springDamping" : 5.0,
                                      "springStiffness" : 50.0,
                                      "bounceBounciness" : 0.45
                                    }
                                  
                                  },
                                  "center" : {
                                    "attributes" : {
                                      "name" : "none",
                                      "type" : 1,
                                      "characterOrder" : 6,
                                      "offsetBetweenCharacters" : 0,
                                      "secondsPerLoop" : 1,
                                      "numberOfLoops" : -1,
                                      "delayBetweenLoops" : 0
                                    }
                                  
                                  },
                                  "out" : {
                                    "attributes" : {
                                      "name" : "shrink",
                                      "type" : 1,
                                      "characterOrder" : 6,
                                      "offsetBetweenCharacters" : 23520000,
                                      "suggestedDurationPerCharacter" : 341040000,
                                      "overlapProportion" : "1/10",
                                      "movement" : 11,
                                      "springDamping" : 5.0,
                                      "springStiffness" : 50.0,
                                      "bounceBounciness" : 0.45
                                    }
                                  
                                  }
                                }
                            ],
                            "start" : 305760000,
                            "duration" : 2916480000,
                            "mediaStart" : -1058400000,
                            "mediaDuration" : 2916480000,
                            "scalar" : 1,
                            "metadata" : {
                              "AppliedThemeId" : "",
                              "clipSpeedAttribute" : false,
                              "effectApplied" : "scale"
                            },
                            "animationTracks" : {

                            }
                          }
                        ],
                          "ident" : "",
                          "audioMuted" : false,
                          "videoHidden" : false,
                          "magnetic" : false,
                          "matte" : 0,
                          "solo" : false,
                          "metadata" : {
                            "IsLocked" : "False",
                            "WinTrackHeight" : "56",
                            "trackHeight" : "48"
                          }
                      },
                      {
                        "trackIndex" : 3,
                        "medias" : [
                        ],
                          "ident" : "",
                          "audioMuted" : false,
                          "videoHidden" : false,
                          "magnetic" : false,
                          "matte" : 0,
                          "solo" : false,
                          "metadata" : {
                            "IsLocked" : "False",
                            "WinTrackHeight" : "56",
                            "trackHeight" : "48"
                          }
                      }
                    ],
                    "attributes" : {
                      "ident" : "Tech Topic",
                      "widthAttr" : 1920.0,
                      "heightAttr" : 1080.0,
                      "gain" : 1.0,
                      "mixToMono" : false,
                      "assetProperties" : [
                        {
                          "type" : 0,
                          "name" : "Feature Text",
                          "objects" : [ 59 ],
                          "themeMappings" :  {
                            "font-color" : "foreground-1",
                            "font-family" : "font-1"
                          }
                        },
                        {
                          "type" : 1,
                          "name" : "BACKGROUND",
                          "objects" : [ 54 ],
                          "themeMappings" :  {
                            "fill" : "background-1"
                          }
                        },
                        {
                          "type" : 1,
                          "name" : "ACCENT",
                          "objects" : [ 55 ],
                          "themeMappings" :  {
                            "fill" : "accent-1"
                          }
                        }
                      ]
                    },
                    "effects" : [

                    ],
                    "start" : 11407200000,
                    "duration" : 2210880000,
                    "mediaStart" : -23520000.0,
                    "mediaDuration" : 2210880000.0,
                    "scalar" : 1,
                    "metadata" : {
                      "AppliedThemeId" : "",
                      "IsGroupExpanded" : "False",
                      "clipSpeedAttribute" : false,
                      "effectApplied" : "none",
                      "isOpen" : false
                    },
                    "animationTracks" : {

                    }
                  },
                  {
                    "id" : 60,
                    "_type" : "StitchedMedia",
                    "minMediaStart" : 0,
                    "attributes" : {
                      "ident" : "screenrecording",
                      "gain" : 1.0,
                      "mixToMono" : false,
                      "loudnessNormalization" : true,
                      "sourceFileOffset" : 0
                    },
                    "parameters" : {
                      "geometryCrop0" : 0.0,
                      "geometryCrop1" : 0.0,
                      "geometryCrop2" : 0.0,
                      "geometryCrop3" : 0.0,
                      "volume" : 1.0,
                      "smoothCursorAcrossEditDuration" : 0
                    },
                    "medias" : [
                        {
                          "id" : 61,
                          "_type" : "UnifiedMedia",
                          "video" : 
                              {
                                "id" : 62,
                                "_type" : "VMFile",
                                "src" : 5,
                                "trackNumber" : 0,
                                "attributes" : {
                                  "ident" : "screenrecording"
                                },
                                "parameters" : {
                                  "geometryCrop0" : 0.0,
                                  "geometryCrop1" : 0.0,
                                  "geometryCrop2" : 0.0,
                                  "geometryCrop3" : 0.0
                                },
                                "effects" : [

                                ],
                                "start" : 0,
                                "duration" : 4751040000,
                                "mediaStart" : 0,
                                "mediaDuration" : 4751040000,
                                "scalar" : 1,
                                "animationTracks" : {

                                }
                              },
                          "audio" : 
                              {
                                "id" : 63,
                                "_type" : "AMFile",
                                "src" : 5,
                                "trackNumber" : 1,
                                "attributes" : {
                                  "ident" : "",
                                  "gain" : 1.0,
                                  "mixToMono" : false,
                                  "loudnessNormalization" : true,
                                  "sourceFileOffset" : 0
                                },
                                  "channelNumber" : "0,1",
                                "effects" : [

                                ],
                                "start" : 0,
                                "duration" : 4751040000,
                                "mediaStart" : 0,
                                "mediaDuration" : 4751040000,
                                "scalar" : 1,
                                "animationTracks" : {

                                }
                              }
,
                          "start" : 0,
                          "duration" : 4751040000,
                          "mediaStart" : 0,
                          "mediaDuration" : 4751040000,
                          "scalar" : 1,
                          "metadata" : {
                            "clipSpeedAttribute" : false
                          }
                        },
                        {
                          "id" : 64,
                          "_type" : "UnifiedMedia",
                          "video" : 
                              {
                                "id" : 65,
                                "_type" : "VMFile",
                                "src" : 5,
                                "trackNumber" : 0,
                                "attributes" : {
                                  "ident" : "screenrecording"
                                },
                                "parameters" : {
                                  "geometryCrop0" : 0.0,
                                  "geometryCrop1" : 0.0,
                                  "geometryCrop2" : 0.0,
                                  "geometryCrop3" : 0.0
                                },
                                "effects" : [

                                ],
                                "start" : 4751040000,
                                "duration" : 117976320000,
                                "mediaStart" : 5244960000,
                                "mediaDuration" : 117976320000,
                                "scalar" : 1,
                                "animationTracks" : {

                                }
                              },
                          "audio" : 
                              {
                                "id" : 66,
                                "_type" : "AMFile",
                                "src" : 5,
                                "trackNumber" : 1,
                                "attributes" : {
                                  "ident" : "",
                                  "gain" : 1.0,
                                  "mixToMono" : false,
                                  "loudnessNormalization" : true,
                                  "sourceFileOffset" : 0
                                },
                                  "channelNumber" : "0,1",
                                "effects" : [

                                ],
                                "start" : 4751040000,
                                "duration" : 117976320000,
                                "mediaStart" : 5244960000,
                                "mediaDuration" : 117976320000,
                                "scalar" : 1,
                                "animationTracks" : {

                                }
                              }
,
                          "start" : 4751040000,
                          "duration" : 117976320000,
                          "mediaStart" : 5244960000,
                          "mediaDuration" : 117976320000,
                          "scalar" : 1,
                          "metadata" : {
                            "clipSpeedAttribute" : false
                          }
                        }
                    ],
                    "effects" : [

                    ],
                    "start" : 13618080000,
                    "duration" : 4774560000,
                    "mediaStart" : 21332640000,
                    "mediaDuration" : 7173600000,
                    "scalar" : "203/305",
                    "metadata" : {
                      "clipSpeedAttribute" : true
                    },
                    "animationTracks" : {

                    }
                  },
                  {
                    "id" : 67,
                    "_type" : "StitchedMedia",
                    "minMediaStart" : 0,
                    "attributes" : {
                      "ident" : "screenrecording",
                      "gain" : 1.0,
                      "mixToMono" : false,
                      "loudnessNormalization" : true,
                      "sourceFileOffset" : 0
                    },
                    "parameters" : {
                      "geometryCrop0" : 0.0,
                      "geometryCrop1" : 0.0,
                      "geometryCrop2" : 0.0,
                      "geometryCrop3" : 0.0,
                      "volume" : 1.0,
                      "smoothCursorAcrossEditDuration" : 0
                    },
                    "medias" : [
                        {
                          "id" : 68,
                          "_type" : "UnifiedMedia",
                          "video" : 
                              {
                                "id" : 69,
                                "_type" : "VMFile",
                                "src" : 5,
                                "trackNumber" : 0,
                                "attributes" : {
                                  "ident" : "screenrecording"
                                },
                                "parameters" : {
                                  "geometryCrop0" : 0.0,
                                  "geometryCrop1" : 0.0,
                                  "geometryCrop2" : 0.0,
                                  "geometryCrop3" : 0.0
                                },
                                "effects" : [

                                ],
                                "start" : 0,
                                "duration" : 4751040000,
                                "mediaStart" : 0,
                                "mediaDuration" : 4751040000,
                                "scalar" : 1,
                                "animationTracks" : {

                                }
                              },
                          "audio" : 
                              {
                                "id" : 70,
                                "_type" : "AMFile",
                                "src" : 5,
                                "trackNumber" : 1,
                                "attributes" : {
                                  "ident" : "",
                                  "gain" : 1.0,
                                  "mixToMono" : false,
                                  "loudnessNormalization" : true,
                                  "sourceFileOffset" : 0
                                },
                                  "channelNumber" : "0,1",
                                "effects" : [

                                ],
                                "start" : 0,
                                "duration" : 4751040000,
                                "mediaStart" : 0,
                                "mediaDuration" : 4751040000,
                                "scalar" : 1,
                                "animationTracks" : {

                                }
                              }
,
                          "start" : 0,
                          "duration" : 4751040000,
                          "mediaStart" : 0,
                          "mediaDuration" : 4751040000,
                          "scalar" : 1,
                          "metadata" : {
                            "clipSpeedAttribute" : false
                          }
                        },
                        {
                          "id" : 71,
                          "_type" : "UnifiedMedia",
                          "video" : 
                              {
                                "id" : 72,
                                "_type" : "VMFile",
                                "src" : 5,
                                "trackNumber" : 0,
                                "attributes" : {
                                  "ident" : "screenrecording"
                                },
                                "parameters" : {
                                  "geometryCrop0" : 0.0,
                                  "geometryCrop1" : 0.0,
                                  "geometryCrop2" : 0.0,
                                  "geometryCrop3" : 0.0
                                },
                                "effects" : [

                                ],
                                "start" : 4751040000,
                                "duration" : 117976320000,
                                "mediaStart" : 5244960000,
                                "mediaDuration" : 117976320000,
                                "scalar" : 1,
                                "animationTracks" : {

                                }
                              },
                          "audio" : 
                              {
                                "id" : 73,
                                "_type" : "AMFile",
                                "src" : 5,
                                "trackNumber" : 1,
                                "attributes" : {
                                  "ident" : "",
                                  "gain" : 1.0,
                                  "mixToMono" : false,
                                  "loudnessNormalization" : true,
                                  "sourceFileOffset" : 0
                                },
                                  "channelNumber" : "0,1",
                                "effects" : [

                                ],
                                "start" : 4751040000,
                                "duration" : 117976320000,
                                "mediaStart" : 5244960000,
                                "mediaDuration" : 117976320000,
                                "scalar" : 1,
                                "animationTracks" : {

                                }
                              }
,
                          "start" : 4751040000,
                          "duration" : 117976320000,
                          "mediaStart" : 5244960000,
                          "mediaDuration" : 117976320000,
                          "scalar" : 1,
                          "metadata" : {
                            "clipSpeedAttribute" : false
                          }
                        }
                    ],
                    "effects" : [

                    ],
                    "start" : 18392640000,
                    "duration" : 6279840000,
                    "mediaStart" : 28812000000,
                    "mediaDuration" : 6279840000,
                    "scalar" : 1,
                    "metadata" : {
                      "clipSpeedAttribute" : false
                    },
                    "animationTracks" : {

                    }
                  },
                  {
                    "id" : 74,
                    "_type" : "IMFile",
                    "src" : 12,
                    "trackNumber" : 0,
                    "trimStartSum" : 0,
                    "attributes" : {
                      "ident" : "pizzalistpage"
                    },
                    "parameters" : {
                      "geometryCrop0" : 0.0,
                      "geometryCrop1" : 0.0,
                      "geometryCrop2" : 0.0,
                      "geometryCrop3" : 0.0
                    },
                    "effects" : [

                    ],
                    "start" : 24672480000,
                    "duration" : 2352000000,
                    "mediaStart" : 0,
                    "mediaDuration" : 1,
                    "scalar" : 1,
                    "metadata" : {
                      "clipSpeedAttribute" : false
                    },
                    "animationTracks" : {

                    }
                  },
                  {
                    "id" : 75,
                    "_type" : "Group",
                    "parameters" : {
                      "scale0" : 1.42052974098668,
                      "scale1" : 1.42052974098668,
                      "geometryCrop0" : 0.0,
                      "geometryCrop1" : 0.0,
                      "geometryCrop2" : 0.0,
                      "geometryCrop3" : 0.0,
                      "volume" : 1.0
                    },
                    "tracks" : [
                      {
                        "trackIndex" : 0,
                        "medias" : [
                          {
                            "id" : 76,
                            "_type" : "Group",
                            "parameters" : {
                              "translation0" : 25.8897257495158,
                              "translation1" : 0.557798165143993,
                              "geometryCrop0" : 0.0,
                              "geometryCrop1" : 0.0,
                              "geometryCrop2" : 0.0,
                              "geometryCrop3" : 0.0,
                              "volume" : 1.0
                            },
                            "tracks" : [
                              {
                                "trackIndex" : 0,
                                "medias" : [
                                  {
                                    "id" : 77,
                                    "_type" : "Callout",
                                    "def" : {
                                        "kind" : "remix",
                                        "shape" : "shape-rectangle",
                                        "style" : "urban",
                                        "fill-color-blue" : {
                                          "type" : "double",
                                          "defaultValue" : 0.286274509803922,
                                          "keyframes" : [
                                            {
                                              "endTime" : 399840000,
                                              "time" : 0,
                                              "value" : 0.286274509803922,
                                              "interp" : "eioe",
                                              "duration" : 399840000
                                            },
                                            {
                                              "endTime" : 3504480000,
                                              "time" : 3034080000,
                                              "value" : 0.286274509803922,
                                              "interp" : "eioe",
                                              "duration" : 470400000
                                            }
                                          ]
                                        },
                                        "fill-color-green" : {
                                          "type" : "double",
                                          "defaultValue" : 0.211764705882353,
                                          "keyframes" : [
                                            {
                                              "endTime" : 399840000,
                                              "time" : 0,
                                              "value" : 0.211764705882353,
                                              "interp" : "eioe",
                                              "duration" : 399840000
                                            },
                                            {
                                              "endTime" : 3504480000,
                                              "time" : 3034080000,
                                              "value" : 0.211764705882353,
                                              "interp" : "eioe",
                                              "duration" : 470400000
                                            }
                                          ]
                                        },
                                        "fill-color-opacity" : 1.0,
                                        "fill-color-red" : {
                                          "type" : "double",
                                          "defaultValue" : 0.172549019607843,
                                          "keyframes" : [
                                            {
                                              "endTime" : 399840000,
                                              "time" : 0,
                                              "value" : 0.172549019607843,
                                              "interp" : "eioe",
                                              "duration" : 399840000
                                            },
                                            {
                                              "endTime" : 3504480000,
                                              "time" : 3034080000,
                                              "value" : 0.172549019607843,
                                              "interp" : "eioe",
                                              "duration" : 470400000
                                            }
                                          ]
                                        },
                                        "height" : {
                                          "type" : "double",
                                          "defaultValue" : 144.077255018348,
                                          "keyframes" : [
                                            {
                                              "endTime" : 399840000,
                                              "time" : 0,
                                              "value" : 144.077255102329,
                                              "interp" : "eioe",
                                              "duration" : 399840000
                                            },
                                            {
                                              "endTime" : 3504480000,
                                              "time" : 3034080000,
                                              "value" : 144.077255018348,
                                              "interp" : "eioe",
                                              "duration" : 470400000
                                            }
                                          ]
                                        },
                                        "stroke-color-blue" : 1.0,
                                        "stroke-color-green" : 1.0,
                                        "stroke-color-opacity" : 1.0,
                                        "stroke-color-red" : 1.0,
                                        "stroke-width" : 0.0,
                                        "width" : {
                                          "type" : "double",
                                          "defaultValue" : 0.999999999999773,
                                          "keyframes" : [
                                            {
                                              "endTime" : 399840000,
                                              "time" : 0,
                                              "value" : 607.452331542969,
                                              "interp" : "eioe",
                                              "duration" : 399840000
                                            },
                                            {
                                              "endTime" : 3504480000,
                                              "time" : 3034080000,
                                              "value" : 0.999999999999773,
                                              "interp" : "eioe",
                                              "duration" : 470400000
                                            }
                                          ]
                                        },
                                        "fill-style" : "solid",
                                        "stroke-style" : "solid"
                                    },
                                    "attributes" : {
                                      "ident" : "",
                                      "autoRotateText" : true
                                    },
                                    "parameters" : {
                                      "translation0" : {
                                        "type" : "double",
                                        "defaultValue" : 0.0,
                                        "keyframes" : [
                                          {
                                            "endTime" : 399840000,
                                            "time" : 0,
                                            "value" : 0.0,
                                            "interp" : "eioe",
                                            "duration" : 399840000
                                          }
                                        ]
                                      },
                                      "translation1" : {
                                        "type" : "double",
                                        "defaultValue" : -48.5128632325269,
                                        "keyframes" : [
                                          {
                                            "endTime" : 399840000,
                                            "time" : 0,
                                            "value" : -48.5128632325269,
                                            "interp" : "eioe",
                                            "duration" : 399840000
                                          },
                                          {
                                            "endTime" : 3504480000,
                                            "time" : 3034080000,
                                            "value" : -48.5128632325269,
                                            "interp" : "eioe",
                                            "duration" : 470400000
                                          }
                                        ]
                                      },
                                      "geometryCrop0" : 0.0,
                                      "geometryCrop1" : 0.0,
                                      "geometryCrop2" : 0.0,
                                      "geometryCrop3" : 0.0
                                    },
                                    "effects" : [

                                    ],
                                    "start" : 0,
                                    "duration" : 2187360000,
                                    "mediaStart" : 0,
                                    "mediaDuration" : 2187360000,
                                    "scalar" : 1,
                                    "metadata" : {
                                      "AppliedThemeId" : "",
                                      "clipSpeedAttribute" : false,
                                      "effectApplied" : "none"
                                    },
                                    "animationTracks" : {
                                      "visual" : [
                                        {
                                          "endTime" : 399840000,
                                          "duration" : 399840000,
                                          "range" : [ 0, 399840000],
                                          "interp" : "eioe"
                                        },
                                        {
                                          "endTime" : 3504480000,
                                          "duration" : 470400000,
                                          "range" : [ 3034080000, 470400000],
                                          "interp" : "eioe"
                                        }
                                      ]
                                    }
                                  }
                                ],
                                  "ident" : "",
                                  "audioMuted" : false,
                                  "videoHidden" : false,
                                  "magnetic" : false,
                                  "matte" : 0,
                                  "solo" : false,
                                  "metadata" : {
                                    "IsLocked" : "False",
                                    "WinTrackHeight" : "56",
                                    "trackHeight" : "48"
                                  }
                              },
                              {
                                "trackIndex" : 1,
                                "medias" : [
                                  {
                                    "id" : 78,
                                    "_type" : "Callout",
                                    "def" : {
                                        "kind" : "remix",
                                        "shape" : "shape-rectangle",
                                        "style" : "urban",
                                        "fill-color-blue" : {
                                          "type" : "double",
                                          "defaultValue" : 0.650980392156863,
                                          "keyframes" : [
                                            {
                                              "endTime" : 399840000,
                                              "time" : 0,
                                              "value" : 0.650980392156863,
                                              "interp" : "eioe",
                                              "duration" : 399840000
                                            },
                                            {
                                              "endTime" : 3504480000,
                                              "time" : 3034080000,
                                              "value" : 0.650980392156863,
                                              "interp" : "eioe",
                                              "duration" : 470400000
                                            }
                                          ]
                                        },
                                        "fill-color-green" : {
                                          "type" : "double",
                                          "defaultValue" : 0.184313725490196,
                                          "keyframes" : [
                                            {
                                              "endTime" : 399840000,
                                              "time" : 0,
                                              "value" : 0.184313725490196,
                                              "interp" : "eioe",
                                              "duration" : 399840000
                                            },
                                            {
                                              "endTime" : 3504480000,
                                              "time" : 3034080000,
                                              "value" : 0.184313725490196,
                                              "interp" : "eioe",
                                              "duration" : 470400000
                                            }
                                          ]
                                        },
                                        "fill-color-opacity" : 1.0,
                                        "fill-color-red" : {
                                          "type" : "double",
                                          "defaultValue" : 0.172549019607843,
                                          "keyframes" : [
                                            {
                                              "endTime" : 399840000,
                                              "time" : 0,
                                              "value" : 0.172549019607843,
                                              "interp" : "eioe",
                                              "duration" : 399840000
                                            },
                                            {
                                              "endTime" : 3504480000,
                                              "time" : 3034080000,
                                              "value" : 0.172549019607843,
                                              "interp" : "eioe",
                                              "duration" : 470400000
                                            }
                                          ]
                                        },
                                        "height" : {
                                          "type" : "double",
                                          "defaultValue" : 26.2267330256883,
                                          "keyframes" : [
                                            {
                                              "endTime" : 399840000,
                                              "time" : 0,
                                              "value" : 26.2267331096697,
                                              "interp" : "eioe",
                                              "duration" : 399840000
                                            },
                                            {
                                              "endTime" : 3504480000,
                                              "time" : 3034080000,
                                              "value" : 26.2267330256883,
                                              "interp" : "eioe",
                                              "duration" : 470400000
                                            }
                                          ]
                                        },
                                        "stroke-color-blue" : 1.0,
                                        "stroke-color-green" : 1.0,
                                        "stroke-color-opacity" : 1.0,
                                        "stroke-color-red" : 1.0,
                                        "stroke-width" : 0.0,
                                        "width" : {
                                          "type" : "double",
                                          "defaultValue" : 1.0,
                                          "keyframes" : [
                                            {
                                              "endTime" : 399840000,
                                              "time" : 0,
                                              "value" : 607.452331542969,
                                              "interp" : "eioe",
                                              "duration" : 399840000
                                            },
                                            {
                                              "endTime" : 3504480000,
                                              "time" : 3034080000,
                                              "value" : 1.0,
                                              "interp" : "eioe",
                                              "duration" : 470400000
                                            }
                                          ]
                                        },
                                        "fill-style" : "gradient",
                                        "stroke-style" : "solid"
                                    },
                                    "attributes" : {
                                      "ident" : "",
                                      "autoRotateText" : true
                                    },
                                    "parameters" : {
                                      "translation0" : {
                                        "type" : "double",
                                        "defaultValue" : 0.0,
                                        "keyframes" : [
                                          {
                                            "endTime" : 399840000,
                                            "time" : 0,
                                            "value" : 0.0,
                                            "interp" : "eioe",
                                            "duration" : 399840000
                                          }
                                        ]
                                      },
                                      "translation1" : {
                                        "type" : "double",
                                        "defaultValue" : -107.438124228857,
                                        "keyframes" : [
                                          {
                                            "endTime" : 399840000,
                                            "time" : 0,
                                            "value" : -107.438124228857,
                                            "interp" : "eioe",
                                            "duration" : 399840000
                                          }
                                        ]
                                      },
                                      "geometryCrop0" : 0.0,
                                      "geometryCrop1" : 0.0,
                                      "geometryCrop2" : 0.0,
                                      "geometryCrop3" : 0.0
                                    },
                                    "effects" : [

                                    ],
                                    "start" : 0,
                                    "duration" : 2187360000,
                                    "mediaStart" : 0,
                                    "mediaDuration" : 2187360000,
                                    "scalar" : 1,
                                    "metadata" : {
                                      "AppliedThemeId" : "",
                                      "clipSpeedAttribute" : false,
                                      "effectApplied" : "none"
                                    },
                                    "animationTracks" : {
                                      "visual" : [
                                        {
                                          "endTime" : 399840000,
                                          "duration" : 399840000,
                                          "range" : [ 0, 399840000],
                                          "interp" : "eioe"
                                        },
                                        {
                                          "endTime" : 3504480000,
                                          "duration" : 470400000,
                                          "range" : [ 3034080000, 470400000],
                                          "interp" : "eioe"
                                        }
                                      ]
                                    }
                                  }
                                ],
                                  "ident" : "",
                                  "audioMuted" : false,
                                  "videoHidden" : false,
                                  "magnetic" : false,
                                  "matte" : 0,
                                  "solo" : false,
                                  "metadata" : {
                                    "IsLocked" : "False",
                                    "WinTrackHeight" : "56",
                                    "trackHeight" : "48"
                                  }
                              }
                            ],
                            "attributes" : {
                              "ident" : "Group 2-2",
                              "widthAttr" : 607.452,
                              "heightAttr" : 241.103,
                              "gain" : 1.0,
                              "mixToMono" : false
                            },
                            "effects" : [

                            ],
                            "start" : 0,
                            "duration" : 2187360000,
                            "mediaStart" : 0.0,
                            "mediaDuration" : 2187360000.0,
                            "scalar" : 1,
                            "metadata" : {
                              "IsGroupExpanded" : "False",
                              "clipSpeedAttribute" : false,
                              "effectApplied" : "none",
                              "isOpen" : false
                            },
                            "animationTracks" : {

                            }
                          }
                        ],
                          "ident" : "",
                          "audioMuted" : false,
                          "videoHidden" : false,
                          "magnetic" : false,
                          "matte" : 0,
                          "solo" : false,
                          "metadata" : {
                            "IsLocked" : "False",
                            "WinTrackHeight" : "56",
                            "trackHeight" : "48"
                          }
                      },
                      {
                        "trackIndex" : 1,
                        "medias" : [
                          {
                            "id" : 79,
                            "_type" : "Group",
                            "parameters" : {
                              "translation0" : 30.4878048779248,
                              "geometryCrop0" : 0.0,
                              "geometryCrop1" : 0.0,
                              "geometryCrop2" : 0.0,
                              "geometryCrop3" : 0.0,
                              "volume" : 1.0
                            },
                            "tracks" : [
                              {
                                "trackIndex" : 0,
                                "medias" : [
                                  {
                                    "id" : 80,
                                    "_type" : "Callout",
                                    "def" : {
                                        "kind" : "remix",
                                        "shape" : "shape-rectangle",
                                        "style" : "urban",
                                        "fill-color-blue" : 1.0,
                                        "fill-color-green" : 1.0,
                                        "fill-color-opacity" : 1.0,
                                        "fill-color-red" : 1.0,
                                        "height" : 180.0,
                                        "stroke-color-blue" : 1.0,
                                        "stroke-color-green" : 1.0,
                                        "stroke-color-opacity" : 1.0,
                                        "stroke-color-red" : 1.0,
                                        "stroke-width" : 0.0,
                                        "width" : 240.0,
                                        "fill-style" : "solid",
                                        "stroke-style" : "solid"
                                    },
                                    "attributes" : {
                                      "ident" : "",
                                      "autoRotateText" : true
                                    },
                                    "parameters" : {
                                      "translation0" : {
                                        "type" : "double",
                                        "defaultValue" : -49.0,
                                        "keyframes" : [
                                          {
                                            "endTime" : 423360000,
                                            "time" : 0,
                                            "value" : -339.0,
                                            "interp" : "eioe",
                                            "duration" : 423360000
                                          },
                                          {
                                            "endTime" : 3504480000,
                                            "time" : 3057600000,
                                            "value" : -49.0,
                                            "interp" : "eioe",
                                            "duration" : 446880000
                                          }
                                        ]
                                      },
                                      "translation1" : {
                                        "type" : "double",
                                        "defaultValue" : 70.5,
                                        "keyframes" : [
                                          {
                                            "endTime" : 423360000,
                                            "time" : 0,
                                            "value" : 70.5,
                                            "interp" : "eioe",
                                            "duration" : 423360000
                                          },
                                          {
                                            "endTime" : 3504480000,
                                            "time" : 3057600000,
                                            "value" : 70.5,
                                            "interp" : "eioe",
                                            "duration" : 446880000
                                          }
                                        ]
                                      },
                                      "rotation2" : {
                                        "type" : "double",
                                        "defaultValue" : 0.785398163397446,
                                        "keyframes" : [
                                          {
                                            "endTime" : 423360000,
                                            "time" : 0,
                                            "value" : 0.785398163397446,
                                            "interp" : "eioe",
                                            "duration" : 423360000
                                          },
                                          {
                                            "endTime" : 3504480000,
                                            "time" : 3057600000,
                                            "value" : 0.785398163397446,
                                            "interp" : "eioe",
                                            "duration" : 446880000
                                          }
                                        ]
                                      },
                                      "geometryCrop0" : 0.0,
                                      "geometryCrop1" : 0.0,
                                      "geometryCrop2" : 0.0,
                                      "geometryCrop3" : 0.0
                                    },
                                    "effects" : [

                                    ],
                                    "start" : 0,
                                    "duration" : 2187360000,
                                    "mediaStart" : 0,
                                    "mediaDuration" : 2187360000,
                                    "scalar" : 1,
                                    "metadata" : {
                                      "AppliedThemeId" : "",
                                      "clipSpeedAttribute" : false,
                                      "effectApplied" : "none"
                                    },
                                    "animationTracks" : {
                                      "visual" : [
                                        {
                                          "endTime" : 423360000,
                                          "duration" : 423360000,
                                          "range" : [ 0, 423360000],
                                          "interp" : "eioe"
                                        },
                                        {
                                          "endTime" : 3504480000,
                                          "duration" : 446880000,
                                          "range" : [ 3057600000, 446880000],
                                          "interp" : "eioe"
                                        }
                                      ]
                                    }
                                  }
                                ],
                                  "ident" : "",
                                  "audioMuted" : false,
                                  "videoHidden" : false,
                                  "magnetic" : false,
                                  "matte" : 0,
                                  "solo" : false,
                                  "metadata" : {
                                    "IsLocked" : "False",
                                    "WinTrackHeight" : "56",
                                    "trackHeight" : "48"
                                  }
                              },
                              {
                                "trackIndex" : 1,
                                "medias" : [
                                  {
                                    "id" : 81,
                                    "_type" : "Callout",
                                    "def" : {
                                        "kind" : "remix",
                                        "shape" : "shape-rectangle",
                                        "style" : "urban",
                                        "fill-color-blue" : 1.0,
                                        "fill-color-green" : 1.0,
                                        "fill-color-opacity" : 1.0,
                                        "fill-color-red" : 1.0,
                                        "height" : 180.0,
                                        "stroke-color-blue" : 1.0,
                                        "stroke-color-green" : 1.0,
                                        "stroke-color-opacity" : 1.0,
                                        "stroke-color-red" : 1.0,
                                        "stroke-width" : 0.0,
                                        "width" : 240.0,
                                        "fill-style" : "solid",
                                        "stroke-style" : "solid"
                                    },
                                    "attributes" : {
                                      "ident" : "",
                                      "autoRotateText" : true
                                    },
                                    "parameters" : {
                                      "translation0" : {
                                        "type" : "double",
                                        "defaultValue" : 59.0,
                                        "keyframes" : [
                                          {
                                            "endTime" : 423360000,
                                            "time" : 0,
                                            "value" : 359.0,
                                            "interp" : "eioe",
                                            "duration" : 423360000
                                          },
                                          {
                                            "endTime" : 3504480000,
                                            "time" : 3057600000,
                                            "value" : 59.0,
                                            "interp" : "eioe",
                                            "duration" : 446880000
                                          }
                                        ]
                                      },
                                      "translation1" : {
                                        "type" : "double",
                                        "defaultValue" : -150.5,
                                        "keyframes" : [
                                          {
                                            "endTime" : 423360000,
                                            "time" : 0,
                                            "value" : -150.5,
                                            "interp" : "eioe",
                                            "duration" : 423360000
                                          },
                                          {
                                            "endTime" : 3504480000,
                                            "time" : 3057600000,
                                            "value" : -150.5,
                                            "interp" : "eioe",
                                            "duration" : 446880000
                                          }
                                        ]
                                      },
                                      "rotation2" : {
                                        "type" : "double",
                                        "defaultValue" : 0.785398163397446,
                                        "keyframes" : [
                                          {
                                            "endTime" : 423360000,
                                            "time" : 0,
                                            "value" : 0.785398163397446,
                                            "interp" : "eioe",
                                            "duration" : 423360000
                                          },
                                          {
                                            "endTime" : 3504480000,
                                            "time" : 3057600000,
                                            "value" : 0.785398163397446,
                                            "interp" : "eioe",
                                            "duration" : 446880000
                                          }
                                        ]
                                      },
                                      "geometryCrop0" : 0.0,
                                      "geometryCrop1" : 0.0,
                                      "geometryCrop2" : 0.0,
                                      "geometryCrop3" : 0.0
                                    },
                                    "effects" : [

                                    ],
                                    "start" : 0,
                                    "duration" : 2187360000,
                                    "mediaStart" : 0,
                                    "mediaDuration" : 2187360000,
                                    "scalar" : 1,
                                    "metadata" : {
                                      "AppliedThemeId" : "",
                                      "clipSpeedAttribute" : false,
                                      "effectApplied" : "none"
                                    },
                                    "animationTracks" : {
                                      "visual" : [
                                        {
                                          "endTime" : 423360000,
                                          "duration" : 423360000,
                                          "range" : [ 0, 423360000],
                                          "interp" : "eioe"
                                        },
                                        {
                                          "endTime" : 3504480000,
                                          "duration" : 446880000,
                                          "range" : [ 3057600000, 446880000],
                                          "interp" : "eioe"
                                        }
                                      ]
                                    }
                                  }
                                ],
                                  "ident" : "",
                                  "audioMuted" : false,
                                  "videoHidden" : false,
                                  "magnetic" : false,
                                  "matte" : 0,
                                  "solo" : false,
                                  "metadata" : {
                                    "IsLocked" : "False",
                                    "WinTrackHeight" : "56",
                                    "trackHeight" : "48"
                                  }
                              }
                            ],
                            "attributes" : {
                              "ident" : "Group 2",
                              "widthAttr" : 1014.98,
                              "heightAttr" : 597.985,
                              "gain" : 1.0,
                              "mixToMono" : false
                            },
                            "effects" : [

                            ],
                            "start" : 0,
                            "duration" : 2187360000,
                            "mediaStart" : 0.0,
                            "mediaDuration" : 2187360000.0,
                            "scalar" : 1,
                            "metadata" : {
                              "IsGroupExpanded" : "False",
                              "clipSpeedAttribute" : false,
                              "effectApplied" : "none",
                              "isOpen" : false
                            },
                            "animationTracks" : {

                            }
                          }
                        ],
                          "ident" : "",
                          "audioMuted" : false,
                          "videoHidden" : false,
                          "magnetic" : false,
                          "matte" : 2,
                          "solo" : false,
                          "metadata" : {
                            "IsLocked" : "False",
                            "WinTrackHeight" : "56",
                            "trackHeight" : "48"
                          }
                      },
                      {
                        "trackIndex" : 2,
                        "medias" : [
                          {
                            "id" : 82,
                            "_type" : "Callout",
                            "def" : {
                                "kind" : "remix",
                                "shape" : "text",
                                "style" : "urban",
                                "enable-ligatures" : 1.0,
                                "height" : 238.762499957998,
                                "line-spacing" : 0.0,
                                "width" : 536.563582999083,
                                "word-wrap" : 1.0,
                                "horizontal-alignment" : "left",
                                "resize-behavior" : "resizeText",
                                "text" : "Creating a Pizza",
                                "vertical-alignment" : "center",
                                "font" : {
                                  "color-blue" : 1.0,
                                  "color-green" : 1.0,
                                  "color-red" : 1.0,
                                  "size" : 70.0,
                                  "tracking" : 0.0,
                                  "name" : "Dosis",
                                  "weight" : "Semi Bold"
                                },
                                "textAttributes" : {
                                  "type" : "textAttributeList",
                                  "keyframes" : [
                                    {
                                      "endTime" : 0,
                                      "time" : 0,
                                      "value" : [{"name":"strikethrough","rangeEnd":16,"rangeStart":0,"value":0,"valueType":"int"},{"name":"fontName","rangeEnd":16,"rangeStart":0,"value":"Oswald","valueType":"string"},{"name":"fgColor","rangeEnd":16,"rangeStart":0,"value":"(255,255,255,255)","valueType":"color"},{"name":"fontWeight","rangeEnd":16,"rangeStart":0,"value":400,"valueType":"int"},{"name":"fontItalic","rangeEnd":16,"rangeStart":0,"value":0,"valueType":"int"},{"name":"underline","rangeEnd":16,"rangeStart":0,"value":0,"valueType":"int"},{"name":"kerning","rangeEnd":16,"rangeStart":0,"value":0.0,"valueType":"double"},{"name":"fontSize","rangeEnd":16,"rangeStart":0,"value":70.0,"valueType":"double"}],
                                      "duration" : 0
                                    }
                                  ]
                                }
                            },
                            "attributes" : {
                              "ident" : "",
                              "autoRotateText" : true
                            },
                            "parameters" : {
                              "translation0" : 24.8574217978768,
                              "translation1" : -30.612442639549,
                              "geometryCrop0" : 0.0,
                              "geometryCrop1" : 0.0,
                              "geometryCrop2" : 0.0,
                              "geometryCrop3" : 0.0
                            },
                            "effects" : [
                                {
                                  "_type" : "GenericBehaviorEffect",
                                  "effectName" : "scale",
                                  "bypassed" : false,
                                  "start" : -1058400000,
                                  "duration" : 2916480000                                ,
                                  "in" : {
                                    "attributes" : {
                                      "name" : "grow",
                                      "type" : 1,
                                      "characterOrder" : 6,
                                      "offsetBetweenCharacters" : 23520000,
                                      "suggestedDurationPerCharacter" : 423360000,
                                      "overlapProportion" : "3/4",
                                      "movement" : 30,
                                      "springDamping" : 5.0,
                                      "springStiffness" : 50.0,
                                      "bounceBounciness" : 0.45
                                    }
                                  
                                  },
                                  "center" : {
                                    "attributes" : {
                                      "name" : "none",
                                      "type" : 1,
                                      "characterOrder" : 6,
                                      "offsetBetweenCharacters" : 0,
                                      "secondsPerLoop" : 1,
                                      "numberOfLoops" : -1,
                                      "delayBetweenLoops" : 0
                                    }
                                  
                                  },
                                  "out" : {
                                    "attributes" : {
                                      "name" : "shrink",
                                      "type" : 1,
                                      "characterOrder" : 6,
                                      "offsetBetweenCharacters" : 23520000,
                                      "suggestedDurationPerCharacter" : 341040000,
                                      "overlapProportion" : "1/10",
                                      "movement" : 11,
                                      "springDamping" : 5.0,
                                      "springStiffness" : 50.0,
                                      "bounceBounciness" : 0.45
                                    }
                                  
                                  }
                                }
                            ],
                            "start" : 305760000,
                            "duration" : 2916480000,
                            "mediaStart" : -1058400000,
                            "mediaDuration" : 2916480000,
                            "scalar" : 1,
                            "metadata" : {
                              "AppliedThemeId" : "",
                              "clipSpeedAttribute" : false,
                              "effectApplied" : "scale"
                            },
                            "animationTracks" : {

                            }
                          }
                        ],
                          "ident" : "",
                          "audioMuted" : false,
                          "videoHidden" : false,
                          "magnetic" : false,
                          "matte" : 0,
                          "solo" : false,
                          "metadata" : {
                            "IsLocked" : "False",
                            "WinTrackHeight" : "56",
                            "trackHeight" : "48"
                          }
                      },
                      {
                        "trackIndex" : 3,
                        "medias" : [
                        ],
                          "ident" : "",
                          "audioMuted" : false,
                          "videoHidden" : false,
                          "magnetic" : false,
                          "matte" : 0,
                          "solo" : false,
                          "metadata" : {
                            "IsLocked" : "False",
                            "WinTrackHeight" : "56",
                            "trackHeight" : "48"
                          }
                      }
                    ],
                    "attributes" : {
                      "ident" : "Tech Topic",
                      "widthAttr" : 1920.0,
                      "heightAttr" : 1080.0,
                      "gain" : 1.0,
                      "mixToMono" : false,
                      "assetProperties" : [
                        {
                          "type" : 0,
                          "name" : "Feature Text",
                          "objects" : [ 82 ],
                          "themeMappings" :  {
                            "font-color" : "foreground-1",
                            "font-family" : "font-1"
                          }
                        },
                        {
                          "type" : 1,
                          "name" : "BACKGROUND",
                          "objects" : [ 77 ],
                          "themeMappings" :  {
                            "fill" : "background-1"
                          }
                        },
                        {
                          "type" : 1,
                          "name" : "ACCENT",
                          "objects" : [ 78 ],
                          "themeMappings" :  {
                            "fill" : "accent-1"
                          }
                        }
                      ]
                    },
                    "effects" : [

                    ],
                    "start" : 27024480000,
                    "duration" : 2187360000,
                    "mediaStart" : 0.0,
                    "mediaDuration" : 2187360000.0,
                    "scalar" : 1,
                    "metadata" : {
                      "AppliedThemeId" : "",
                      "IsGroupExpanded" : "False",
                      "clipSpeedAttribute" : false,
                      "effectApplied" : "none",
                      "isOpen" : false
                    },
                    "animationTracks" : {

                    }
                  },
                  {
                    "id" : 83,
                    "_type" : "StitchedMedia",
                    "minMediaStart" : 0,
                    "attributes" : {
                      "ident" : "screenrecording",
                      "gain" : 1.0,
                      "mixToMono" : false,
                      "loudnessNormalization" : true,
                      "sourceFileOffset" : 0
                    },
                    "parameters" : {
                      "geometryCrop0" : 0.0,
                      "geometryCrop1" : 0.0,
                      "geometryCrop2" : 0.0,
                      "geometryCrop3" : 0.0,
                      "volume" : 1.0,
                      "smoothCursorAcrossEditDuration" : 0
                    },
                    "medias" : [
                        {
                          "id" : 84,
                          "_type" : "UnifiedMedia",
                          "video" : 
                              {
                                "id" : 85,
                                "_type" : "VMFile",
                                "src" : 5,
                                "trackNumber" : 0,
                                "attributes" : {
                                  "ident" : "screenrecording"
                                },
                                "parameters" : {
                                  "geometryCrop0" : 0.0,
                                  "geometryCrop1" : 0.0,
                                  "geometryCrop2" : 0.0,
                                  "geometryCrop3" : 0.0
                                },
                                "effects" : [

                                ],
                                "start" : 0,
                                "duration" : 4751040000,
                                "mediaStart" : 0,
                                "mediaDuration" : 4751040000,
                                "scalar" : 1,
                                "animationTracks" : {

                                }
                              },
                          "audio" : 
                              {
                                "id" : 86,
                                "_type" : "AMFile",
                                "src" : 5,
                                "trackNumber" : 1,
                                "attributes" : {
                                  "ident" : "",
                                  "gain" : 1.0,
                                  "mixToMono" : false,
                                  "loudnessNormalization" : true,
                                  "sourceFileOffset" : 0
                                },
                                  "channelNumber" : "0,1",
                                "effects" : [

                                ],
                                "start" : 0,
                                "duration" : 4751040000,
                                "mediaStart" : 0,
                                "mediaDuration" : 4751040000,
                                "scalar" : 1,
                                "animationTracks" : {

                                }
                              }
,
                          "start" : 0,
                          "duration" : 4751040000,
                          "mediaStart" : 0,
                          "mediaDuration" : 4751040000,
                          "scalar" : 1,
                          "metadata" : {
                            "clipSpeedAttribute" : false
                          }
                        },
                        {
                          "id" : 87,
                          "_type" : "UnifiedMedia",
                          "video" : 
                              {
                                "id" : 88,
                                "_type" : "VMFile",
                                "src" : 5,
                                "trackNumber" : 0,
                                "attributes" : {
                                  "ident" : "screenrecording"
                                },
                                "parameters" : {
                                  "geometryCrop0" : 0.0,
                                  "geometryCrop1" : 0.0,
                                  "geometryCrop2" : 0.0,
                                  "geometryCrop3" : 0.0
                                },
                                "effects" : [

                                ],
                                "start" : 4751040000,
                                "duration" : 117976320000,
                                "mediaStart" : 5244960000,
                                "mediaDuration" : 117976320000,
                                "scalar" : 1,
                                "animationTracks" : {

                                }
                              },
                          "audio" : 
                              {
                                "id" : 89,
                                "_type" : "AMFile",
                                "src" : 5,
                                "trackNumber" : 1,
                                "attributes" : {
                                  "ident" : "",
                                  "gain" : 1.0,
                                  "mixToMono" : false,
                                  "loudnessNormalization" : true,
                                  "sourceFileOffset" : 0
                                },
                                  "channelNumber" : "0,1",
                                "effects" : [

                                ],
                                "start" : 4751040000,
                                "duration" : 117976320000,
                                "mediaStart" : 5244960000,
                                "mediaDuration" : 117976320000,
                                "scalar" : 1,
                                "animationTracks" : {

                                }
                              }
,
                          "start" : 4751040000,
                          "duration" : 117976320000,
                          "mediaStart" : 5244960000,
                          "mediaDuration" : 117976320000,
                          "scalar" : 1,
                          "metadata" : {
                            "clipSpeedAttribute" : false
                          }
                        }
                    ],
                    "effects" : [

                    ],
                    "start" : 29211840000,
                    "duration" : 7432320000,
                    "mediaStart" : 35091840000,
                    "mediaDuration" : 9666720000,
                    "scalar" : "316/411",
                    "metadata" : {
                      "clipSpeedAttribute" : true
                    },
                    "animationTracks" : {

                    }
                  },
                  {
                    "id" : 90,
                    "_type" : "Group",
                    "parameters" : {
                      "scale0" : 1.42052974098668,
                      "scale1" : 1.42052974098668,
                      "geometryCrop0" : 0.0,
                      "geometryCrop1" : 0.0,
                      "geometryCrop2" : 0.0,
                      "geometryCrop3" : 0.0,
                      "volume" : 1.0
                    },
                    "tracks" : [
                      {
                        "trackIndex" : 0,
                        "medias" : [
                          {
                            "id" : 91,
                            "_type" : "Group",
                            "parameters" : {
                              "translation0" : 25.8897257495158,
                              "translation1" : 0.557798165143993,
                              "geometryCrop0" : 0.0,
                              "geometryCrop1" : 0.0,
                              "geometryCrop2" : 0.0,
                              "geometryCrop3" : 0.0,
                              "volume" : 1.0
                            },
                            "tracks" : [
                              {
                                "trackIndex" : 0,
                                "medias" : [
                                  {
                                    "id" : 92,
                                    "_type" : "Callout",
                                    "def" : {
                                        "kind" : "remix",
                                        "shape" : "shape-rectangle",
                                        "style" : "urban",
                                        "fill-color-blue" : {
                                          "type" : "double",
                                          "defaultValue" : 0.286274509803922,
                                          "keyframes" : [
                                            {
                                              "endTime" : 399840000,
                                              "time" : 0,
                                              "value" : 0.286274509803922,
                                              "interp" : "eioe",
                                              "duration" : 399840000
                                            },
                                            {
                                              "endTime" : 3504480000,
                                              "time" : 3034080000,
                                              "value" : 0.286274509803922,
                                              "interp" : "eioe",
                                              "duration" : 470400000
                                            }
                                          ]
                                        },
                                        "fill-color-green" : {
                                          "type" : "double",
                                          "defaultValue" : 0.211764705882353,
                                          "keyframes" : [
                                            {
                                              "endTime" : 399840000,
                                              "time" : 0,
                                              "value" : 0.211764705882353,
                                              "interp" : "eioe",
                                              "duration" : 399840000
                                            },
                                            {
                                              "endTime" : 3504480000,
                                              "time" : 3034080000,
                                              "value" : 0.211764705882353,
                                              "interp" : "eioe",
                                              "duration" : 470400000
                                            }
                                          ]
                                        },
                                        "fill-color-opacity" : 1.0,
                                        "fill-color-red" : {
                                          "type" : "double",
                                          "defaultValue" : 0.172549019607843,
                                          "keyframes" : [
                                            {
                                              "endTime" : 399840000,
                                              "time" : 0,
                                              "value" : 0.172549019607843,
                                              "interp" : "eioe",
                                              "duration" : 399840000
                                            },
                                            {
                                              "endTime" : 3504480000,
                                              "time" : 3034080000,
                                              "value" : 0.172549019607843,
                                              "interp" : "eioe",
                                              "duration" : 470400000
                                            }
                                          ]
                                        },
                                        "height" : {
                                          "type" : "double",
                                          "defaultValue" : 144.077255018348,
                                          "keyframes" : [
                                            {
                                              "endTime" : 399840000,
                                              "time" : 0,
                                              "value" : 144.077255102329,
                                              "interp" : "eioe",
                                              "duration" : 399840000
                                            },
                                            {
                                              "endTime" : 3504480000,
                                              "time" : 3034080000,
                                              "value" : 144.077255018348,
                                              "interp" : "eioe",
                                              "duration" : 470400000
                                            }
                                          ]
                                        },
                                        "stroke-color-blue" : 1.0,
                                        "stroke-color-green" : 1.0,
                                        "stroke-color-opacity" : 1.0,
                                        "stroke-color-red" : 1.0,
                                        "stroke-width" : 0.0,
                                        "width" : {
                                          "type" : "double",
                                          "defaultValue" : 0.999999999999773,
                                          "keyframes" : [
                                            {
                                              "endTime" : 399840000,
                                              "time" : 0,
                                              "value" : 607.452331542969,
                                              "interp" : "eioe",
                                              "duration" : 399840000
                                            },
                                            {
                                              "endTime" : 3504480000,
                                              "time" : 3034080000,
                                              "value" : 0.999999999999773,
                                              "interp" : "eioe",
                                              "duration" : 470400000
                                            }
                                          ]
                                        },
                                        "fill-style" : "solid",
                                        "stroke-style" : "solid"
                                    },
                                    "attributes" : {
                                      "ident" : "",
                                      "autoRotateText" : true
                                    },
                                    "parameters" : {
                                      "translation0" : {
                                        "type" : "double",
                                        "defaultValue" : 0.0,
                                        "keyframes" : [
                                          {
                                            "endTime" : 399840000,
                                            "time" : 0,
                                            "value" : 0.0,
                                            "interp" : "eioe",
                                            "duration" : 399840000
                                          }
                                        ]
                                      },
                                      "translation1" : {
                                        "type" : "double",
                                        "defaultValue" : -48.5128632325269,
                                        "keyframes" : [
                                          {
                                            "endTime" : 399840000,
                                            "time" : 0,
                                            "value" : -48.5128632325269,
                                            "interp" : "eioe",
                                            "duration" : 399840000
                                          },
                                          {
                                            "endTime" : 3504480000,
                                            "time" : 3034080000,
                                            "value" : -48.5128632325269,
                                            "interp" : "eioe",
                                            "duration" : 470400000
                                          }
                                        ]
                                      },
                                      "geometryCrop0" : 0.0,
                                      "geometryCrop1" : 0.0,
                                      "geometryCrop2" : 0.0,
                                      "geometryCrop3" : 0.0
                                    },
                                    "effects" : [

                                    ],
                                    "start" : 0,
                                    "duration" : 2187360000,
                                    "mediaStart" : 0,
                                    "mediaDuration" : 2187360000,
                                    "scalar" : 1,
                                    "metadata" : {
                                      "AppliedThemeId" : "",
                                      "clipSpeedAttribute" : false,
                                      "effectApplied" : "none"
                                    },
                                    "animationTracks" : {
                                      "visual" : [
                                        {
                                          "endTime" : 399840000,
                                          "duration" : 399840000,
                                          "range" : [ 0, 399840000],
                                          "interp" : "eioe"
                                        },
                                        {
                                          "endTime" : 3504480000,
                                          "duration" : 470400000,
                                          "range" : [ 3034080000, 470400000],
                                          "interp" : "eioe"
                                        }
                                      ]
                                    }
                                  }
                                ],
                                  "ident" : "",
                                  "audioMuted" : false,
                                  "videoHidden" : false,
                                  "magnetic" : false,
                                  "matte" : 0,
                                  "solo" : false,
                                  "metadata" : {
                                    "IsLocked" : "False",
                                    "WinTrackHeight" : "56",
                                    "trackHeight" : "48"
                                  }
                              },
                              {
                                "trackIndex" : 1,
                                "medias" : [
                                  {
                                    "id" : 93,
                                    "_type" : "Callout",
                                    "def" : {
                                        "kind" : "remix",
                                        "shape" : "shape-rectangle",
                                        "style" : "urban",
                                        "fill-color-blue" : {
                                          "type" : "double",
                                          "defaultValue" : 0.650980392156863,
                                          "keyframes" : [
                                            {
                                              "endTime" : 399840000,
                                              "time" : 0,
                                              "value" : 0.650980392156863,
                                              "interp" : "eioe",
                                              "duration" : 399840000
                                            },
                                            {
                                              "endTime" : 3504480000,
                                              "time" : 3034080000,
                                              "value" : 0.650980392156863,
                                              "interp" : "eioe",
                                              "duration" : 470400000
                                            }
                                          ]
                                        },
                                        "fill-color-green" : {
                                          "type" : "double",
                                          "defaultValue" : 0.184313725490196,
                                          "keyframes" : [
                                            {
                                              "endTime" : 399840000,
                                              "time" : 0,
                                              "value" : 0.184313725490196,
                                              "interp" : "eioe",
                                              "duration" : 399840000
                                            },
                                            {
                                              "endTime" : 3504480000,
                                              "time" : 3034080000,
                                              "value" : 0.184313725490196,
                                              "interp" : "eioe",
                                              "duration" : 470400000
                                            }
                                          ]
                                        },
                                        "fill-color-opacity" : 1.0,
                                        "fill-color-red" : {
                                          "type" : "double",
                                          "defaultValue" : 0.172549019607843,
                                          "keyframes" : [
                                            {
                                              "endTime" : 399840000,
                                              "time" : 0,
                                              "value" : 0.172549019607843,
                                              "interp" : "eioe",
                                              "duration" : 399840000
                                            },
                                            {
                                              "endTime" : 3504480000,
                                              "time" : 3034080000,
                                              "value" : 0.172549019607843,
                                              "interp" : "eioe",
                                              "duration" : 470400000
                                            }
                                          ]
                                        },
                                        "height" : {
                                          "type" : "double",
                                          "defaultValue" : 26.2267330256883,
                                          "keyframes" : [
                                            {
                                              "endTime" : 399840000,
                                              "time" : 0,
                                              "value" : 26.2267331096697,
                                              "interp" : "eioe",
                                              "duration" : 399840000
                                            },
                                            {
                                              "endTime" : 3504480000,
                                              "time" : 3034080000,
                                              "value" : 26.2267330256883,
                                              "interp" : "eioe",
                                              "duration" : 470400000
                                            }
                                          ]
                                        },
                                        "stroke-color-blue" : 1.0,
                                        "stroke-color-green" : 1.0,
                                        "stroke-color-opacity" : 1.0,
                                        "stroke-color-red" : 1.0,
                                        "stroke-width" : 0.0,
                                        "width" : {
                                          "type" : "double",
                                          "defaultValue" : 1.0,
                                          "keyframes" : [
                                            {
                                              "endTime" : 399840000,
                                              "time" : 0,
                                              "value" : 607.452331542969,
                                              "interp" : "eioe",
                                              "duration" : 399840000
                                            },
                                            {
                                              "endTime" : 3504480000,
                                              "time" : 3034080000,
                                              "value" : 1.0,
                                              "interp" : "eioe",
                                              "duration" : 470400000
                                            }
                                          ]
                                        },
                                        "fill-style" : "gradient",
                                        "stroke-style" : "solid"
                                    },
                                    "attributes" : {
                                      "ident" : "",
                                      "autoRotateText" : true
                                    },
                                    "parameters" : {
                                      "translation0" : {
                                        "type" : "double",
                                        "defaultValue" : 0.0,
                                        "keyframes" : [
                                          {
                                            "endTime" : 399840000,
                                            "time" : 0,
                                            "value" : 0.0,
                                            "interp" : "eioe",
                                            "duration" : 399840000
                                          }
                                        ]
                                      },
                                      "translation1" : {
                                        "type" : "double",
                                        "defaultValue" : -107.438124228857,
                                        "keyframes" : [
                                          {
                                            "endTime" : 399840000,
                                            "time" : 0,
                                            "value" : -107.438124228857,
                                            "interp" : "eioe",
                                            "duration" : 399840000
                                          }
                                        ]
                                      },
                                      "geometryCrop0" : 0.0,
                                      "geometryCrop1" : 0.0,
                                      "geometryCrop2" : 0.0,
                                      "geometryCrop3" : 0.0
                                    },
                                    "effects" : [

                                    ],
                                    "start" : 0,
                                    "duration" : 2187360000,
                                    "mediaStart" : 0,
                                    "mediaDuration" : 2187360000,
                                    "scalar" : 1,
                                    "metadata" : {
                                      "AppliedThemeId" : "",
                                      "clipSpeedAttribute" : false,
                                      "effectApplied" : "none"
                                    },
                                    "animationTracks" : {
                                      "visual" : [
                                        {
                                          "endTime" : 399840000,
                                          "duration" : 399840000,
                                          "range" : [ 0, 399840000],
                                          "interp" : "eioe"
                                        },
                                        {
                                          "endTime" : 3504480000,
                                          "duration" : 470400000,
                                          "range" : [ 3034080000, 470400000],
                                          "interp" : "eioe"
                                        }
                                      ]
                                    }
                                  }
                                ],
                                  "ident" : "",
                                  "audioMuted" : false,
                                  "videoHidden" : false,
                                  "magnetic" : false,
                                  "matte" : 0,
                                  "solo" : false,
                                  "metadata" : {
                                    "IsLocked" : "False",
                                    "WinTrackHeight" : "56",
                                    "trackHeight" : "48"
                                  }
                              }
                            ],
                            "attributes" : {
                              "ident" : "Group 2-2",
                              "widthAttr" : 607.452,
                              "heightAttr" : 241.103,
                              "gain" : 1.0,
                              "mixToMono" : false
                            },
                            "effects" : [

                            ],
                            "start" : 0,
                            "duration" : 2187360000,
                            "mediaStart" : 0.0,
                            "mediaDuration" : 2187360000.0,
                            "scalar" : 1,
                            "metadata" : {
                              "IsGroupExpanded" : "False",
                              "clipSpeedAttribute" : false,
                              "effectApplied" : "none",
                              "isOpen" : false
                            },
                            "animationTracks" : {

                            }
                          }
                        ],
                          "ident" : "",
                          "audioMuted" : false,
                          "videoHidden" : false,
                          "magnetic" : false,
                          "matte" : 0,
                          "solo" : false,
                          "metadata" : {
                            "IsLocked" : "False",
                            "WinTrackHeight" : "56",
                            "trackHeight" : "48"
                          }
                      },
                      {
                        "trackIndex" : 1,
                        "medias" : [
                          {
                            "id" : 94,
                            "_type" : "Group",
                            "parameters" : {
                              "translation0" : 30.4878048779248,
                              "geometryCrop0" : 0.0,
                              "geometryCrop1" : 0.0,
                              "geometryCrop2" : 0.0,
                              "geometryCrop3" : 0.0,
                              "volume" : 1.0
                            },
                            "tracks" : [
                              {
                                "trackIndex" : 0,
                                "medias" : [
                                  {
                                    "id" : 95,
                                    "_type" : "Callout",
                                    "def" : {
                                        "kind" : "remix",
                                        "shape" : "shape-rectangle",
                                        "style" : "urban",
                                        "fill-color-blue" : 1.0,
                                        "fill-color-green" : 1.0,
                                        "fill-color-opacity" : 1.0,
                                        "fill-color-red" : 1.0,
                                        "height" : 180.0,
                                        "stroke-color-blue" : 1.0,
                                        "stroke-color-green" : 1.0,
                                        "stroke-color-opacity" : 1.0,
                                        "stroke-color-red" : 1.0,
                                        "stroke-width" : 0.0,
                                        "width" : 240.0,
                                        "fill-style" : "solid",
                                        "stroke-style" : "solid"
                                    },
                                    "attributes" : {
                                      "ident" : "",
                                      "autoRotateText" : true
                                    },
                                    "parameters" : {
                                      "translation0" : {
                                        "type" : "double",
                                        "defaultValue" : -49.0,
                                        "keyframes" : [
                                          {
                                            "endTime" : 423360000,
                                            "time" : 0,
                                            "value" : -339.0,
                                            "interp" : "eioe",
                                            "duration" : 423360000
                                          },
                                          {
                                            "endTime" : 3504480000,
                                            "time" : 3057600000,
                                            "value" : -49.0,
                                            "interp" : "eioe",
                                            "duration" : 446880000
                                          }
                                        ]
                                      },
                                      "translation1" : {
                                        "type" : "double",
                                        "defaultValue" : 70.5,
                                        "keyframes" : [
                                          {
                                            "endTime" : 423360000,
                                            "time" : 0,
                                            "value" : 70.5,
                                            "interp" : "eioe",
                                            "duration" : 423360000
                                          },
                                          {
                                            "endTime" : 3504480000,
                                            "time" : 3057600000,
                                            "value" : 70.5,
                                            "interp" : "eioe",
                                            "duration" : 446880000
                                          }
                                        ]
                                      },
                                      "rotation2" : {
                                        "type" : "double",
                                        "defaultValue" : 0.785398163397446,
                                        "keyframes" : [
                                          {
                                            "endTime" : 423360000,
                                            "time" : 0,
                                            "value" : 0.785398163397446,
                                            "interp" : "eioe",
                                            "duration" : 423360000
                                          },
                                          {
                                            "endTime" : 3504480000,
                                            "time" : 3057600000,
                                            "value" : 0.785398163397446,
                                            "interp" : "eioe",
                                            "duration" : 446880000
                                          }
                                        ]
                                      },
                                      "geometryCrop0" : 0.0,
                                      "geometryCrop1" : 0.0,
                                      "geometryCrop2" : 0.0,
                                      "geometryCrop3" : 0.0
                                    },
                                    "effects" : [

                                    ],
                                    "start" : 0,
                                    "duration" : 2187360000,
                                    "mediaStart" : 0,
                                    "mediaDuration" : 2187360000,
                                    "scalar" : 1,
                                    "metadata" : {
                                      "AppliedThemeId" : "",
                                      "clipSpeedAttribute" : false,
                                      "effectApplied" : "none"
                                    },
                                    "animationTracks" : {
                                      "visual" : [
                                        {
                                          "endTime" : 423360000,
                                          "duration" : 423360000,
                                          "range" : [ 0, 423360000],
                                          "interp" : "eioe"
                                        },
                                        {
                                          "endTime" : 3504480000,
                                          "duration" : 446880000,
                                          "range" : [ 3057600000, 446880000],
                                          "interp" : "eioe"
                                        }
                                      ]
                                    }
                                  }
                                ],
                                  "ident" : "",
                                  "audioMuted" : false,
                                  "videoHidden" : false,
                                  "magnetic" : false,
                                  "matte" : 0,
                                  "solo" : false,
                                  "metadata" : {
                                    "IsLocked" : "False",
                                    "WinTrackHeight" : "56",
                                    "trackHeight" : "48"
                                  }
                              },
                              {
                                "trackIndex" : 1,
                                "medias" : [
                                  {
                                    "id" : 96,
                                    "_type" : "Callout",
                                    "def" : {
                                        "kind" : "remix",
                                        "shape" : "shape-rectangle",
                                        "style" : "urban",
                                        "fill-color-blue" : 1.0,
                                        "fill-color-green" : 1.0,
                                        "fill-color-opacity" : 1.0,
                                        "fill-color-red" : 1.0,
                                        "height" : 180.0,
                                        "stroke-color-blue" : 1.0,
                                        "stroke-color-green" : 1.0,
                                        "stroke-color-opacity" : 1.0,
                                        "stroke-color-red" : 1.0,
                                        "stroke-width" : 0.0,
                                        "width" : 240.0,
                                        "fill-style" : "solid",
                                        "stroke-style" : "solid"
                                    },
                                    "attributes" : {
                                      "ident" : "",
                                      "autoRotateText" : true
                                    },
                                    "parameters" : {
                                      "translation0" : {
                                        "type" : "double",
                                        "defaultValue" : 59.0,
                                        "keyframes" : [
                                          {
                                            "endTime" : 423360000,
                                            "time" : 0,
                                            "value" : 359.0,
                                            "interp" : "eioe",
                                            "duration" : 423360000
                                          },
                                          {
                                            "endTime" : 3504480000,
                                            "time" : 3057600000,
                                            "value" : 59.0,
                                            "interp" : "eioe",
                                            "duration" : 446880000
                                          }
                                        ]
                                      },
                                      "translation1" : {
                                        "type" : "double",
                                        "defaultValue" : -150.5,
                                        "keyframes" : [
                                          {
                                            "endTime" : 423360000,
                                            "time" : 0,
                                            "value" : -150.5,
                                            "interp" : "eioe",
                                            "duration" : 423360000
                                          },
                                          {
                                            "endTime" : 3504480000,
                                            "time" : 3057600000,
                                            "value" : -150.5,
                                            "interp" : "eioe",
                                            "duration" : 446880000
                                          }
                                        ]
                                      },
                                      "rotation2" : {
                                        "type" : "double",
                                        "defaultValue" : 0.785398163397446,
                                        "keyframes" : [
                                          {
                                            "endTime" : 423360000,
                                            "time" : 0,
                                            "value" : 0.785398163397446,
                                            "interp" : "eioe",
                                            "duration" : 423360000
                                          },
                                          {
                                            "endTime" : 3504480000,
                                            "time" : 3057600000,
                                            "value" : 0.785398163397446,
                                            "interp" : "eioe",
                                            "duration" : 446880000
                                          }
                                        ]
                                      },
                                      "geometryCrop0" : 0.0,
                                      "geometryCrop1" : 0.0,
                                      "geometryCrop2" : 0.0,
                                      "geometryCrop3" : 0.0
                                    },
                                    "effects" : [

                                    ],
                                    "start" : 0,
                                    "duration" : 2187360000,
                                    "mediaStart" : 0,
                                    "mediaDuration" : 2187360000,
                                    "scalar" : 1,
                                    "metadata" : {
                                      "AppliedThemeId" : "",
                                      "clipSpeedAttribute" : false,
                                      "effectApplied" : "none"
                                    },
                                    "animationTracks" : {
                                      "visual" : [
                                        {
                                          "endTime" : 423360000,
                                          "duration" : 423360000,
                                          "range" : [ 0, 423360000],
                                          "interp" : "eioe"
                                        },
                                        {
                                          "endTime" : 3504480000,
                                          "duration" : 446880000,
                                          "range" : [ 3057600000, 446880000],
                                          "interp" : "eioe"
                                        }
                                      ]
                                    }
                                  }
                                ],
                                  "ident" : "",
                                  "audioMuted" : false,
                                  "videoHidden" : false,
                                  "magnetic" : false,
                                  "matte" : 0,
                                  "solo" : false,
                                  "metadata" : {
                                    "IsLocked" : "False",
                                    "WinTrackHeight" : "56",
                                    "trackHeight" : "48"
                                  }
                              }
                            ],
                            "attributes" : {
                              "ident" : "Group 2",
                              "widthAttr" : 1014.98,
                              "heightAttr" : 597.985,
                              "gain" : 1.0,
                              "mixToMono" : false
                            },
                            "effects" : [

                            ],
                            "start" : 0,
                            "duration" : 2187360000,
                            "mediaStart" : 0.0,
                            "mediaDuration" : 2187360000.0,
                            "scalar" : 1,
                            "metadata" : {
                              "IsGroupExpanded" : "False",
                              "clipSpeedAttribute" : false,
                              "effectApplied" : "none",
                              "isOpen" : false
                            },
                            "animationTracks" : {

                            }
                          }
                        ],
                          "ident" : "",
                          "audioMuted" : false,
                          "videoHidden" : false,
                          "magnetic" : false,
                          "matte" : 2,
                          "solo" : false,
                          "metadata" : {
                            "IsLocked" : "False",
                            "WinTrackHeight" : "56",
                            "trackHeight" : "48"
                          }
                      },
                      {
                        "trackIndex" : 2,
                        "medias" : [
                          {
                            "id" : 97,
                            "_type" : "Callout",
                            "def" : {
                                "kind" : "remix",
                                "shape" : "text",
                                "style" : "urban",
                                "enable-ligatures" : 1.0,
                                "height" : 238.762499957998,
                                "line-spacing" : 0.0,
                                "width" : 536.563582999083,
                                "word-wrap" : 1.0,
                                "horizontal-alignment" : "left",
                                "resize-behavior" : "resizeText",
                                "text" : "Deleting a Pizza",
                                "vertical-alignment" : "center",
                                "font" : {
                                  "color-blue" : 1.0,
                                  "color-green" : 1.0,
                                  "color-red" : 1.0,
                                  "size" : 70.0,
                                  "tracking" : 0.0,
                                  "name" : "Dosis",
                                  "weight" : "Semi Bold"
                                },
                                "textAttributes" : {
                                  "type" : "textAttributeList",
                                  "keyframes" : [
                                    {
                                      "endTime" : 0,
                                      "time" : 0,
                                      "value" : [{"name":"strikethrough","rangeEnd":16,"rangeStart":0,"value":0,"valueType":"int"},{"name":"fontName","rangeEnd":16,"rangeStart":0,"value":"Oswald","valueType":"string"},{"name":"fgColor","rangeEnd":16,"rangeStart":0,"value":"(255,255,255,255)","valueType":"color"},{"name":"fontWeight","rangeEnd":16,"rangeStart":0,"value":400,"valueType":"int"},{"name":"fontItalic","rangeEnd":16,"rangeStart":0,"value":0,"valueType":"int"},{"name":"underline","rangeEnd":16,"rangeStart":0,"value":0,"valueType":"int"},{"name":"kerning","rangeEnd":16,"rangeStart":0,"value":0.0,"valueType":"double"},{"name":"fontSize","rangeEnd":16,"rangeStart":0,"value":70.0,"valueType":"double"}],
                                      "duration" : 0
                                    }
                                  ]
                                }
                            },
                            "attributes" : {
                              "ident" : "",
                              "autoRotateText" : true
                            },
                            "parameters" : {
                              "translation0" : 24.8574217978768,
                              "translation1" : -30.612442639549,
                              "geometryCrop0" : 0.0,
                              "geometryCrop1" : 0.0,
                              "geometryCrop2" : 0.0,
                              "geometryCrop3" : 0.0
                            },
                            "effects" : [
                                {
                                  "_type" : "GenericBehaviorEffect",
                                  "effectName" : "scale",
                                  "bypassed" : false,
                                  "start" : -1058400000,
                                  "duration" : 2916480000                                ,
                                  "in" : {
                                    "attributes" : {
                                      "name" : "grow",
                                      "type" : 1,
                                      "characterOrder" : 6,
                                      "offsetBetweenCharacters" : 23520000,
                                      "suggestedDurationPerCharacter" : 423360000,
                                      "overlapProportion" : "3/4",
                                      "movement" : 30,
                                      "springDamping" : 5.0,
                                      "springStiffness" : 50.0,
                                      "bounceBounciness" : 0.45
                                    }
                                  
                                  },
                                  "center" : {
                                    "attributes" : {
                                      "name" : "none",
                                      "type" : 1,
                                      "characterOrder" : 6,
                                      "offsetBetweenCharacters" : 0,
                                      "secondsPerLoop" : 1,
                                      "numberOfLoops" : -1,
                                      "delayBetweenLoops" : 0
                                    }
                                  
                                  },
                                  "out" : {
                                    "attributes" : {
                                      "name" : "shrink",
                                      "type" : 1,
                                      "characterOrder" : 6,
                                      "offsetBetweenCharacters" : 23520000,
                                      "suggestedDurationPerCharacter" : 341040000,
                                      "overlapProportion" : "1/10",
                                      "movement" : 11,
                                      "springDamping" : 5.0,
                                      "springStiffness" : 50.0,
                                      "bounceBounciness" : 0.45
                                    }
                                  
                                  }
                                }
                            ],
                            "start" : 305760000,
                            "duration" : 2916480000,
                            "mediaStart" : -1058400000,
                            "mediaDuration" : 2916480000,
                            "scalar" : 1,
                            "metadata" : {
                              "AppliedThemeId" : "",
                              "clipSpeedAttribute" : false,
                              "effectApplied" : "scale"
                            },
                            "animationTracks" : {

                            }
                          }
                        ],
                          "ident" : "",
                          "audioMuted" : false,
                          "videoHidden" : false,
                          "magnetic" : false,
                          "matte" : 0,
                          "solo" : false,
                          "metadata" : {
                            "IsLocked" : "False",
                            "WinTrackHeight" : "56",
                            "trackHeight" : "48"
                          }
                      },
                      {
                        "trackIndex" : 3,
                        "medias" : [
                        ],
                          "ident" : "",
                          "audioMuted" : false,
                          "videoHidden" : false,
                          "magnetic" : false,
                          "matte" : 0,
                          "solo" : false,
                          "metadata" : {
                            "IsLocked" : "False",
                            "WinTrackHeight" : "56",
                            "trackHeight" : "48"
                          }
                      }
                    ],
                    "attributes" : {
                      "ident" : "Tech Topic",
                      "widthAttr" : 1920.0,
                      "heightAttr" : 1080.0,
                      "gain" : 1.0,
                      "mixToMono" : false,
                      "assetProperties" : [
                        {
                          "type" : 0,
                          "name" : "Feature Text",
                          "objects" : [ 97 ],
                          "themeMappings" :  {
                            "font-color" : "foreground-1",
                            "font-family" : "font-1"
                          }
                        },
                        {
                          "type" : 1,
                          "name" : "BACKGROUND",
                          "objects" : [ 92 ],
                          "themeMappings" :  {
                            "fill" : "background-1"
                          }
                        },
                        {
                          "type" : 1,
                          "name" : "ACCENT",
                          "objects" : [ 93 ],
                          "themeMappings" :  {
                            "fill" : "accent-1"
                          }
                        }
                      ]
                    },
                    "effects" : [

                    ],
                    "start" : 36644160000,
                    "duration" : 2187360000,
                    "mediaStart" : 0.0,
                    "mediaDuration" : 2187360000.0,
                    "scalar" : 1,
                    "metadata" : {
                      "AppliedThemeId" : "",
                      "IsGroupExpanded" : "False",
                      "clipSpeedAttribute" : false,
                      "effectApplied" : "none",
                      "isOpen" : false
                    },
                    "animationTracks" : {

                    }
                  },
                  {
                    "id" : 98,
                    "_type" : "StitchedMedia",
                    "minMediaStart" : 0,
                    "attributes" : {
                      "ident" : "screenrecording",
                      "gain" : 1.0,
                      "mixToMono" : false,
                      "loudnessNormalization" : true,
                      "sourceFileOffset" : 0
                    },
                    "parameters" : {
                      "geometryCrop0" : 0.0,
                      "geometryCrop1" : 0.0,
                      "geometryCrop2" : 0.0,
                      "geometryCrop3" : 0.0,
                      "volume" : 1.0,
                      "smoothCursorAcrossEditDuration" : 0
                    },
                    "medias" : [
                        {
                          "id" : 99,
                          "_type" : "UnifiedMedia",
                          "video" : 
                              {
                                "id" : 100,
                                "_type" : "VMFile",
                                "src" : 5,
                                "trackNumber" : 0,
                                "attributes" : {
                                  "ident" : "screenrecording"
                                },
                                "parameters" : {
                                  "geometryCrop0" : 0.0,
                                  "geometryCrop1" : 0.0,
                                  "geometryCrop2" : 0.0,
                                  "geometryCrop3" : 0.0
                                },
                                "effects" : [

                                ],
                                "start" : 0,
                                "duration" : 4751040000,
                                "mediaStart" : 0,
                                "mediaDuration" : 4751040000,
                                "scalar" : 1,
                                "animationTracks" : {

                                }
                              },
                          "audio" : 
                              {
                                "id" : 101,
                                "_type" : "AMFile",
                                "src" : 5,
                                "trackNumber" : 1,
                                "attributes" : {
                                  "ident" : "",
                                  "gain" : 1.0,
                                  "mixToMono" : false,
                                  "loudnessNormalization" : true,
                                  "sourceFileOffset" : 0
                                },
                                  "channelNumber" : "0,1",
                                "effects" : [

                                ],
                                "start" : 0,
                                "duration" : 4751040000,
                                "mediaStart" : 0,
                                "mediaDuration" : 4751040000,
                                "scalar" : 1,
                                "animationTracks" : {

                                }
                              }
,
                          "start" : 0,
                          "duration" : 4751040000,
                          "mediaStart" : 0,
                          "mediaDuration" : 4751040000,
                          "scalar" : 1,
                          "metadata" : {
                            "clipSpeedAttribute" : false
                          }
                        },
                        {
                          "id" : 102,
                          "_type" : "UnifiedMedia",
                          "video" : 
                              {
                                "id" : 103,
                                "_type" : "VMFile",
                                "src" : 5,
                                "trackNumber" : 0,
                                "attributes" : {
                                  "ident" : "screenrecording"
                                },
                                "parameters" : {
                                  "geometryCrop0" : 0.0,
                                  "geometryCrop1" : 0.0,
                                  "geometryCrop2" : 0.0,
                                  "geometryCrop3" : 0.0
                                },
                                "effects" : [

                                ],
                                "start" : 4751040000,
                                "duration" : 117976320000,
                                "mediaStart" : 5244960000,
                                "mediaDuration" : 117976320000,
                                "scalar" : 1,
                                "animationTracks" : {

                                }
                              },
                          "audio" : 
                              {
                                "id" : 104,
                                "_type" : "AMFile",
                                "src" : 5,
                                "trackNumber" : 1,
                                "attributes" : {
                                  "ident" : "",
                                  "gain" : 1.0,
                                  "mixToMono" : false,
                                  "loudnessNormalization" : true,
                                  "sourceFileOffset" : 0
                                },
                                  "channelNumber" : "0,1",
                                "effects" : [

                                ],
                                "start" : 4751040000,
                                "duration" : 117976320000,
                                "mediaStart" : 5244960000,
                                "mediaDuration" : 117976320000,
                                "scalar" : 1,
                                "animationTracks" : {

                                }
                              }
,
                          "start" : 4751040000,
                          "duration" : 117976320000,
                          "mediaStart" : 5244960000,
                          "mediaDuration" : 117976320000,
                          "scalar" : 1,
                          "metadata" : {
                            "clipSpeedAttribute" : false
                          }
                        }
                    ],
                    "effects" : [

                    ],
                    "start" : 38831520000,
                    "duration" : 4210080000,
                    "mediaStart" : 46099200000,
                    "mediaDuration" : 4210080000,
                    "scalar" : 1,
                    "metadata" : {
                      "clipSpeedAttribute" : false
                    },
                    "animationTracks" : {

                    }
                  },
                  {
                    "id" : 105,
                    "_type" : "Group",
                    "parameters" : {
                      "scale0" : 1.42052974098668,
                      "scale1" : 1.42052974098668,
                      "geometryCrop0" : 0.0,
                      "geometryCrop1" : 0.0,
                      "geometryCrop2" : 0.0,
                      "geometryCrop3" : 0.0,
                      "volume" : 1.0
                    },
                    "tracks" : [
                      {
                        "trackIndex" : 0,
                        "medias" : [
                          {
                            "id" : 106,
                            "_type" : "Group",
                            "parameters" : {
                              "translation0" : 25.8897257495158,
                              "translation1" : 0.557798165143993,
                              "geometryCrop0" : 0.0,
                              "geometryCrop1" : 0.0,
                              "geometryCrop2" : 0.0,
                              "geometryCrop3" : 0.0,
                              "volume" : 1.0
                            },
                            "tracks" : [
                              {
                                "trackIndex" : 0,
                                "medias" : [
                                  {
                                    "id" : 107,
                                    "_type" : "Callout",
                                    "def" : {
                                        "kind" : "remix",
                                        "shape" : "shape-rectangle",
                                        "style" : "urban",
                                        "fill-color-blue" : {
                                          "type" : "double",
                                          "defaultValue" : 0.286274509803922,
                                          "keyframes" : [
                                            {
                                              "endTime" : 399840000,
                                              "time" : 0,
                                              "value" : 0.286274509803922,
                                              "interp" : "eioe",
                                              "duration" : 399840000
                                            },
                                            {
                                              "endTime" : 3504480000,
                                              "time" : 3034080000,
                                              "value" : 0.286274509803922,
                                              "interp" : "eioe",
                                              "duration" : 470400000
                                            }
                                          ]
                                        },
                                        "fill-color-green" : {
                                          "type" : "double",
                                          "defaultValue" : 0.211764705882353,
                                          "keyframes" : [
                                            {
                                              "endTime" : 399840000,
                                              "time" : 0,
                                              "value" : 0.211764705882353,
                                              "interp" : "eioe",
                                              "duration" : 399840000
                                            },
                                            {
                                              "endTime" : 3504480000,
                                              "time" : 3034080000,
                                              "value" : 0.211764705882353,
                                              "interp" : "eioe",
                                              "duration" : 470400000
                                            }
                                          ]
                                        },
                                        "fill-color-opacity" : 1.0,
                                        "fill-color-red" : {
                                          "type" : "double",
                                          "defaultValue" : 0.172549019607843,
                                          "keyframes" : [
                                            {
                                              "endTime" : 399840000,
                                              "time" : 0,
                                              "value" : 0.172549019607843,
                                              "interp" : "eioe",
                                              "duration" : 399840000
                                            },
                                            {
                                              "endTime" : 3504480000,
                                              "time" : 3034080000,
                                              "value" : 0.172549019607843,
                                              "interp" : "eioe",
                                              "duration" : 470400000
                                            }
                                          ]
                                        },
                                        "height" : {
                                          "type" : "double",
                                          "defaultValue" : 144.077255018348,
                                          "keyframes" : [
                                            {
                                              "endTime" : 399840000,
                                              "time" : 0,
                                              "value" : 144.077255102329,
                                              "interp" : "eioe",
                                              "duration" : 399840000
                                            },
                                            {
                                              "endTime" : 3504480000,
                                              "time" : 3034080000,
                                              "value" : 144.077255018348,
                                              "interp" : "eioe",
                                              "duration" : 470400000
                                            }
                                          ]
                                        },
                                        "stroke-color-blue" : 1.0,
                                        "stroke-color-green" : 1.0,
                                        "stroke-color-opacity" : 1.0,
                                        "stroke-color-red" : 1.0,
                                        "stroke-width" : 0.0,
                                        "width" : {
                                          "type" : "double",
                                          "defaultValue" : 0.999999999999773,
                                          "keyframes" : [
                                            {
                                              "endTime" : 399840000,
                                              "time" : 0,
                                              "value" : 607.452331542969,
                                              "interp" : "eioe",
                                              "duration" : 399840000
                                            },
                                            {
                                              "endTime" : 3504480000,
                                              "time" : 3034080000,
                                              "value" : 0.999999999999773,
                                              "interp" : "eioe",
                                              "duration" : 470400000
                                            }
                                          ]
                                        },
                                        "fill-style" : "solid",
                                        "stroke-style" : "solid"
                                    },
                                    "attributes" : {
                                      "ident" : "",
                                      "autoRotateText" : true
                                    },
                                    "parameters" : {
                                      "translation0" : {
                                        "type" : "double",
                                        "defaultValue" : 0.0,
                                        "keyframes" : [
                                          {
                                            "endTime" : 399840000,
                                            "time" : 0,
                                            "value" : 0.0,
                                            "interp" : "eioe",
                                            "duration" : 399840000
                                          }
                                        ]
                                      },
                                      "translation1" : {
                                        "type" : "double",
                                        "defaultValue" : -48.5128632325269,
                                        "keyframes" : [
                                          {
                                            "endTime" : 399840000,
                                            "time" : 0,
                                            "value" : -48.5128632325269,
                                            "interp" : "eioe",
                                            "duration" : 399840000
                                          },
                                          {
                                            "endTime" : 3504480000,
                                            "time" : 3034080000,
                                            "value" : -48.5128632325269,
                                            "interp" : "eioe",
                                            "duration" : 470400000
                                          }
                                        ]
                                      },
                                      "geometryCrop0" : 0.0,
                                      "geometryCrop1" : 0.0,
                                      "geometryCrop2" : 0.0,
                                      "geometryCrop3" : 0.0
                                    },
                                    "effects" : [

                                    ],
                                    "start" : 0,
                                    "duration" : 2187360000,
                                    "mediaStart" : 0,
                                    "mediaDuration" : 2187360000,
                                    "scalar" : 1,
                                    "metadata" : {
                                      "AppliedThemeId" : "",
                                      "clipSpeedAttribute" : false,
                                      "effectApplied" : "none"
                                    },
                                    "animationTracks" : {
                                      "visual" : [
                                        {
                                          "endTime" : 399840000,
                                          "duration" : 399840000,
                                          "range" : [ 0, 399840000],
                                          "interp" : "eioe"
                                        },
                                        {
                                          "endTime" : 3504480000,
                                          "duration" : 470400000,
                                          "range" : [ 3034080000, 470400000],
                                          "interp" : "eioe"
                                        }
                                      ]
                                    }
                                  }
                                ],
                                  "ident" : "",
                                  "audioMuted" : false,
                                  "videoHidden" : false,
                                  "magnetic" : false,
                                  "matte" : 0,
                                  "solo" : false,
                                  "metadata" : {
                                    "IsLocked" : "False",
                                    "WinTrackHeight" : "56",
                                    "trackHeight" : "48"
                                  }
                              },
                              {
                                "trackIndex" : 1,
                                "medias" : [
                                  {
                                    "id" : 108,
                                    "_type" : "Callout",
                                    "def" : {
                                        "kind" : "remix",
                                        "shape" : "shape-rectangle",
                                        "style" : "urban",
                                        "fill-color-blue" : {
                                          "type" : "double",
                                          "defaultValue" : 0.650980392156863,
                                          "keyframes" : [
                                            {
                                              "endTime" : 399840000,
                                              "time" : 0,
                                              "value" : 0.650980392156863,
                                              "interp" : "eioe",
                                              "duration" : 399840000
                                            },
                                            {
                                              "endTime" : 3504480000,
                                              "time" : 3034080000,
                                              "value" : 0.650980392156863,
                                              "interp" : "eioe",
                                              "duration" : 470400000
                                            }
                                          ]
                                        },
                                        "fill-color-green" : {
                                          "type" : "double",
                                          "defaultValue" : 0.184313725490196,
                                          "keyframes" : [
                                            {
                                              "endTime" : 399840000,
                                              "time" : 0,
                                              "value" : 0.184313725490196,
                                              "interp" : "eioe",
                                              "duration" : 399840000
                                            },
                                            {
                                              "endTime" : 3504480000,
                                              "time" : 3034080000,
                                              "value" : 0.184313725490196,
                                              "interp" : "eioe",
                                              "duration" : 470400000
                                            }
                                          ]
                                        },
                                        "fill-color-opacity" : 1.0,
                                        "fill-color-red" : {
                                          "type" : "double",
                                          "defaultValue" : 0.172549019607843,
                                          "keyframes" : [
                                            {
                                              "endTime" : 399840000,
                                              "time" : 0,
                                              "value" : 0.172549019607843,
                                              "interp" : "eioe",
                                              "duration" : 399840000
                                            },
                                            {
                                              "endTime" : 3504480000,
                                              "time" : 3034080000,
                                              "value" : 0.172549019607843,
                                              "interp" : "eioe",
                                              "duration" : 470400000
                                            }
                                          ]
                                        },
                                        "height" : {
                                          "type" : "double",
                                          "defaultValue" : 26.2267330256883,
                                          "keyframes" : [
                                            {
                                              "endTime" : 399840000,
                                              "time" : 0,
                                              "value" : 26.2267331096697,
                                              "interp" : "eioe",
                                              "duration" : 399840000
                                            },
                                            {
                                              "endTime" : 3504480000,
                                              "time" : 3034080000,
                                              "value" : 26.2267330256883,
                                              "interp" : "eioe",
                                              "duration" : 470400000
                                            }
                                          ]
                                        },
                                        "stroke-color-blue" : 1.0,
                                        "stroke-color-green" : 1.0,
                                        "stroke-color-opacity" : 1.0,
                                        "stroke-color-red" : 1.0,
                                        "stroke-width" : 0.0,
                                        "width" : {
                                          "type" : "double",
                                          "defaultValue" : 1.0,
                                          "keyframes" : [
                                            {
                                              "endTime" : 399840000,
                                              "time" : 0,
                                              "value" : 607.452331542969,
                                              "interp" : "eioe",
                                              "duration" : 399840000
                                            },
                                            {
                                              "endTime" : 3504480000,
                                              "time" : 3034080000,
                                              "value" : 1.0,
                                              "interp" : "eioe",
                                              "duration" : 470400000
                                            }
                                          ]
                                        },
                                        "fill-style" : "gradient",
                                        "stroke-style" : "solid"
                                    },
                                    "attributes" : {
                                      "ident" : "",
                                      "autoRotateText" : true
                                    },
                                    "parameters" : {
                                      "translation0" : {
                                        "type" : "double",
                                        "defaultValue" : 0.0,
                                        "keyframes" : [
                                          {
                                            "endTime" : 399840000,
                                            "time" : 0,
                                            "value" : 0.0,
                                            "interp" : "eioe",
                                            "duration" : 399840000
                                          }
                                        ]
                                      },
                                      "translation1" : {
                                        "type" : "double",
                                        "defaultValue" : -107.438124228857,
                                        "keyframes" : [
                                          {
                                            "endTime" : 399840000,
                                            "time" : 0,
                                            "value" : -107.438124228857,
                                            "interp" : "eioe",
                                            "duration" : 399840000
                                          }
                                        ]
                                      },
                                      "geometryCrop0" : 0.0,
                                      "geometryCrop1" : 0.0,
                                      "geometryCrop2" : 0.0,
                                      "geometryCrop3" : 0.0
                                    },
                                    "effects" : [

                                    ],
                                    "start" : 0,
                                    "duration" : 2187360000,
                                    "mediaStart" : 0,
                                    "mediaDuration" : 2187360000,
                                    "scalar" : 1,
                                    "metadata" : {
                                      "AppliedThemeId" : "",
                                      "clipSpeedAttribute" : false,
                                      "effectApplied" : "none"
                                    },
                                    "animationTracks" : {
                                      "visual" : [
                                        {
                                          "endTime" : 399840000,
                                          "duration" : 399840000,
                                          "range" : [ 0, 399840000],
                                          "interp" : "eioe"
                                        },
                                        {
                                          "endTime" : 3504480000,
                                          "duration" : 470400000,
                                          "range" : [ 3034080000, 470400000],
                                          "interp" : "eioe"
                                        }
                                      ]
                                    }
                                  }
                                ],
                                  "ident" : "",
                                  "audioMuted" : false,
                                  "videoHidden" : false,
                                  "magnetic" : false,
                                  "matte" : 0,
                                  "solo" : false,
                                  "metadata" : {
                                    "IsLocked" : "False",
                                    "WinTrackHeight" : "56",
                                    "trackHeight" : "48"
                                  }
                              }
                            ],
                            "attributes" : {
                              "ident" : "Group 2-2",
                              "widthAttr" : 607.452,
                              "heightAttr" : 241.103,
                              "gain" : 1.0,
                              "mixToMono" : false
                            },
                            "effects" : [

                            ],
                            "start" : 0,
                            "duration" : 2187360000,
                            "mediaStart" : 0.0,
                            "mediaDuration" : 2187360000.0,
                            "scalar" : 1,
                            "metadata" : {
                              "IsGroupExpanded" : "False",
                              "clipSpeedAttribute" : false,
                              "effectApplied" : "none",
                              "isOpen" : false
                            },
                            "animationTracks" : {

                            }
                          }
                        ],
                          "ident" : "",
                          "audioMuted" : false,
                          "videoHidden" : false,
                          "magnetic" : false,
                          "matte" : 0,
                          "solo" : false,
                          "metadata" : {
                            "IsLocked" : "False",
                            "WinTrackHeight" : "56",
                            "trackHeight" : "48"
                          }
                      },
                      {
                        "trackIndex" : 1,
                        "medias" : [
                          {
                            "id" : 109,
                            "_type" : "Group",
                            "parameters" : {
                              "translation0" : 30.4878048779248,
                              "geometryCrop0" : 0.0,
                              "geometryCrop1" : 0.0,
                              "geometryCrop2" : 0.0,
                              "geometryCrop3" : 0.0,
                              "volume" : 1.0
                            },
                            "tracks" : [
                              {
                                "trackIndex" : 0,
                                "medias" : [
                                  {
                                    "id" : 110,
                                    "_type" : "Callout",
                                    "def" : {
                                        "kind" : "remix",
                                        "shape" : "shape-rectangle",
                                        "style" : "urban",
                                        "fill-color-blue" : 1.0,
                                        "fill-color-green" : 1.0,
                                        "fill-color-opacity" : 1.0,
                                        "fill-color-red" : 1.0,
                                        "height" : 180.0,
                                        "stroke-color-blue" : 1.0,
                                        "stroke-color-green" : 1.0,
                                        "stroke-color-opacity" : 1.0,
                                        "stroke-color-red" : 1.0,
                                        "stroke-width" : 0.0,
                                        "width" : 240.0,
                                        "fill-style" : "solid",
                                        "stroke-style" : "solid"
                                    },
                                    "attributes" : {
                                      "ident" : "",
                                      "autoRotateText" : true
                                    },
                                    "parameters" : {
                                      "translation0" : {
                                        "type" : "double",
                                        "defaultValue" : -49.0,
                                        "keyframes" : [
                                          {
                                            "endTime" : 423360000,
                                            "time" : 0,
                                            "value" : -339.0,
                                            "interp" : "eioe",
                                            "duration" : 423360000
                                          },
                                          {
                                            "endTime" : 3504480000,
                                            "time" : 3057600000,
                                            "value" : -49.0,
                                            "interp" : "eioe",
                                            "duration" : 446880000
                                          }
                                        ]
                                      },
                                      "translation1" : {
                                        "type" : "double",
                                        "defaultValue" : 70.5,
                                        "keyframes" : [
                                          {
                                            "endTime" : 423360000,
                                            "time" : 0,
                                            "value" : 70.5,
                                            "interp" : "eioe",
                                            "duration" : 423360000
                                          },
                                          {
                                            "endTime" : 3504480000,
                                            "time" : 3057600000,
                                            "value" : 70.5,
                                            "interp" : "eioe",
                                            "duration" : 446880000
                                          }
                                        ]
                                      },
                                      "rotation2" : {
                                        "type" : "double",
                                        "defaultValue" : 0.785398163397446,
                                        "keyframes" : [
                                          {
                                            "endTime" : 423360000,
                                            "time" : 0,
                                            "value" : 0.785398163397446,
                                            "interp" : "eioe",
                                            "duration" : 423360000
                                          },
                                          {
                                            "endTime" : 3504480000,
                                            "time" : 3057600000,
                                            "value" : 0.785398163397446,
                                            "interp" : "eioe",
                                            "duration" : 446880000
                                          }
                                        ]
                                      },
                                      "geometryCrop0" : 0.0,
                                      "geometryCrop1" : 0.0,
                                      "geometryCrop2" : 0.0,
                                      "geometryCrop3" : 0.0
                                    },
                                    "effects" : [

                                    ],
                                    "start" : 0,
                                    "duration" : 2187360000,
                                    "mediaStart" : 0,
                                    "mediaDuration" : 2187360000,
                                    "scalar" : 1,
                                    "metadata" : {
                                      "AppliedThemeId" : "",
                                      "clipSpeedAttribute" : false,
                                      "effectApplied" : "none"
                                    },
                                    "animationTracks" : {
                                      "visual" : [
                                        {
                                          "endTime" : 423360000,
                                          "duration" : 423360000,
                                          "range" : [ 0, 423360000],
                                          "interp" : "eioe"
                                        },
                                        {
                                          "endTime" : 3504480000,
                                          "duration" : 446880000,
                                          "range" : [ 3057600000, 446880000],
                                          "interp" : "eioe"
                                        }
                                      ]
                                    }
                                  }
                                ],
                                  "ident" : "",
                                  "audioMuted" : false,
                                  "videoHidden" : false,
                                  "magnetic" : false,
                                  "matte" : 0,
                                  "solo" : false,
                                  "metadata" : {
                                    "IsLocked" : "False",
                                    "WinTrackHeight" : "56",
                                    "trackHeight" : "48"
                                  }
                              },
                              {
                                "trackIndex" : 1,
                                "medias" : [
                                  {
                                    "id" : 111,
                                    "_type" : "Callout",
                                    "def" : {
                                        "kind" : "remix",
                                        "shape" : "shape-rectangle",
                                        "style" : "urban",
                                        "fill-color-blue" : 1.0,
                                        "fill-color-green" : 1.0,
                                        "fill-color-opacity" : 1.0,
                                        "fill-color-red" : 1.0,
                                        "height" : 180.0,
                                        "stroke-color-blue" : 1.0,
                                        "stroke-color-green" : 1.0,
                                        "stroke-color-opacity" : 1.0,
                                        "stroke-color-red" : 1.0,
                                        "stroke-width" : 0.0,
                                        "width" : 240.0,
                                        "fill-style" : "solid",
                                        "stroke-style" : "solid"
                                    },
                                    "attributes" : {
                                      "ident" : "",
                                      "autoRotateText" : true
                                    },
                                    "parameters" : {
                                      "translation0" : {
                                        "type" : "double",
                                        "defaultValue" : 59.0,
                                        "keyframes" : [
                                          {
                                            "endTime" : 423360000,
                                            "time" : 0,
                                            "value" : 359.0,
                                            "interp" : "eioe",
                                            "duration" : 423360000
                                          },
                                          {
                                            "endTime" : 3504480000,
                                            "time" : 3057600000,
                                            "value" : 59.0,
                                            "interp" : "eioe",
                                            "duration" : 446880000
                                          }
                                        ]
                                      },
                                      "translation1" : {
                                        "type" : "double",
                                        "defaultValue" : -150.5,
                                        "keyframes" : [
                                          {
                                            "endTime" : 423360000,
                                            "time" : 0,
                                            "value" : -150.5,
                                            "interp" : "eioe",
                                            "duration" : 423360000
                                          },
                                          {
                                            "endTime" : 3504480000,
                                            "time" : 3057600000,
                                            "value" : -150.5,
                                            "interp" : "eioe",
                                            "duration" : 446880000
                                          }
                                        ]
                                      },
                                      "rotation2" : {
                                        "type" : "double",
                                        "defaultValue" : 0.785398163397446,
                                        "keyframes" : [
                                          {
                                            "endTime" : 423360000,
                                            "time" : 0,
                                            "value" : 0.785398163397446,
                                            "interp" : "eioe",
                                            "duration" : 423360000
                                          },
                                          {
                                            "endTime" : 3504480000,
                                            "time" : 3057600000,
                                            "value" : 0.785398163397446,
                                            "interp" : "eioe",
                                            "duration" : 446880000
                                          }
                                        ]
                                      },
                                      "geometryCrop0" : 0.0,
                                      "geometryCrop1" : 0.0,
                                      "geometryCrop2" : 0.0,
                                      "geometryCrop3" : 0.0
                                    },
                                    "effects" : [

                                    ],
                                    "start" : 0,
                                    "duration" : 2187360000,
                                    "mediaStart" : 0,
                                    "mediaDuration" : 2187360000,
                                    "scalar" : 1,
                                    "metadata" : {
                                      "AppliedThemeId" : "",
                                      "clipSpeedAttribute" : false,
                                      "effectApplied" : "none"
                                    },
                                    "animationTracks" : {
                                      "visual" : [
                                        {
                                          "endTime" : 423360000,
                                          "duration" : 423360000,
                                          "range" : [ 0, 423360000],
                                          "interp" : "eioe"
                                        },
                                        {
                                          "endTime" : 3504480000,
                                          "duration" : 446880000,
                                          "range" : [ 3057600000, 446880000],
                                          "interp" : "eioe"
                                        }
                                      ]
                                    }
                                  }
                                ],
                                  "ident" : "",
                                  "audioMuted" : false,
                                  "videoHidden" : false,
                                  "magnetic" : false,
                                  "matte" : 0,
                                  "solo" : false,
                                  "metadata" : {
                                    "IsLocked" : "False",
                                    "WinTrackHeight" : "56",
                                    "trackHeight" : "48"
                                  }
                              }
                            ],
                            "attributes" : {
                              "ident" : "Group 2",
                              "widthAttr" : 1014.98,
                              "heightAttr" : 597.985,
                              "gain" : 1.0,
                              "mixToMono" : false
                            },
                            "effects" : [

                            ],
                            "start" : 0,
                            "duration" : 2187360000,
                            "mediaStart" : 0.0,
                            "mediaDuration" : 2187360000.0,
                            "scalar" : 1,
                            "metadata" : {
                              "IsGroupExpanded" : "False",
                              "clipSpeedAttribute" : false,
                              "effectApplied" : "none",
                              "isOpen" : false
                            },
                            "animationTracks" : {

                            }
                          }
                        ],
                          "ident" : "",
                          "audioMuted" : false,
                          "videoHidden" : false,
                          "magnetic" : false,
                          "matte" : 2,
                          "solo" : false,
                          "metadata" : {
                            "IsLocked" : "False",
                            "WinTrackHeight" : "56",
                            "trackHeight" : "48"
                          }
                      },
                      {
                        "trackIndex" : 2,
                        "medias" : [
                          {
                            "id" : 112,
                            "_type" : "Callout",
                            "def" : {
                                "kind" : "remix",
                                "shape" : "text",
                                "style" : "urban",
                                "enable-ligatures" : 1.0,
                                "height" : 238.762499957998,
                                "line-spacing" : 0.0,
                                "width" : 536.563582999083,
                                "word-wrap" : 1.0,
                                "horizontal-alignment" : "left",
                                "resize-behavior" : "resizeText",
                                "text" : "Form Validation",
                                "vertical-alignment" : "center",
                                "font" : {
                                  "color-blue" : 1.0,
                                  "color-green" : 1.0,
                                  "color-red" : 1.0,
                                  "size" : 70.0,
                                  "tracking" : 0.0,
                                  "name" : "Dosis",
                                  "weight" : "Semi Bold"
                                },
                                "textAttributes" : {
                                  "type" : "textAttributeList",
                                  "keyframes" : [
                                    {
                                      "endTime" : 0,
                                      "time" : 0,
                                      "value" : [{"name":"strikethrough","rangeEnd":15,"rangeStart":0,"value":0,"valueType":"int"},{"name":"fontName","rangeEnd":15,"rangeStart":0,"value":"Oswald","valueType":"string"},{"name":"fgColor","rangeEnd":15,"rangeStart":0,"value":"(255,255,255,255)","valueType":"color"},{"name":"fontWeight","rangeEnd":15,"rangeStart":0,"value":400,"valueType":"int"},{"name":"fontItalic","rangeEnd":15,"rangeStart":0,"value":0,"valueType":"int"},{"name":"underline","rangeEnd":15,"rangeStart":0,"value":0,"valueType":"int"},{"name":"kerning","rangeEnd":15,"rangeStart":0,"value":0.0,"valueType":"double"},{"name":"fontSize","rangeEnd":15,"rangeStart":0,"value":70.0,"valueType":"double"}],
                                      "duration" : 0
                                    }
                                  ]
                                }
                            },
                            "attributes" : {
                              "ident" : "",
                              "autoRotateText" : true
                            },
                            "parameters" : {
                              "translation0" : 24.8574217978768,
                              "translation1" : -30.612442639549,
                              "geometryCrop0" : 0.0,
                              "geometryCrop1" : 0.0,
                              "geometryCrop2" : 0.0,
                              "geometryCrop3" : 0.0
                            },
                            "effects" : [
                                {
                                  "_type" : "GenericBehaviorEffect",
                                  "effectName" : "scale",
                                  "bypassed" : false,
                                  "start" : -1058400000,
                                  "duration" : 2916480000                                ,
                                  "in" : {
                                    "attributes" : {
                                      "name" : "grow",
                                      "type" : 1,
                                      "characterOrder" : 6,
                                      "offsetBetweenCharacters" : 23520000,
                                      "suggestedDurationPerCharacter" : 423360000,
                                      "overlapProportion" : "3/4",
                                      "movement" : 30,
                                      "springDamping" : 5.0,
                                      "springStiffness" : 50.0,
                                      "bounceBounciness" : 0.45
                                    }
                                  
                                  },
                                  "center" : {
                                    "attributes" : {
                                      "name" : "none",
                                      "type" : 1,
                                      "characterOrder" : 6,
                                      "offsetBetweenCharacters" : 0,
                                      "secondsPerLoop" : 1,
                                      "numberOfLoops" : -1,
                                      "delayBetweenLoops" : 0
                                    }
                                  
                                  },
                                  "out" : {
                                    "attributes" : {
                                      "name" : "shrink",
                                      "type" : 1,
                                      "characterOrder" : 6,
                                      "offsetBetweenCharacters" : 23520000,
                                      "suggestedDurationPerCharacter" : 341040000,
                                      "overlapProportion" : "1/10",
                                      "movement" : 11,
                                      "springDamping" : 5.0,
                                      "springStiffness" : 50.0,
                                      "bounceBounciness" : 0.45
                                    }
                                  
                                  }
                                }
                            ],
                            "start" : 305760000,
                            "duration" : 2916480000,
                            "mediaStart" : -1058400000,
                            "mediaDuration" : 2916480000,
                            "scalar" : 1,
                            "metadata" : {
                              "AppliedThemeId" : "",
                              "clipSpeedAttribute" : false,
                              "effectApplied" : "scale"
                            },
                            "animationTracks" : {

                            }
                          }
                        ],
                          "ident" : "",
                          "audioMuted" : false,
                          "videoHidden" : false,
                          "magnetic" : false,
                          "matte" : 0,
                          "solo" : false,
                          "metadata" : {
                            "IsLocked" : "False",
                            "WinTrackHeight" : "56",
                            "trackHeight" : "48"
                          }
                      },
                      {
                        "trackIndex" : 3,
                        "medias" : [
                        ],
                          "ident" : "",
                          "audioMuted" : false,
                          "videoHidden" : false,
                          "magnetic" : false,
                          "matte" : 0,
                          "solo" : false,
                          "metadata" : {
                            "IsLocked" : "False",
                            "WinTrackHeight" : "56",
                            "trackHeight" : "48"
                          }
                      }
                    ],
                    "attributes" : {
                      "ident" : "Tech Topic",
                      "widthAttr" : 1920.0,
                      "heightAttr" : 1080.0,
                      "gain" : 1.0,
                      "mixToMono" : false,
                      "assetProperties" : [
                        {
                          "type" : 0,
                          "name" : "Feature Text",
                          "objects" : [ 112 ],
                          "themeMappings" :  {
                            "font-color" : "foreground-1",
                            "font-family" : "font-1"
                          }
                        },
                        {
                          "type" : 1,
                          "name" : "BACKGROUND",
                          "objects" : [ 107 ],
                          "themeMappings" :  {
                            "fill" : "background-1"
                          }
                        },
                        {
                          "type" : 1,
                          "name" : "ACCENT",
                          "objects" : [ 108 ],
                          "themeMappings" :  {
                            "fill" : "accent-1"
                          }
                        }
                      ]
                    },
                    "effects" : [

                    ],
                    "start" : 43041600000,
                    "duration" : 2187360000,
                    "mediaStart" : 0.0,
                    "mediaDuration" : 2187360000.0,
                    "scalar" : 1,
                    "metadata" : {
                      "AppliedThemeId" : "",
                      "IsGroupExpanded" : "False",
                      "clipSpeedAttribute" : false,
                      "effectApplied" : "none",
                      "isOpen" : false
                    },
                    "animationTracks" : {

                    }
                  },
                  {
                    "id" : 113,
                    "_type" : "StitchedMedia",
                    "minMediaStart" : 0,
                    "attributes" : {
                      "ident" : "screenrecording",
                      "gain" : 1.0,
                      "mixToMono" : false,
                      "loudnessNormalization" : true,
                      "sourceFileOffset" : 0
                    },
                    "parameters" : {
                      "geometryCrop0" : 0.0,
                      "geometryCrop1" : 0.0,
                      "geometryCrop2" : 0.0,
                      "geometryCrop3" : 0.0,
                      "volume" : 1.0,
                      "smoothCursorAcrossEditDuration" : 0
                    },
                    "medias" : [
                        {
                          "id" : 114,
                          "_type" : "UnifiedMedia",
                          "video" : 
                              {
                                "id" : 115,
                                "_type" : "VMFile",
                                "src" : 5,
                                "trackNumber" : 0,
                                "attributes" : {
                                  "ident" : "screenrecording"
                                },
                                "parameters" : {
                                  "geometryCrop0" : 0.0,
                                  "geometryCrop1" : 0.0,
                                  "geometryCrop2" : 0.0,
                                  "geometryCrop3" : 0.0
                                },
                                "effects" : [

                                ],
                                "start" : 0,
                                "duration" : 4751040000,
                                "mediaStart" : 0,
                                "mediaDuration" : 4751040000,
                                "scalar" : 1,
                                "animationTracks" : {

                                }
                              },
                          "audio" : 
                              {
                                "id" : 116,
                                "_type" : "AMFile",
                                "src" : 5,
                                "trackNumber" : 1,
                                "attributes" : {
                                  "ident" : "",
                                  "gain" : 1.0,
                                  "mixToMono" : false,
                                  "loudnessNormalization" : true,
                                  "sourceFileOffset" : 0
                                },
                                  "channelNumber" : "0,1",
                                "effects" : [

                                ],
                                "start" : 0,
                                "duration" : 4751040000,
                                "mediaStart" : 0,
                                "mediaDuration" : 4751040000,
                                "scalar" : 1,
                                "animationTracks" : {

                                }
                              }
,
                          "start" : 0,
                          "duration" : 4751040000,
                          "mediaStart" : 0,
                          "mediaDuration" : 4751040000,
                          "scalar" : 1,
                          "metadata" : {
                            "clipSpeedAttribute" : false
                          }
                        },
                        {
                          "id" : 117,
                          "_type" : "UnifiedMedia",
                          "video" : 
                              {
                                "id" : 118,
                                "_type" : "VMFile",
                                "src" : 5,
                                "trackNumber" : 0,
                                "attributes" : {
                                  "ident" : "screenrecording"
                                },
                                "parameters" : {
                                  "geometryCrop0" : 0.0,
                                  "geometryCrop1" : 0.0,
                                  "geometryCrop2" : 0.0,
                                  "geometryCrop3" : 0.0
                                },
                                "effects" : [

                                ],
                                "start" : 4751040000,
                                "duration" : 117976320000,
                                "mediaStart" : 5244960000,
                                "mediaDuration" : 117976320000,
                                "scalar" : 1,
                                "animationTracks" : {

                                }
                              },
                          "audio" : 
                              {
                                "id" : 119,
                                "_type" : "AMFile",
                                "src" : 5,
                                "trackNumber" : 1,
                                "attributes" : {
                                  "ident" : "",
                                  "gain" : 1.0,
                                  "mixToMono" : false,
                                  "loudnessNormalization" : true,
                                  "sourceFileOffset" : 0
                                },
                                  "channelNumber" : "0,1",
                                "effects" : [

                                ],
                                "start" : 4751040000,
                                "duration" : 117976320000,
                                "mediaStart" : 5244960000,
                                "mediaDuration" : 117976320000,
                                "scalar" : 1,
                                "animationTracks" : {

                                }
                              }
,
                          "start" : 4751040000,
                          "duration" : 117976320000,
                          "mediaStart" : 5244960000,
                          "mediaDuration" : 117976320000,
                          "scalar" : 1,
                          "metadata" : {
                            "clipSpeedAttribute" : false
                          }
                        }
                    ],
                    "effects" : [

                    ],
                    "start" : 45228960000,
                    "duration" : 4021920000,
                    "mediaStart" : 57694560000,
                    "mediaDuration" : 4021920000,
                    "scalar" : 1,
                    "metadata" : {
                      "clipSpeedAttribute" : false
                    },
                    "animationTracks" : {

                    }
                  },
                  {
                    "id" : 120,
                    "_type" : "StitchedMedia",
                    "minMediaStart" : 0,
                    "attributes" : {
                      "ident" : "screenrecording",
                      "gain" : 1.0,
                      "mixToMono" : false,
                      "loudnessNormalization" : true,
                      "sourceFileOffset" : 0
                    },
                    "parameters" : {
                      "geometryCrop0" : 0.0,
                      "geometryCrop1" : 0.0,
                      "geometryCrop2" : 0.0,
                      "geometryCrop3" : 0.0,
                      "volume" : 1.0,
                      "smoothCursorAcrossEditDuration" : 0
                    },
                    "medias" : [
                        {
                          "id" : 121,
                          "_type" : "UnifiedMedia",
                          "video" : 
                              {
                                "id" : 122,
                                "_type" : "VMFile",
                                "src" : 5,
                                "trackNumber" : 0,
                                "attributes" : {
                                  "ident" : "screenrecording"
                                },
                                "parameters" : {
                                  "geometryCrop0" : 0.0,
                                  "geometryCrop1" : 0.0,
                                  "geometryCrop2" : 0.0,
                                  "geometryCrop3" : 0.0
                                },
                                "effects" : [

                                ],
                                "start" : 0,
                                "duration" : 4751040000,
                                "mediaStart" : 0,
                                "mediaDuration" : 4751040000,
                                "scalar" : 1,
                                "animationTracks" : {

                                }
                              },
                          "audio" : 
                              {
                                "id" : 123,
                                "_type" : "AMFile",
                                "src" : 5,
                                "trackNumber" : 1,
                                "attributes" : {
                                  "ident" : "",
                                  "gain" : 1.0,
                                  "mixToMono" : false,
                                  "loudnessNormalization" : true,
                                  "sourceFileOffset" : 0
                                },
                                  "channelNumber" : "0,1",
                                "effects" : [

                                ],
                                "start" : 0,
                                "duration" : 4751040000,
                                "mediaStart" : 0,
                                "mediaDuration" : 4751040000,
                                "scalar" : 1,
                                "animationTracks" : {

                                }
                              }
,
                          "start" : 0,
                          "duration" : 4751040000,
                          "mediaStart" : 0,
                          "mediaDuration" : 4751040000,
                          "scalar" : 1,
                          "metadata" : {
                            "clipSpeedAttribute" : false
                          }
                        },
                        {
                          "id" : 124,
                          "_type" : "UnifiedMedia",
                          "video" : 
                              {
                                "id" : 125,
                                "_type" : "VMFile",
                                "src" : 5,
                                "trackNumber" : 0,
                                "attributes" : {
                                  "ident" : "screenrecording"
                                },
                                "parameters" : {
                                  "geometryCrop0" : 0.0,
                                  "geometryCrop1" : 0.0,
                                  "geometryCrop2" : 0.0,
                                  "geometryCrop3" : 0.0
                                },
                                "effects" : [

                                ],
                                "start" : 4751040000,
                                "duration" : 117976320000,
                                "mediaStart" : 5244960000,
                                "mediaDuration" : 117976320000,
                                "scalar" : 1,
                                "animationTracks" : {

                                }
                              },
                          "audio" : 
                              {
                                "id" : 126,
                                "_type" : "AMFile",
                                "src" : 5,
                                "trackNumber" : 1,
                                "attributes" : {
                                  "ident" : "",
                                  "gain" : 1.0,
                                  "mixToMono" : false,
                                  "loudnessNormalization" : true,
                                  "sourceFileOffset" : 0
                                },
                                  "channelNumber" : "0,1",
                                "effects" : [

                                ],
                                "start" : 4751040000,
                                "duration" : 117976320000,
                                "mediaStart" : 5244960000,
                                "mediaDuration" : 117976320000,
                                "scalar" : 1,
                                "animationTracks" : {

                                }
                              }
,
                          "start" : 4751040000,
                          "duration" : 117976320000,
                          "mediaStart" : 5244960000,
                          "mediaDuration" : 117976320000,
                          "scalar" : 1,
                          "metadata" : {
                            "clipSpeedAttribute" : false
                          }
                        }
                    ],
                    "effects" : [

                    ],
                    "start" : 49250880000,
                    "duration" : 4233600000,
                    "mediaStart" : 63692160000,
                    "mediaDuration" : 6350400000,
                    "scalar" : "2/3",
                    "metadata" : {
                      "clipSpeedAttribute" : true
                    },
                    "animationTracks" : {

                    }
                  },
                  {
                    "id" : 127,
                    "_type" : "Group",
                    "parameters" : {
                      "scale0" : 1.42052974098668,
                      "scale1" : 1.42052974098668,
                      "geometryCrop0" : 0.0,
                      "geometryCrop1" : 0.0,
                      "geometryCrop2" : 0.0,
                      "geometryCrop3" : 0.0,
                      "volume" : 1.0
                    },
                    "tracks" : [
                      {
                        "trackIndex" : 0,
                        "medias" : [
                          {
                            "id" : 128,
                            "_type" : "Group",
                            "parameters" : {
                              "translation0" : 25.8897257495158,
                              "translation1" : 0.557798165143993,
                              "geometryCrop0" : 0.0,
                              "geometryCrop1" : 0.0,
                              "geometryCrop2" : 0.0,
                              "geometryCrop3" : 0.0,
                              "volume" : 1.0
                            },
                            "tracks" : [
                              {
                                "trackIndex" : 0,
                                "medias" : [
                                  {
                                    "id" : 129,
                                    "_type" : "Callout",
                                    "def" : {
                                        "kind" : "remix",
                                        "shape" : "shape-rectangle",
                                        "style" : "urban",
                                        "fill-color-blue" : {
                                          "type" : "double",
                                          "defaultValue" : 0.286274509803922,
                                          "keyframes" : [
                                            {
                                              "endTime" : 399840000,
                                              "time" : 0,
                                              "value" : 0.286274509803922,
                                              "interp" : "eioe",
                                              "duration" : 399840000
                                            },
                                            {
                                              "endTime" : 3504480000,
                                              "time" : 3034080000,
                                              "value" : 0.286274509803922,
                                              "interp" : "eioe",
                                              "duration" : 470400000
                                            }
                                          ]
                                        },
                                        "fill-color-green" : {
                                          "type" : "double",
                                          "defaultValue" : 0.211764705882353,
                                          "keyframes" : [
                                            {
                                              "endTime" : 399840000,
                                              "time" : 0,
                                              "value" : 0.211764705882353,
                                              "interp" : "eioe",
                                              "duration" : 399840000
                                            },
                                            {
                                              "endTime" : 3504480000,
                                              "time" : 3034080000,
                                              "value" : 0.211764705882353,
                                              "interp" : "eioe",
                                              "duration" : 470400000
                                            }
                                          ]
                                        },
                                        "fill-color-opacity" : 1.0,
                                        "fill-color-red" : {
                                          "type" : "double",
                                          "defaultValue" : 0.172549019607843,
                                          "keyframes" : [
                                            {
                                              "endTime" : 399840000,
                                              "time" : 0,
                                              "value" : 0.172549019607843,
                                              "interp" : "eioe",
                                              "duration" : 399840000
                                            },
                                            {
                                              "endTime" : 3504480000,
                                              "time" : 3034080000,
                                              "value" : 0.172549019607843,
                                              "interp" : "eioe",
                                              "duration" : 470400000
                                            }
                                          ]
                                        },
                                        "height" : {
                                          "type" : "double",
                                          "defaultValue" : 144.077255018348,
                                          "keyframes" : [
                                            {
                                              "endTime" : 399840000,
                                              "time" : 0,
                                              "value" : 144.077255102329,
                                              "interp" : "eioe",
                                              "duration" : 399840000
                                            },
                                            {
                                              "endTime" : 3504480000,
                                              "time" : 3034080000,
                                              "value" : 144.077255018348,
                                              "interp" : "eioe",
                                              "duration" : 470400000
                                            }
                                          ]
                                        },
                                        "stroke-color-blue" : 1.0,
                                        "stroke-color-green" : 1.0,
                                        "stroke-color-opacity" : 1.0,
                                        "stroke-color-red" : 1.0,
                                        "stroke-width" : 0.0,
                                        "width" : {
                                          "type" : "double",
                                          "defaultValue" : 0.999999999999773,
                                          "keyframes" : [
                                            {
                                              "endTime" : 399840000,
                                              "time" : 0,
                                              "value" : 607.452331542969,
                                              "interp" : "eioe",
                                              "duration" : 399840000
                                            },
                                            {
                                              "endTime" : 3504480000,
                                              "time" : 3034080000,
                                              "value" : 0.999999999999773,
                                              "interp" : "eioe",
                                              "duration" : 470400000
                                            }
                                          ]
                                        },
                                        "fill-style" : "solid",
                                        "stroke-style" : "solid"
                                    },
                                    "attributes" : {
                                      "ident" : "",
                                      "autoRotateText" : true
                                    },
                                    "parameters" : {
                                      "translation0" : {
                                        "type" : "double",
                                        "defaultValue" : 0.0,
                                        "keyframes" : [
                                          {
                                            "endTime" : 399840000,
                                            "time" : 0,
                                            "value" : 0.0,
                                            "interp" : "eioe",
                                            "duration" : 399840000
                                          }
                                        ]
                                      },
                                      "translation1" : {
                                        "type" : "double",
                                        "defaultValue" : -48.5128632325269,
                                        "keyframes" : [
                                          {
                                            "endTime" : 399840000,
                                            "time" : 0,
                                            "value" : -48.5128632325269,
                                            "interp" : "eioe",
                                            "duration" : 399840000
                                          },
                                          {
                                            "endTime" : 3504480000,
                                            "time" : 3034080000,
                                            "value" : -48.5128632325269,
                                            "interp" : "eioe",
                                            "duration" : 470400000
                                          }
                                        ]
                                      },
                                      "geometryCrop0" : 0.0,
                                      "geometryCrop1" : 0.0,
                                      "geometryCrop2" : 0.0,
                                      "geometryCrop3" : 0.0
                                    },
                                    "effects" : [

                                    ],
                                    "start" : 0,
                                    "duration" : 2187360000,
                                    "mediaStart" : 0,
                                    "mediaDuration" : 2187360000,
                                    "scalar" : 1,
                                    "metadata" : {
                                      "AppliedThemeId" : "",
                                      "clipSpeedAttribute" : false,
                                      "effectApplied" : "none"
                                    },
                                    "animationTracks" : {
                                      "visual" : [
                                        {
                                          "endTime" : 399840000,
                                          "duration" : 399840000,
                                          "range" : [ 0, 399840000],
                                          "interp" : "eioe"
                                        },
                                        {
                                          "endTime" : 3504480000,
                                          "duration" : 470400000,
                                          "range" : [ 3034080000, 470400000],
                                          "interp" : "eioe"
                                        }
                                      ]
                                    }
                                  }
                                ],
                                  "ident" : "",
                                  "audioMuted" : false,
                                  "videoHidden" : false,
                                  "magnetic" : false,
                                  "matte" : 0,
                                  "solo" : false,
                                  "metadata" : {
                                    "IsLocked" : "False",
                                    "WinTrackHeight" : "56",
                                    "trackHeight" : "48"
                                  }
                              },
                              {
                                "trackIndex" : 1,
                                "medias" : [
                                  {
                                    "id" : 130,
                                    "_type" : "Callout",
                                    "def" : {
                                        "kind" : "remix",
                                        "shape" : "shape-rectangle",
                                        "style" : "urban",
                                        "fill-color-blue" : {
                                          "type" : "double",
                                          "defaultValue" : 0.650980392156863,
                                          "keyframes" : [
                                            {
                                              "endTime" : 399840000,
                                              "time" : 0,
                                              "value" : 0.650980392156863,
                                              "interp" : "eioe",
                                              "duration" : 399840000
                                            },
                                            {
                                              "endTime" : 3504480000,
                                              "time" : 3034080000,
                                              "value" : 0.650980392156863,
                                              "interp" : "eioe",
                                              "duration" : 470400000
                                            }
                                          ]
                                        },
                                        "fill-color-green" : {
                                          "type" : "double",
                                          "defaultValue" : 0.184313725490196,
                                          "keyframes" : [
                                            {
                                              "endTime" : 399840000,
                                              "time" : 0,
                                              "value" : 0.184313725490196,
                                              "interp" : "eioe",
                                              "duration" : 399840000
                                            },
                                            {
                                              "endTime" : 3504480000,
                                              "time" : 3034080000,
                                              "value" : 0.184313725490196,
                                              "interp" : "eioe",
                                              "duration" : 470400000
                                            }
                                          ]
                                        },
                                        "fill-color-opacity" : 1.0,
                                        "fill-color-red" : {
                                          "type" : "double",
                                          "defaultValue" : 0.172549019607843,
                                          "keyframes" : [
                                            {
                                              "endTime" : 399840000,
                                              "time" : 0,
                                              "value" : 0.172549019607843,
                                              "interp" : "eioe",
                                              "duration" : 399840000
                                            },
                                            {
                                              "endTime" : 3504480000,
                                              "time" : 3034080000,
                                              "value" : 0.172549019607843,
                                              "interp" : "eioe",
                                              "duration" : 470400000
                                            }
                                          ]
                                        },
                                        "height" : {
                                          "type" : "double",
                                          "defaultValue" : 26.2267330256883,
                                          "keyframes" : [
                                            {
                                              "endTime" : 399840000,
                                              "time" : 0,
                                              "value" : 26.2267331096697,
                                              "interp" : "eioe",
                                              "duration" : 399840000
                                            },
                                            {
                                              "endTime" : 3504480000,
                                              "time" : 3034080000,
                                              "value" : 26.2267330256883,
                                              "interp" : "eioe",
                                              "duration" : 470400000
                                            }
                                          ]
                                        },
                                        "stroke-color-blue" : 1.0,
                                        "stroke-color-green" : 1.0,
                                        "stroke-color-opacity" : 1.0,
                                        "stroke-color-red" : 1.0,
                                        "stroke-width" : 0.0,
                                        "width" : {
                                          "type" : "double",
                                          "defaultValue" : 1.0,
                                          "keyframes" : [
                                            {
                                              "endTime" : 399840000,
                                              "time" : 0,
                                              "value" : 607.452331542969,
                                              "interp" : "eioe",
                                              "duration" : 399840000
                                            },
                                            {
                                              "endTime" : 3504480000,
                                              "time" : 3034080000,
                                              "value" : 1.0,
                                              "interp" : "eioe",
                                              "duration" : 470400000
                                            }
                                          ]
                                        },
                                        "fill-style" : "gradient",
                                        "stroke-style" : "solid"
                                    },
                                    "attributes" : {
                                      "ident" : "",
                                      "autoRotateText" : true
                                    },
                                    "parameters" : {
                                      "translation0" : {
                                        "type" : "double",
                                        "defaultValue" : 0.0,
                                        "keyframes" : [
                                          {
                                            "endTime" : 399840000,
                                            "time" : 0,
                                            "value" : 0.0,
                                            "interp" : "eioe",
                                            "duration" : 399840000
                                          }
                                        ]
                                      },
                                      "translation1" : {
                                        "type" : "double",
                                        "defaultValue" : -107.438124228857,
                                        "keyframes" : [
                                          {
                                            "endTime" : 399840000,
                                            "time" : 0,
                                            "value" : -107.438124228857,
                                            "interp" : "eioe",
                                            "duration" : 399840000
                                          }
                                        ]
                                      },
                                      "geometryCrop0" : 0.0,
                                      "geometryCrop1" : 0.0,
                                      "geometryCrop2" : 0.0,
                                      "geometryCrop3" : 0.0
                                    },
                                    "effects" : [

                                    ],
                                    "start" : 0,
                                    "duration" : 2187360000,
                                    "mediaStart" : 0,
                                    "mediaDuration" : 2187360000,
                                    "scalar" : 1,
                                    "metadata" : {
                                      "AppliedThemeId" : "",
                                      "clipSpeedAttribute" : false,
                                      "effectApplied" : "none"
                                    },
                                    "animationTracks" : {
                                      "visual" : [
                                        {
                                          "endTime" : 399840000,
                                          "duration" : 399840000,
                                          "range" : [ 0, 399840000],
                                          "interp" : "eioe"
                                        },
                                        {
                                          "endTime" : 3504480000,
                                          "duration" : 470400000,
                                          "range" : [ 3034080000, 470400000],
                                          "interp" : "eioe"
                                        }
                                      ]
                                    }
                                  }
                                ],
                                  "ident" : "",
                                  "audioMuted" : false,
                                  "videoHidden" : false,
                                  "magnetic" : false,
                                  "matte" : 0,
                                  "solo" : false,
                                  "metadata" : {
                                    "IsLocked" : "False",
                                    "WinTrackHeight" : "56",
                                    "trackHeight" : "48"
                                  }
                              }
                            ],
                            "attributes" : {
                              "ident" : "Group 2-2",
                              "widthAttr" : 607.452,
                              "heightAttr" : 241.103,
                              "gain" : 1.0,
                              "mixToMono" : false
                            },
                            "effects" : [

                            ],
                            "start" : 0,
                            "duration" : 2187360000,
                            "mediaStart" : 0.0,
                            "mediaDuration" : 2187360000.0,
                            "scalar" : 1,
                            "metadata" : {
                              "IsGroupExpanded" : "False",
                              "clipSpeedAttribute" : false,
                              "effectApplied" : "none",
                              "isOpen" : false
                            },
                            "animationTracks" : {

                            }
                          }
                        ],
                          "ident" : "",
                          "audioMuted" : false,
                          "videoHidden" : false,
                          "magnetic" : false,
                          "matte" : 0,
                          "solo" : false,
                          "metadata" : {
                            "IsLocked" : "False",
                            "WinTrackHeight" : "56",
                            "trackHeight" : "48"
                          }
                      },
                      {
                        "trackIndex" : 1,
                        "medias" : [
                          {
                            "id" : 131,
                            "_type" : "Group",
                            "parameters" : {
                              "translation0" : 30.4878048779248,
                              "geometryCrop0" : 0.0,
                              "geometryCrop1" : 0.0,
                              "geometryCrop2" : 0.0,
                              "geometryCrop3" : 0.0,
                              "volume" : 1.0
                            },
                            "tracks" : [
                              {
                                "trackIndex" : 0,
                                "medias" : [
                                  {
                                    "id" : 132,
                                    "_type" : "Callout",
                                    "def" : {
                                        "kind" : "remix",
                                        "shape" : "shape-rectangle",
                                        "style" : "urban",
                                        "fill-color-blue" : 1.0,
                                        "fill-color-green" : 1.0,
                                        "fill-color-opacity" : 1.0,
                                        "fill-color-red" : 1.0,
                                        "height" : 180.0,
                                        "stroke-color-blue" : 1.0,
                                        "stroke-color-green" : 1.0,
                                        "stroke-color-opacity" : 1.0,
                                        "stroke-color-red" : 1.0,
                                        "stroke-width" : 0.0,
                                        "width" : 240.0,
                                        "fill-style" : "solid",
                                        "stroke-style" : "solid"
                                    },
                                    "attributes" : {
                                      "ident" : "",
                                      "autoRotateText" : true
                                    },
                                    "parameters" : {
                                      "translation0" : {
                                        "type" : "double",
                                        "defaultValue" : -49.0,
                                        "keyframes" : [
                                          {
                                            "endTime" : 423360000,
                                            "time" : 0,
                                            "value" : -339.0,
                                            "interp" : "eioe",
                                            "duration" : 423360000
                                          },
                                          {
                                            "endTime" : 3504480000,
                                            "time" : 3057600000,
                                            "value" : -49.0,
                                            "interp" : "eioe",
                                            "duration" : 446880000
                                          }
                                        ]
                                      },
                                      "translation1" : {
                                        "type" : "double",
                                        "defaultValue" : 70.5,
                                        "keyframes" : [
                                          {
                                            "endTime" : 423360000,
                                            "time" : 0,
                                            "value" : 70.5,
                                            "interp" : "eioe",
                                            "duration" : 423360000
                                          },
                                          {
                                            "endTime" : 3504480000,
                                            "time" : 3057600000,
                                            "value" : 70.5,
                                            "interp" : "eioe",
                                            "duration" : 446880000
                                          }
                                        ]
                                      },
                                      "rotation2" : {
                                        "type" : "double",
                                        "defaultValue" : 0.785398163397446,
                                        "keyframes" : [
                                          {
                                            "endTime" : 423360000,
                                            "time" : 0,
                                            "value" : 0.785398163397446,
                                            "interp" : "eioe",
                                            "duration" : 423360000
                                          },
                                          {
                                            "endTime" : 3504480000,
                                            "time" : 3057600000,
                                            "value" : 0.785398163397446,
                                            "interp" : "eioe",
                                            "duration" : 446880000
                                          }
                                        ]
                                      },
                                      "geometryCrop0" : 0.0,
                                      "geometryCrop1" : 0.0,
                                      "geometryCrop2" : 0.0,
                                      "geometryCrop3" : 0.0
                                    },
                                    "effects" : [

                                    ],
                                    "start" : 0,
                                    "duration" : 2187360000,
                                    "mediaStart" : 0,
                                    "mediaDuration" : 2187360000,
                                    "scalar" : 1,
                                    "metadata" : {
                                      "AppliedThemeId" : "",
                                      "clipSpeedAttribute" : false,
                                      "effectApplied" : "none"
                                    },
                                    "animationTracks" : {
                                      "visual" : [
                                        {
                                          "endTime" : 423360000,
                                          "duration" : 423360000,
                                          "range" : [ 0, 423360000],
                                          "interp" : "eioe"
                                        },
                                        {
                                          "endTime" : 3504480000,
                                          "duration" : 446880000,
                                          "range" : [ 3057600000, 446880000],
                                          "interp" : "eioe"
                                        }
                                      ]
                                    }
                                  }
                                ],
                                  "ident" : "",
                                  "audioMuted" : false,
                                  "videoHidden" : false,
                                  "magnetic" : false,
                                  "matte" : 0,
                                  "solo" : false,
                                  "metadata" : {
                                    "IsLocked" : "False",
                                    "WinTrackHeight" : "56",
                                    "trackHeight" : "48"
                                  }
                              },
                              {
                                "trackIndex" : 1,
                                "medias" : [
                                  {
                                    "id" : 133,
                                    "_type" : "Callout",
                                    "def" : {
                                        "kind" : "remix",
                                        "shape" : "shape-rectangle",
                                        "style" : "urban",
                                        "fill-color-blue" : 1.0,
                                        "fill-color-green" : 1.0,
                                        "fill-color-opacity" : 1.0,
                                        "fill-color-red" : 1.0,
                                        "height" : 180.0,
                                        "stroke-color-blue" : 1.0,
                                        "stroke-color-green" : 1.0,
                                        "stroke-color-opacity" : 1.0,
                                        "stroke-color-red" : 1.0,
                                        "stroke-width" : 0.0,
                                        "width" : 240.0,
                                        "fill-style" : "solid",
                                        "stroke-style" : "solid"
                                    },
                                    "attributes" : {
                                      "ident" : "",
                                      "autoRotateText" : true
                                    },
                                    "parameters" : {
                                      "translation0" : {
                                        "type" : "double",
                                        "defaultValue" : 59.0,
                                        "keyframes" : [
                                          {
                                            "endTime" : 423360000,
                                            "time" : 0,
                                            "value" : 359.0,
                                            "interp" : "eioe",
                                            "duration" : 423360000
                                          },
                                          {
                                            "endTime" : 3504480000,
                                            "time" : 3057600000,
                                            "value" : 59.0,
                                            "interp" : "eioe",
                                            "duration" : 446880000
                                          }
                                        ]
                                      },
                                      "translation1" : {
                                        "type" : "double",
                                        "defaultValue" : -150.5,
                                        "keyframes" : [
                                          {
                                            "endTime" : 423360000,
                                            "time" : 0,
                                            "value" : -150.5,
                                            "interp" : "eioe",
                                            "duration" : 423360000
                                          },
                                          {
                                            "endTime" : 3504480000,
                                            "time" : 3057600000,
                                            "value" : -150.5,
                                            "interp" : "eioe",
                                            "duration" : 446880000
                                          }
                                        ]
                                      },
                                      "rotation2" : {
                                        "type" : "double",
                                        "defaultValue" : 0.785398163397446,
                                        "keyframes" : [
                                          {
                                            "endTime" : 423360000,
                                            "time" : 0,
                                            "value" : 0.785398163397446,
                                            "interp" : "eioe",
                                            "duration" : 423360000
                                          },
                                          {
                                            "endTime" : 3504480000,
                                            "time" : 3057600000,
                                            "value" : 0.785398163397446,
                                            "interp" : "eioe",
                                            "duration" : 446880000
                                          }
                                        ]
                                      },
                                      "geometryCrop0" : 0.0,
                                      "geometryCrop1" : 0.0,
                                      "geometryCrop2" : 0.0,
                                      "geometryCrop3" : 0.0
                                    },
                                    "effects" : [

                                    ],
                                    "start" : 0,
                                    "duration" : 2187360000,
                                    "mediaStart" : 0,
                                    "mediaDuration" : 2187360000,
                                    "scalar" : 1,
                                    "metadata" : {
                                      "AppliedThemeId" : "",
                                      "clipSpeedAttribute" : false,
                                      "effectApplied" : "none"
                                    },
                                    "animationTracks" : {
                                      "visual" : [
                                        {
                                          "endTime" : 423360000,
                                          "duration" : 423360000,
                                          "range" : [ 0, 423360000],
                                          "interp" : "eioe"
                                        },
                                        {
                                          "endTime" : 3504480000,
                                          "duration" : 446880000,
                                          "range" : [ 3057600000, 446880000],
                                          "interp" : "eioe"
                                        }
                                      ]
                                    }
                                  }
                                ],
                                  "ident" : "",
                                  "audioMuted" : false,
                                  "videoHidden" : false,
                                  "magnetic" : false,
                                  "matte" : 0,
                                  "solo" : false,
                                  "metadata" : {
                                    "IsLocked" : "False",
                                    "WinTrackHeight" : "56",
                                    "trackHeight" : "48"
                                  }
                              }
                            ],
                            "attributes" : {
                              "ident" : "Group 2",
                              "widthAttr" : 1014.98,
                              "heightAttr" : 597.985,
                              "gain" : 1.0,
                              "mixToMono" : false
                            },
                            "effects" : [

                            ],
                            "start" : 0,
                            "duration" : 2187360000,
                            "mediaStart" : 0.0,
                            "mediaDuration" : 2187360000.0,
                            "scalar" : 1,
                            "metadata" : {
                              "IsGroupExpanded" : "False",
                              "clipSpeedAttribute" : false,
                              "effectApplied" : "none",
                              "isOpen" : false
                            },
                            "animationTracks" : {

                            }
                          }
                        ],
                          "ident" : "",
                          "audioMuted" : false,
                          "videoHidden" : false,
                          "magnetic" : false,
                          "matte" : 2,
                          "solo" : false,
                          "metadata" : {
                            "IsLocked" : "False",
                            "WinTrackHeight" : "56",
                            "trackHeight" : "48"
                          }
                      },
                      {
                        "trackIndex" : 2,
                        "medias" : [
                          {
                            "id" : 134,
                            "_type" : "Callout",
                            "def" : {
                                "kind" : "remix",
                                "shape" : "text",
                                "style" : "urban",
                                "enable-ligatures" : 1.0,
                                "height" : 238.762499957998,
                                "line-spacing" : 0.0,
                                "width" : 536.563582999083,
                                "word-wrap" : 1.0,
                                "horizontal-alignment" : "left",
                                "resize-behavior" : "resizeText",
                                "text" : "Embedded Database",
                                "vertical-alignment" : "center",
                                "font" : {
                                  "color-blue" : 1.0,
                                  "color-green" : 1.0,
                                  "color-red" : 1.0,
                                  "size" : 70.0,
                                  "tracking" : 0.0,
                                  "name" : "Dosis",
                                  "weight" : "Semi Bold"
                                },
                                "textAttributes" : {
                                  "type" : "textAttributeList",
                                  "keyframes" : [
                                    {
                                      "endTime" : 0,
                                      "time" : 0,
                                      "value" : [{"name":"strikethrough","rangeEnd":17,"rangeStart":0,"value":0,"valueType":"int"},{"name":"fontName","rangeEnd":17,"rangeStart":0,"value":"Oswald","valueType":"string"},{"name":"fgColor","rangeEnd":17,"rangeStart":0,"value":"(255,255,255,255)","valueType":"color"},{"name":"fontWeight","rangeEnd":17,"rangeStart":0,"value":400,"valueType":"int"},{"name":"fontItalic","rangeEnd":17,"rangeStart":0,"value":0,"valueType":"int"},{"name":"underline","rangeEnd":17,"rangeStart":0,"value":0,"valueType":"int"},{"name":"kerning","rangeEnd":17,"rangeStart":0,"value":0.0,"valueType":"double"},{"name":"fontSize","rangeEnd":17,"rangeStart":0,"value":70.0,"valueType":"double"}],
                                      "duration" : 0
                                    }
                                  ]
                                }
                            },
                            "attributes" : {
                              "ident" : "",
                              "autoRotateText" : true
                            },
                            "parameters" : {
                              "translation0" : 24.8574217978768,
                              "translation1" : -30.612442639549,
                              "geometryCrop0" : 0.0,
                              "geometryCrop1" : 0.0,
                              "geometryCrop2" : 0.0,
                              "geometryCrop3" : 0.0
                            },
                            "effects" : [
                                {
                                  "_type" : "GenericBehaviorEffect",
                                  "effectName" : "scale",
                                  "bypassed" : false,
                                  "start" : -1058400000,
                                  "duration" : 2916480000                                ,
                                  "in" : {
                                    "attributes" : {
                                      "name" : "grow",
                                      "type" : 1,
                                      "characterOrder" : 6,
                                      "offsetBetweenCharacters" : 23520000,
                                      "suggestedDurationPerCharacter" : 423360000,
                                      "overlapProportion" : "3/4",
                                      "movement" : 30,
                                      "springDamping" : 5.0,
                                      "springStiffness" : 50.0,
                                      "bounceBounciness" : 0.45
                                    }
                                  
                                  },
                                  "center" : {
                                    "attributes" : {
                                      "name" : "none",
                                      "type" : 1,
                                      "characterOrder" : 6,
                                      "offsetBetweenCharacters" : 0,
                                      "secondsPerLoop" : 1,
                                      "numberOfLoops" : -1,
                                      "delayBetweenLoops" : 0
                                    }
                                  
                                  },
                                  "out" : {
                                    "attributes" : {
                                      "name" : "shrink",
                                      "type" : 1,
                                      "characterOrder" : 6,
                                      "offsetBetweenCharacters" : 23520000,
                                      "suggestedDurationPerCharacter" : 341040000,
                                      "overlapProportion" : "1/10",
                                      "movement" : 11,
                                      "springDamping" : 5.0,
                                      "springStiffness" : 50.0,
                                      "bounceBounciness" : 0.45
                                    }
                                  
                                  }
                                }
                            ],
                            "start" : 305760000,
                            "duration" : 2916480000,
                            "mediaStart" : -1058400000,
                            "mediaDuration" : 2916480000,
                            "scalar" : 1,
                            "metadata" : {
                              "AppliedThemeId" : "",
                              "clipSpeedAttribute" : false,
                              "effectApplied" : "scale"
                            },
                            "animationTracks" : {

                            }
                          }
                        ],
                          "ident" : "",
                          "audioMuted" : false,
                          "videoHidden" : false,
                          "magnetic" : false,
                          "matte" : 0,
                          "solo" : false,
                          "metadata" : {
                            "IsLocked" : "False",
                            "WinTrackHeight" : "56",
                            "trackHeight" : "48"
                          }
                      },
                      {
                        "trackIndex" : 3,
                        "medias" : [
                        ],
                          "ident" : "",
                          "audioMuted" : false,
                          "videoHidden" : false,
                          "magnetic" : false,
                          "matte" : 0,
                          "solo" : false,
                          "metadata" : {
                            "IsLocked" : "False",
                            "WinTrackHeight" : "56",
                            "trackHeight" : "48"
                          }
                      }
                    ],
                    "attributes" : {
                      "ident" : "Tech Topic",
                      "widthAttr" : 1920.0,
                      "heightAttr" : 1080.0,
                      "gain" : 1.0,
                      "mixToMono" : false,
                      "assetProperties" : [
                        {
                          "type" : 0,
                          "name" : "Feature Text",
                          "objects" : [ 134 ],
                          "themeMappings" :  {
                            "font-color" : "foreground-1",
                            "font-family" : "font-1"
                          }
                        },
                        {
                          "type" : 1,
                          "name" : "BACKGROUND",
                          "objects" : [ 129 ],
                          "themeMappings" :  {
                            "fill" : "background-1"
                          }
                        },
                        {
                          "type" : 1,
                          "name" : "ACCENT",
                          "objects" : [ 130 ],
                          "themeMappings" :  {
                            "fill" : "accent-1"
                          }
                        }
                      ]
                    },
                    "effects" : [

                    ],
                    "start" : 53484480000,
                    "duration" : 2187360000,
                    "mediaStart" : 0.0,
                    "mediaDuration" : 2187360000.0,
                    "scalar" : 1,
                    "metadata" : {
                      "AppliedThemeId" : "",
                      "IsGroupExpanded" : "False",
                      "clipSpeedAttribute" : false,
                      "effectApplied" : "none",
                      "isOpen" : false
                    },
                    "animationTracks" : {

                    }
                  },
                  {
                    "id" : 135,
                    "_type" : "StitchedMedia",
                    "minMediaStart" : 0,
                    "attributes" : {
                      "ident" : "screenrecording",
                      "gain" : 1.0,
                      "mixToMono" : false,
                      "loudnessNormalization" : true,
                      "sourceFileOffset" : 0
                    },
                    "parameters" : {
                      "geometryCrop0" : 0.0,
                      "geometryCrop1" : 0.0,
                      "geometryCrop2" : 0.0,
                      "geometryCrop3" : 0.0,
                      "volume" : 1.0,
                      "smoothCursorAcrossEditDuration" : 0
                    },
                    "medias" : [
                        {
                          "id" : 136,
                          "_type" : "UnifiedMedia",
                          "video" : 
                              {
                                "id" : 137,
                                "_type" : "VMFile",
                                "src" : 5,
                                "trackNumber" : 0,
                                "attributes" : {
                                  "ident" : "screenrecording"
                                },
                                "parameters" : {
                                  "geometryCrop0" : 0.0,
                                  "geometryCrop1" : 0.0,
                                  "geometryCrop2" : 0.0,
                                  "geometryCrop3" : 0.0
                                },
                                "effects" : [

                                ],
                                "start" : 0,
                                "duration" : 4751040000,
                                "mediaStart" : 0,
                                "mediaDuration" : 4751040000,
                                "scalar" : 1,
                                "animationTracks" : {

                                }
                              },
                          "audio" : 
                              {
                                "id" : 138,
                                "_type" : "AMFile",
                                "src" : 5,
                                "trackNumber" : 1,
                                "attributes" : {
                                  "ident" : "",
                                  "gain" : 1.0,
                                  "mixToMono" : false,
                                  "loudnessNormalization" : true,
                                  "sourceFileOffset" : 0
                                },
                                  "channelNumber" : "0,1",
                                "effects" : [

                                ],
                                "start" : 0,
                                "duration" : 4751040000,
                                "mediaStart" : 0,
                                "mediaDuration" : 4751040000,
                                "scalar" : 1,
                                "animationTracks" : {

                                }
                              }
,
                          "start" : 0,
                          "duration" : 4751040000,
                          "mediaStart" : 0,
                          "mediaDuration" : 4751040000,
                          "scalar" : 1,
                          "metadata" : {
                            "clipSpeedAttribute" : false
                          }
                        },
                        {
                          "id" : 139,
                          "_type" : "UnifiedMedia",
                          "video" : 
                              {
                                "id" : 140,
                                "_type" : "VMFile",
                                "src" : 5,
                                "trackNumber" : 0,
                                "attributes" : {
                                  "ident" : "screenrecording"
                                },
                                "parameters" : {
                                  "geometryCrop0" : 0.0,
                                  "geometryCrop1" : 0.0,
                                  "geometryCrop2" : 0.0,
                                  "geometryCrop3" : 0.0
                                },
                                "effects" : [

                                ],
                                "start" : 4751040000,
                                "duration" : 117976320000,
                                "mediaStart" : 5244960000,
                                "mediaDuration" : 117976320000,
                                "scalar" : 1,
                                "animationTracks" : {

                                }
                              },
                          "audio" : 
                              {
                                "id" : 141,
                                "_type" : "AMFile",
                                "src" : 5,
                                "trackNumber" : 1,
                                "attributes" : {
                                  "ident" : "",
                                  "gain" : 1.0,
                                  "mixToMono" : false,
                                  "loudnessNormalization" : true,
                                  "sourceFileOffset" : 0
                                },
                                  "channelNumber" : "0,1",
                                "effects" : [

                                ],
                                "start" : 4751040000,
                                "duration" : 117976320000,
                                "mediaStart" : 5244960000,
                                "mediaDuration" : 117976320000,
                                "scalar" : 1,
                                "animationTracks" : {

                                }
                              }
,
                          "start" : 4751040000,
                          "duration" : 117976320000,
                          "mediaStart" : 5244960000,
                          "mediaDuration" : 117976320000,
                          "scalar" : 1,
                          "metadata" : {
                            "clipSpeedAttribute" : false
                          }
                        }
                    ],
                    "effects" : [

                    ],
                    "start" : 55671840000,
                    "duration" : 1622880000,
                    "mediaStart" : 81802560000,
                    "mediaDuration" : 1622880000,
                    "scalar" : 1,
                    "metadata" : {
                      "clipSpeedAttribute" : false
                    },
                    "animationTracks" : {

                    }
                  },
                  {
                    "id" : 142,
                    "_type" : "StitchedMedia",
                    "minMediaStart" : 0,
                    "attributes" : {
                      "ident" : "screenrecording",
                      "gain" : 1.0,
                      "mixToMono" : false,
                      "loudnessNormalization" : true,
                      "sourceFileOffset" : 0
                    },
                    "parameters" : {
                      "geometryCrop0" : 0.0,
                      "geometryCrop1" : 0.0,
                      "geometryCrop2" : 0.0,
                      "geometryCrop3" : 0.0,
                      "volume" : 1.0,
                      "smoothCursorAcrossEditDuration" : 0
                    },
                    "medias" : [
                        {
                          "id" : 143,
                          "_type" : "UnifiedMedia",
                          "video" : 
                              {
                                "id" : 144,
                                "_type" : "VMFile",
                                "src" : 5,
                                "trackNumber" : 0,
                                "attributes" : {
                                  "ident" : "screenrecording"
                                },
                                "parameters" : {
                                  "geometryCrop0" : 0.0,
                                  "geometryCrop1" : 0.0,
                                  "geometryCrop2" : 0.0,
                                  "geometryCrop3" : 0.0
                                },
                                "effects" : [

                                ],
                                "start" : 0,
                                "duration" : 4751040000,
                                "mediaStart" : 0,
                                "mediaDuration" : 4751040000,
                                "scalar" : 1,
                                "animationTracks" : {

                                }
                              },
                          "audio" : 
                              {
                                "id" : 145,
                                "_type" : "AMFile",
                                "src" : 5,
                                "trackNumber" : 1,
                                "attributes" : {
                                  "ident" : "",
                                  "gain" : 1.0,
                                  "mixToMono" : false,
                                  "loudnessNormalization" : true,
                                  "sourceFileOffset" : 0
                                },
                                  "channelNumber" : "0,1",
                                "effects" : [

                                ],
                                "start" : 0,
                                "duration" : 4751040000,
                                "mediaStart" : 0,
                                "mediaDuration" : 4751040000,
                                "scalar" : 1,
                                "animationTracks" : {

                                }
                              }
,
                          "start" : 0,
                          "duration" : 4751040000,
                          "mediaStart" : 0,
                          "mediaDuration" : 4751040000,
                          "scalar" : 1,
                          "metadata" : {
                            "clipSpeedAttribute" : false
                          }
                        },
                        {
                          "id" : 146,
                          "_type" : "UnifiedMedia",
                          "video" : 
                              {
                                "id" : 147,
                                "_type" : "VMFile",
                                "src" : 5,
                                "trackNumber" : 0,
                                "attributes" : {
                                  "ident" : "screenrecording"
                                },
                                "parameters" : {
                                  "geometryCrop0" : 0.0,
                                  "geometryCrop1" : 0.0,
                                  "geometryCrop2" : 0.0,
                                  "geometryCrop3" : 0.0
                                },
                                "effects" : [

                                ],
                                "start" : 4751040000,
                                "duration" : 117976320000,
                                "mediaStart" : 5244960000,
                                "mediaDuration" : 117976320000,
                                "scalar" : 1,
                                "animationTracks" : {

                                }
                              },
                          "audio" : 
                              {
                                "id" : 148,
                                "_type" : "AMFile",
                                "src" : 5,
                                "trackNumber" : 1,
                                "attributes" : {
                                  "ident" : "",
                                  "gain" : 1.0,
                                  "mixToMono" : false,
                                  "loudnessNormalization" : true,
                                  "sourceFileOffset" : 0
                                },
                                  "channelNumber" : "0,1",
                                "effects" : [

                                ],
                                "start" : 4751040000,
                                "duration" : 117976320000,
                                "mediaStart" : 5244960000,
                                "mediaDuration" : 117976320000,
                                "scalar" : 1,
                                "animationTracks" : {

                                }
                              }
,
                          "start" : 4751040000,
                          "duration" : 117976320000,
                          "mediaStart" : 5244960000,
                          "mediaDuration" : 117976320000,
                          "scalar" : 1,
                          "metadata" : {
                            "clipSpeedAttribute" : false
                          }
                        }
                    ],
                    "effects" : [

                    ],
                    "start" : 57294720000,
                    "duration" : 1128960000,
                    "mediaStart" : 86671200000,
                    "mediaDuration" : 1128960000,
                    "scalar" : 1,
                    "metadata" : {
                      "clipSpeedAttribute" : false
                    },
                    "animationTracks" : {

                    }
                  },
                  {
                    "id" : 149,
                    "_type" : "StitchedMedia",
                    "minMediaStart" : 0,
                    "attributes" : {
                      "ident" : "screenrecording",
                      "gain" : 1.0,
                      "mixToMono" : false,
                      "loudnessNormalization" : true,
                      "sourceFileOffset" : 0
                    },
                    "parameters" : {
                      "geometryCrop0" : 0.0,
                      "geometryCrop1" : 0.0,
                      "geometryCrop2" : 0.0,
                      "geometryCrop3" : 0.0,
                      "volume" : 1.0,
                      "smoothCursorAcrossEditDuration" : 0
                    },
                    "medias" : [
                        {
                          "id" : 150,
                          "_type" : "UnifiedMedia",
                          "video" : 
                              {
                                "id" : 151,
                                "_type" : "VMFile",
                                "src" : 5,
                                "trackNumber" : 0,
                                "attributes" : {
                                  "ident" : "screenrecording"
                                },
                                "parameters" : {
                                  "geometryCrop0" : 0.0,
                                  "geometryCrop1" : 0.0,
                                  "geometryCrop2" : 0.0,
                                  "geometryCrop3" : 0.0
                                },
                                "effects" : [

                                ],
                                "start" : 0,
                                "duration" : 4751040000,
                                "mediaStart" : 0,
                                "mediaDuration" : 4751040000,
                                "scalar" : 1,
                                "animationTracks" : {

                                }
                              },
                          "audio" : 
                              {
                                "id" : 152,
                                "_type" : "AMFile",
                                "src" : 5,
                                "trackNumber" : 1,
                                "attributes" : {
                                  "ident" : "",
                                  "gain" : 1.0,
                                  "mixToMono" : false,
                                  "loudnessNormalization" : true,
                                  "sourceFileOffset" : 0
                                },
                                  "channelNumber" : "0,1",
                                "effects" : [

                                ],
                                "start" : 0,
                                "duration" : 4751040000,
                                "mediaStart" : 0,
                                "mediaDuration" : 4751040000,
                                "scalar" : 1,
                                "animationTracks" : {

                                }
                              }
,
                          "start" : 0,
                          "duration" : 4751040000,
                          "mediaStart" : 0,
                          "mediaDuration" : 4751040000,
                          "scalar" : 1,
                          "metadata" : {
                            "clipSpeedAttribute" : false
                          }
                        },
                        {
                          "id" : 153,
                          "_type" : "UnifiedMedia",
                          "video" : 
                              {
                                "id" : 154,
                                "_type" : "VMFile",
                                "src" : 5,
                                "trackNumber" : 0,
                                "attributes" : {
                                  "ident" : "screenrecording"
                                },
                                "parameters" : {
                                  "geometryCrop0" : 0.0,
                                  "geometryCrop1" : 0.0,
                                  "geometryCrop2" : 0.0,
                                  "geometryCrop3" : 0.0
                                },
                                "effects" : [

                                ],
                                "start" : 4751040000,
                                "duration" : 117976320000,
                                "mediaStart" : 5244960000,
                                "mediaDuration" : 117976320000,
                                "scalar" : 1,
                                "animationTracks" : {

                                }
                              },
                          "audio" : 
                              {
                                "id" : 155,
                                "_type" : "AMFile",
                                "src" : 5,
                                "trackNumber" : 1,
                                "attributes" : {
                                  "ident" : "",
                                  "gain" : 1.0,
                                  "mixToMono" : false,
                                  "loudnessNormalization" : true,
                                  "sourceFileOffset" : 0
                                },
                                  "channelNumber" : "0,1",
                                "effects" : [

                                ],
                                "start" : 4751040000,
                                "duration" : 117976320000,
                                "mediaStart" : 5244960000,
                                "mediaDuration" : 117976320000,
                                "scalar" : 1,
                                "animationTracks" : {

                                }
                              }
,
                          "start" : 4751040000,
                          "duration" : 117976320000,
                          "mediaStart" : 5244960000,
                          "mediaDuration" : 117976320000,
                          "scalar" : 1,
                          "metadata" : {
                            "clipSpeedAttribute" : false
                          }
                        }
                    ],
                    "effects" : [

                    ],
                    "start" : 58423680000,
                    "duration" : 1246560000,
                    "mediaStart" : 90316800000,
                    "mediaDuration" : 1246560000,
                    "scalar" : 1,
                    "metadata" : {
                      "clipSpeedAttribute" : false
                    },
                    "animationTracks" : {

                    }
                  },
                  {
                    "id" : 156,
                    "_type" : "StitchedMedia",
                    "minMediaStart" : 0,
                    "attributes" : {
                      "ident" : "screenrecording",
                      "gain" : 1.0,
                      "mixToMono" : false,
                      "loudnessNormalization" : true,
                      "sourceFileOffset" : 0
                    },
                    "parameters" : {
                      "geometryCrop0" : 0.0,
                      "geometryCrop1" : 0.0,
                      "geometryCrop2" : 0.0,
                      "geometryCrop3" : 0.0,
                      "volume" : 1.0,
                      "smoothCursorAcrossEditDuration" : 0
                    },
                    "medias" : [
                        {
                          "id" : 157,
                          "_type" : "UnifiedMedia",
                          "video" : 
                              {
                                "id" : 158,
                                "_type" : "VMFile",
                                "src" : 5,
                                "trackNumber" : 0,
                                "attributes" : {
                                  "ident" : "screenrecording"
                                },
                                "parameters" : {
                                  "geometryCrop0" : 0.0,
                                  "geometryCrop1" : 0.0,
                                  "geometryCrop2" : 0.0,
                                  "geometryCrop3" : 0.0
                                },
                                "effects" : [

                                ],
                                "start" : 0,
                                "duration" : 4751040000,
                                "mediaStart" : 0,
                                "mediaDuration" : 4751040000,
                                "scalar" : 1,
                                "animationTracks" : {

                                }
                              },
                          "audio" : 
                              {
                                "id" : 159,
                                "_type" : "AMFile",
                                "src" : 5,
                                "trackNumber" : 1,
                                "attributes" : {
                                  "ident" : "",
                                  "gain" : 1.0,
                                  "mixToMono" : false,
                                  "loudnessNormalization" : true,
                                  "sourceFileOffset" : 0
                                },
                                  "channelNumber" : "0,1",
                                "effects" : [

                                ],
                                "start" : 0,
                                "duration" : 4751040000,
                                "mediaStart" : 0,
                                "mediaDuration" : 4751040000,
                                "scalar" : 1,
                                "animationTracks" : {

                                }
                              }
,
                          "start" : 0,
                          "duration" : 4751040000,
                          "mediaStart" : 0,
                          "mediaDuration" : 4751040000,
                          "scalar" : 1,
                          "metadata" : {
                            "clipSpeedAttribute" : false
                          }
                        },
                        {
                          "id" : 160,
                          "_type" : "UnifiedMedia",
                          "video" : 
                              {
                                "id" : 161,
                                "_type" : "VMFile",
                                "src" : 5,
                                "trackNumber" : 0,
                                "attributes" : {
                                  "ident" : "screenrecording"
                                },
                                "parameters" : {
                                  "geometryCrop0" : 0.0,
                                  "geometryCrop1" : 0.0,
                                  "geometryCrop2" : 0.0,
                                  "geometryCrop3" : 0.0
                                },
                                "effects" : [

                                ],
                                "start" : 4751040000,
                                "duration" : 117976320000,
                                "mediaStart" : 5244960000,
                                "mediaDuration" : 117976320000,
                                "scalar" : 1,
                                "animationTracks" : {

                                }
                              },
                          "audio" : 
                              {
                                "id" : 162,
                                "_type" : "AMFile",
                                "src" : 5,
                                "trackNumber" : 1,
                                "attributes" : {
                                  "ident" : "",
                                  "gain" : 1.0,
                                  "mixToMono" : false,
                                  "loudnessNormalization" : true,
                                  "sourceFileOffset" : 0
                                },
                                  "channelNumber" : "0,1",
                                "effects" : [

                                ],
                                "start" : 4751040000,
                                "duration" : 117976320000,
                                "mediaStart" : 5244960000,
                                "mediaDuration" : 117976320000,
                                "scalar" : 1,
                                "animationTracks" : {

                                }
                              }
,
                          "start" : 4751040000,
                          "duration" : 117976320000,
                          "mediaStart" : 5244960000,
                          "mediaDuration" : 117976320000,
                          "scalar" : 1,
                          "metadata" : {
                            "clipSpeedAttribute" : false
                          }
                        }
                    ],
                    "effects" : [

                    ],
                    "start" : 59670240000,
                    "duration" : 2234400000,
                    "mediaStart" : 96784800000,
                    "mediaDuration" : 2234400000,
                    "scalar" : 1,
                    "metadata" : {
                      "clipSpeedAttribute" : false
                    },
                    "animationTracks" : {

                    }
                  },
                  {
                    "id" : 163,
                    "_type" : "StitchedMedia",
                    "minMediaStart" : 0,
                    "attributes" : {
                      "ident" : "screenrecording",
                      "gain" : 1.0,
                      "mixToMono" : false,
                      "loudnessNormalization" : true,
                      "sourceFileOffset" : 0
                    },
                    "parameters" : {
                      "geometryCrop0" : 0.0,
                      "geometryCrop1" : 0.0,
                      "geometryCrop2" : 0.0,
                      "geometryCrop3" : 0.0,
                      "volume" : 1.0,
                      "smoothCursorAcrossEditDuration" : 0
                    },
                    "medias" : [
                        {
                          "id" : 164,
                          "_type" : "UnifiedMedia",
                          "video" : 
                              {
                                "id" : 165,
                                "_type" : "VMFile",
                                "src" : 5,
                                "trackNumber" : 0,
                                "attributes" : {
                                  "ident" : "screenrecording"
                                },
                                "parameters" : {
                                  "geometryCrop0" : 0.0,
                                  "geometryCrop1" : 0.0,
                                  "geometryCrop2" : 0.0,
                                  "geometryCrop3" : 0.0
                                },
                                "effects" : [

                                ],
                                "start" : 0,
                                "duration" : 4751040000,
                                "mediaStart" : 0,
                                "mediaDuration" : 4751040000,
                                "scalar" : 1,
                                "animationTracks" : {

                                }
                              },
                          "audio" : 
                              {
                                "id" : 166,
                                "_type" : "AMFile",
                                "src" : 5,
                                "trackNumber" : 1,
                                "attributes" : {
                                  "ident" : "",
                                  "gain" : 1.0,
                                  "mixToMono" : false,
                                  "loudnessNormalization" : true,
                                  "sourceFileOffset" : 0
                                },
                                  "channelNumber" : "0,1",
                                "effects" : [

                                ],
                                "start" : 0,
                                "duration" : 4751040000,
                                "mediaStart" : 0,
                                "mediaDuration" : 4751040000,
                                "scalar" : 1,
                                "animationTracks" : {

                                }
                              }
,
                          "start" : 0,
                          "duration" : 4751040000,
                          "mediaStart" : 0,
                          "mediaDuration" : 4751040000,
                          "scalar" : 1,
                          "metadata" : {
                            "clipSpeedAttribute" : false
                          }
                        },
                        {
                          "id" : 167,
                          "_type" : "UnifiedMedia",
                          "video" : 
                              {
                                "id" : 168,
                                "_type" : "VMFile",
                                "src" : 5,
                                "trackNumber" : 0,
                                "attributes" : {
                                  "ident" : "screenrecording"
                                },
                                "parameters" : {
                                  "geometryCrop0" : 0.0,
                                  "geometryCrop1" : 0.0,
                                  "geometryCrop2" : 0.0,
                                  "geometryCrop3" : 0.0
                                },
                                "effects" : [

                                ],
                                "start" : 4751040000,
                                "duration" : 117976320000,
                                "mediaStart" : 5244960000,
                                "mediaDuration" : 117976320000,
                                "scalar" : 1,
                                "animationTracks" : {

                                }
                              },
                          "audio" : 
                              {
                                "id" : 169,
                                "_type" : "AMFile",
                                "src" : 5,
                                "trackNumber" : 1,
                                "attributes" : {
                                  "ident" : "",
                                  "gain" : 1.0,
                                  "mixToMono" : false,
                                  "loudnessNormalization" : true,
                                  "sourceFileOffset" : 0
                                },
                                  "channelNumber" : "0,1",
                                "effects" : [

                                ],
                                "start" : 4751040000,
                                "duration" : 117976320000,
                                "mediaStart" : 5244960000,
                                "mediaDuration" : 117976320000,
                                "scalar" : 1,
                                "animationTracks" : {

                                }
                              }
,
                          "start" : 4751040000,
                          "duration" : 117976320000,
                          "mediaStart" : 5244960000,
                          "mediaDuration" : 117976320000,
                          "scalar" : 1,
                          "metadata" : {
                            "clipSpeedAttribute" : false
                          }
                        }
                    ],
                    "effects" : [

                    ],
                    "start" : 61904640000,
                    "duration" : 6162240000,
                    "mediaStart" : 111720000000,
                    "mediaDuration" : 6162240000,
                    "scalar" : 1,
                    "metadata" : {
                      "clipSpeedAttribute" : false
                    },
                    "animationTracks" : {

                    }
                  },
                  {
                    "id" : 170,
                    "_type" : "Group",
                    "parameters" : {
                      "scale0" : 0.998148143291473,
                      "scale1" : 0.998148143291473,
                      "geometryCrop0" : 0.0,
                      "geometryCrop1" : 0.0,
                      "geometryCrop2" : 0.0,
                      "geometryCrop3" : 0.0,
                      "volume" : 1.0
                    },
                    "tracks" : [
                      {
                        "trackIndex" : 0,
                        "medias" : [
                          {
                            "id" : 171,
                            "_type" : "Callout",
                            "def" : {
                                "kind" : "remix",
                                "shape" : "shape-star",
                                "style" : "bold",
                                "fill-color-blue" : 1.0,
                                "fill-color-green" : 1.0,
                                "fill-color-opacity" : 0.0,
                                "fill-color-red" : 1.0,
                                "height" : 200.0,
                                "stroke-color-blue" : {
                                  "type" : "double",
                                  "defaultValue" : 0.270588235294118,
                                  "keyframes" : [
                                    {
                                      "endTime" : 540960000,
                                      "time" : 0,
                                      "value" : 0.270588235294118,
                                      "interp" : "eioe",
                                      "duration" : 540960000
                                    },
                                    {
                                      "endTime" : 7267680000,
                                      "time" : 6562080000,
                                      "value" : 0.270588235294118,
                                      "duration" : 705600000
                                    }
                                  ]
                                },
                                "stroke-color-green" : {
                                  "type" : "double",
                                  "defaultValue" : 0.662745098039216,
                                  "keyframes" : [
                                    {
                                      "endTime" : 540960000,
                                      "time" : 0,
                                      "value" : 0.662745098039216,
                                      "interp" : "eioe",
                                      "duration" : 540960000
                                    },
                                    {
                                      "endTime" : 7267680000,
                                      "time" : 6562080000,
                                      "value" : 0.662745098039216,
                                      "duration" : 705600000
                                    }
                                  ]
                                },
                                "stroke-color-opacity" : 1.0,
                                "stroke-color-red" : {
                                  "type" : "double",
                                  "defaultValue" : 0.337254901960784,
                                  "keyframes" : [
                                    {
                                      "endTime" : 540960000,
                                      "time" : 0,
                                      "value" : 0.337254901960784,
                                      "interp" : "eioe",
                                      "duration" : 540960000
                                    },
                                    {
                                      "endTime" : 7267680000,
                                      "time" : 6562080000,
                                      "value" : 0.337254901960784,
                                      "duration" : 705600000
                                    }
                                  ]
                                },
                                "stroke-width" : 5.0,
                                "width" : 200.0,
                                "fill-style" : "solid",
                                "stroke-style" : "solid"
                            },
                            "attributes" : {
                              "ident" : "",
                              "autoRotateText" : true
                            },
                            "parameters" : {
                              "translation0" : {
                                "type" : "double",
                                "defaultValue" : 0.0,
                                "keyframes" : [
                                  {
                                    "endTime" : 540960000,
                                    "time" : 0,
                                    "value" : 0.0,
                                    "interp" : "eioe",
                                    "duration" : 540960000
                                  },
                                  {
                                    "endTime" : 7267680000,
                                    "time" : 6562080000,
                                    "value" : 0.0,
                                    "duration" : 705600000
                                  }
                                ]
                              },
                              "translation1" : {
                                "type" : "double",
                                "defaultValue" : 50.0000026226864,
                                "keyframes" : [
                                  {
                                    "endTime" : 540960000,
                                    "time" : 0,
                                    "value" : 71.0000026226864,
                                    "interp" : "eioe",
                                    "duration" : 540960000
                                  },
                                  {
                                    "endTime" : 7267680000,
                                    "time" : 6562080000,
                                    "value" : 50.0000026226864,
                                    "duration" : 705600000
                                  }
                                ]
                              },
                              "rotation2" : {
                                "type" : "double",
                                "defaultValue" : -3.14159265358979,
                                "keyframes" : [
                                  {
                                    "endTime" : 540960000,
                                    "time" : 0,
                                    "value" : 0.0,
                                    "interp" : "eioe",
                                    "duration" : 540960000
                                  },
                                  {
                                    "endTime" : 7267680000,
                                    "time" : 6562080000,
                                    "value" : 3.14159265358979,
                                    "duration" : 705600000
                                  }
                                ]
                              },
                              "scale0" : {
                                "type" : "double",
                                "defaultValue" : 0.00999999977648258,
                                "keyframes" : [
                                  {
                                    "endTime" : 540960000,
                                    "time" : 0,
                                    "value" : 1.5,
                                    "interp" : "eioe",
                                    "duration" : 540960000
                                  },
                                  {
                                    "endTime" : 7267680000,
                                    "time" : 6562080000,
                                    "value" : 0.00999999977648258,
                                    "duration" : 705600000
                                  }
                                ]
                              },
                              "scale1" : {
                                "type" : "double",
                                "defaultValue" : 0.00999999977648258,
                                "keyframes" : [
                                  {
                                    "endTime" : 540960000,
                                    "time" : 0,
                                    "value" : 1.5,
                                    "interp" : "eioe",
                                    "duration" : 540960000
                                  },
                                  {
                                    "endTime" : 7267680000,
                                    "time" : 6562080000,
                                    "value" : 0.00999999977648258,
                                    "duration" : 705600000
                                  }
                                ]
                              },
                              "geometryCrop0" : 0.0,
                              "geometryCrop1" : 0.0,
                              "geometryCrop2" : 0.0,
                              "geometryCrop3" : 0.0
                            },
                            "effects" : [

                            ],
                            "start" : 0,
                            "duration" : 3528000000,
                            "mediaStart" : 0,
                            "mediaDuration" : 3528000000,
                            "scalar" : 1,
                            "metadata" : {
                              "clipSpeedAttribute" : false,
                              "effectApplied" : "none"
                            },
                            "animationTracks" : {
                              "visual" : [
                                {
                                  "endTime" : 540960000,
                                  "duration" : 540960000,
                                  "range" : [ 0, 540960000],
                                  "interp" : "eioe"
                                },
                                {
                                  "endTime" : 7267680000,
                                  "duration" : 705600000,
                                  "range" : [ 6562080000, 705600000]
                                }
                              ]
                            }
                          }
                        ],
                          "ident" : "",
                          "audioMuted" : false,
                          "videoHidden" : false,
                          "magnetic" : false,
                          "matte" : 0,
                          "solo" : false,
                          "metadata" : {
                            "IsLocked" : "False",
                            "WinTrackHeight" : "56",
                            "trackHeight" : "48"
                          }
                      },
                      {
                        "trackIndex" : 1,
                        "medias" : [
                          {
                            "id" : 172,
                            "_type" : "IMFile",
                            "src" : 3,
                            "trackNumber" : 0,
                            "trimStartSum" : 0,
                            "attributes" : {
                              "ident" : "headprofilesmall"
                            },
                            "parameters" : {
                              "translation1" : {
                                "type" : "double",
                                "defaultValue" : 50.0000026226864,
                                "keyframes" : [
                                  {
                                    "endTime" : 540960000,
                                    "time" : 0,
                                    "value" : 71.0000026226864,
                                    "interp" : "eioe",
                                    "duration" : 540960000
                                  },
                                  {
                                    "endTime" : 7267680000,
                                    "time" : 6562080000,
                                    "value" : 50.0000026226864,
                                    "duration" : 705600000
                                  }
                                ]
                              },
                              "rotation2" : {
                                "type" : "double",
                                "defaultValue" : -3.14159265358979,
                                "keyframes" : [
                                  {
                                    "endTime" : 540960000,
                                    "time" : 0,
                                    "value" : 0.0,
                                    "interp" : "eioe",
                                    "duration" : 540960000
                                  },
                                  {
                                    "endTime" : 7267680000,
                                    "time" : 6562080000,
                                    "value" : 3.14159265358979,
                                    "duration" : 705600000
                                  }
                                ]
                              },
                              "scale0" : {
                                "type" : "double",
                                "defaultValue" : 0.00278639450740536,
                                "keyframes" : [
                                  {
                                    "endTime" : 540960000,
                                    "time" : 0,
                                    "value" : 0.417959185452919,
                                    "interp" : "eioe",
                                    "duration" : 540960000
                                  },
                                  {
                                    "endTime" : 7267680000,
                                    "time" : 6562080000,
                                    "value" : 0.00278639450740536,
                                    "duration" : 705600000
                                  }
                                ]
                              },
                              "scale1" : {
                                "type" : "double",
                                "defaultValue" : 0.00278639450740536,
                                "keyframes" : [
                                  {
                                    "endTime" : 540960000,
                                    "time" : 0,
                                    "value" : 0.417959185452919,
                                    "interp" : "eioe",
                                    "duration" : 540960000
                                  },
                                  {
                                    "endTime" : 7267680000,
                                    "time" : 6562080000,
                                    "value" : 0.00278639450740536,
                                    "duration" : 705600000
                                  }
                                ]
                              },
                              "geometryCrop0" : 0.0,
                              "geometryCrop1" : 0.0,
                              "geometryCrop2" : 0.0,
                              "geometryCrop3" : 0.0
                            },
                            "effects" : [

                            ],
                            "start" : 0,
                            "duration" : 3528000000,
                            "mediaStart" : 0,
                            "mediaDuration" : 1,
                            "scalar" : 1,
                            "metadata" : {
                              "clipSpeedAttribute" : false,
                              "originalMediaHeight" : 0.955733316040039,
                              "originalMediaQuickPropertyDuration" : 7291200000.0,
                              "originalMediaWidth" : 0.955733316040039
                            },
                            "animationTracks" : {
                              "visual" : [
                                {
                                  "endTime" : 540960000,
                                  "duration" : 540960000,
                                  "range" : [ 0, 540960000],
                                  "interp" : "eioe"
                                },
                                {
                                  "endTime" : 7267680000,
                                  "duration" : 705600000,
                                  "range" : [ 6562080000, 705600000]
                                }
                              ]
                            }
                          }
                        ],
                          "ident" : "",
                          "audioMuted" : false,
                          "videoHidden" : false,
                          "magnetic" : false,
                          "matte" : 0,
                          "solo" : false,
                          "metadata" : {
                            "IsLocked" : "False",
                            "WinTrackHeight" : "56",
                            "trackHeight" : "48"
                          }
                      },
                      {
                        "trackIndex" : 2,
                        "medias" : [
                          {
                            "id" : 173,
                            "_type" : "Callout",
                            "def" : {
                                "kind" : "remix",
                                "shape" : "text",
                                "style" : "basic",
                                "enable-ligatures" : 1.0,
                                "height" : 88.8470039285722,
                                "line-spacing" : 0.0,
                                "width" : 558.938868177777,
                                "word-wrap" : 1.0,
                                "horizontal-alignment" : "center",
                                "resize-behavior" : "resizeText",
                                "text" : "Great Job!",
                                "vertical-alignment" : "center",
                                "font" : {
                                  "color-blue" : 1.0,
                                  "color-green" : 1.0,
                                  "color-red" : 1.0,
                                  "size" : 96.0,
                                  "tracking" : 0.0,
                                  "name" : "Montserrat",
                                  "weight" : "Regular"
                                },
                                "textAttributes" : {
                                  "type" : "textAttributeList",
                                  "keyframes" : [
                                    {
                                      "endTime" : 0,
                                      "time" : 0,
                                      "value" : [{"name":"fontName","rangeEnd":10,"rangeStart":0,"value":"Lato","valueType":"string"},{"name":"fontWeight","rangeEnd":10,"rangeStart":0,"value":700,"valueType":"int"},{"name":"fgColor","rangeEnd":10,"rangeStart":0,"value":"(255,255,255,255)","valueType":"color"},{"name":"fontSize","rangeEnd":10,"rangeStart":0,"value":96.0,"valueType":"double"},{"name":"fontItalic","rangeEnd":10,"rangeStart":0,"value":0,"valueType":"int"},{"name":"kerning","rangeEnd":10,"rangeStart":0,"value":0.0,"valueType":"double"},{"name":"strikethrough","rangeEnd":10,"rangeStart":0,"value":0,"valueType":"int"},{"name":"underline","rangeEnd":10,"rangeStart":0,"value":0,"valueType":"int"}],
                                      "duration" : 0
                                    }
                                  ]
                                }
                            },
                            "attributes" : {
                              "ident" : "",
                              "autoRotateText" : true
                            },
                            "parameters" : {
                              "translation1" : -143.4234993416,
                              "geometryCrop0" : 0.0,
                              "geometryCrop1" : 0.0,
                              "geometryCrop2" : 0.0,
                              "geometryCrop3" : 0.0
                            },
                            "effects" : [
                                {
                                  "_type" : "GenericBehaviorEffect",
                                  "effectName" : "shifting",
                                  "bypassed" : false,
                                  "start" : 0,
                                  "duration" : 6420960000                                ,
                                  "in" : {
                                    "attributes" : {
                                      "name" : "shifting",
                                      "type" : 1,
                                      "characterOrder" : 4,
                                      "offsetBetweenCharacters" : 14112000,
                                      "suggestedDurationPerCharacter" : 1070160000,
                                      "overlapProportion" : 0,
                                      "movement" : 30,
                                      "springDamping" : 7.0,
                                      "springStiffness" : 50.0,
                                      "bounceBounciness" : 0.45
                                    }
                                  
                                  },
                                  "center" : {
                                    "attributes" : {
                                      "name" : "none",
                                      "type" : 1,
                                      "characterOrder" : 6,
                                      "offsetBetweenCharacters" : 0,
                                      "secondsPerLoop" : 1,
                                      "numberOfLoops" : -1,
                                      "delayBetweenLoops" : 0
                                    }
                                  
                                  },
                                  "out" : {
                                    "attributes" : {
                                      "name" : "shifting",
                                      "type" : 1,
                                      "characterOrder" : 4,
                                      "offsetBetweenCharacters" : 23520000,
                                      "suggestedDurationPerCharacter" : 305760000,
                                      "overlapProportion" : "1/2",
                                      "movement" : 14,
                                      "springDamping" : 5.0,
                                      "springStiffness" : 50.0,
                                      "bounceBounciness" : 0.45
                                    }
                                  
                                  }
                                }
                            ],
                            "start" : 540960000,
                            "duration" : 6420960000,
                            "mediaStart" : 0,
                            "mediaDuration" : 6420960000,
                            "scalar" : 1,
                            "metadata" : {
                              "clipSpeedAttribute" : false,
                              "effectApplied" : "shifting"
                            },
                            "animationTracks" : {

                            }
                          }
                        ],
                          "ident" : "",
                          "audioMuted" : false,
                          "videoHidden" : false,
                          "magnetic" : false,
                          "matte" : 0,
                          "solo" : false,
                          "metadata" : {
                            "IsLocked" : "False",
                            "WinTrackHeight" : "56",
                            "trackHeight" : "48"
                          }
                      },
                      {
                        "trackIndex" : 3,
                        "medias" : [
                          {
                            "id" : 174,
                            "_type" : "Callout",
                            "def" : {
                                "kind" : "remix",
                                "shape" : "shape-star",
                                "style" : "abstract",
                                "fill-color-blue" : 1.0,
                                "fill-color-green" : 1.0,
                                "fill-color-opacity" : 0.0,
                                "fill-color-red" : 1.0,
                                "height" : 1.00000000000003,
                                "stroke-color-blue" : {
                                  "type" : "double",
                                  "defaultValue" : 0.266666666666667,
                                  "keyframes" : [
                                    {
                                      "endTime" : 117600000,
                                      "time" : -352800000,
                                      "value" : 0.266666666666667,
                                      "interp" : "eioe",
                                      "duration" : 470400000
                                    },
                                    {
                                      "endTime" : 776160000,
                                      "time" : 211680000,
                                      "value" : 0.266666666666667,
                                      "interp" : "eioe",
                                      "duration" : 564480000
                                    }
                                  ]
                                },
                                "stroke-color-green" : {
                                  "type" : "double",
                                  "defaultValue" : 0.623529411764706,
                                  "keyframes" : [
                                    {
                                      "endTime" : 117600000,
                                      "time" : -352800000,
                                      "value" : 0.623529411764706,
                                      "interp" : "eioe",
                                      "duration" : 470400000
                                    },
                                    {
                                      "endTime" : 776160000,
                                      "time" : 211680000,
                                      "value" : 0.623529411764706,
                                      "interp" : "eioe",
                                      "duration" : 564480000
                                    }
                                  ]
                                },
                                "stroke-color-opacity" : 1.0,
                                "stroke-color-red" : {
                                  "type" : "double",
                                  "defaultValue" : 0.270588235294118,
                                  "keyframes" : [
                                    {
                                      "endTime" : 117600000,
                                      "time" : -352800000,
                                      "value" : 0.270588235294118,
                                      "interp" : "eioe",
                                      "duration" : 470400000
                                    },
                                    {
                                      "endTime" : 776160000,
                                      "time" : 211680000,
                                      "value" : 0.270588235294118,
                                      "interp" : "eioe",
                                      "duration" : 564480000
                                    }
                                  ]
                                },
                                "stroke-width" : 5.0,
                                "width" : 271.808325195313,
                                "fill-style" : "solid",
                                "stroke-style" : "solid"
                            },
                            "attributes" : {
                              "ident" : "",
                              "autoRotateText" : true
                            },
                            "parameters" : {
                              "translation0" : {
                                "type" : "double",
                                "defaultValue" : 141.095832477125,
                                "keyframes" : [
                                  {
                                    "endTime" : 117600000,
                                    "time" : -352800000,
                                    "value" : 141.095832477125,
                                    "interp" : "eioe",
                                    "duration" : 470400000
                                  },
                                  {
                                    "endTime" : 776160000,
                                    "time" : 211680000,
                                    "value" : 141.095832477125,
                                    "interp" : "eioe",
                                    "duration" : 564480000
                                  }
                                ]
                              },
                              "translation1" : {
                                "type" : "double",
                                "defaultValue" : -187.602375527223,
                                "keyframes" : [
                                  {
                                    "endTime" : 117600000,
                                    "time" : -352800000,
                                    "value" : -187.602375527223,
                                    "interp" : "eioe",
                                    "duration" : 470400000
                                  },
                                  {
                                    "endTime" : 776160000,
                                    "time" : 211680000,
                                    "value" : -187.602375527223,
                                    "interp" : "eioe",
                                    "duration" : 564480000
                                  }
                                ]
                              },
                              "geometryCrop0" : {
                                "type" : "double",
                                "defaultValue" : 0.0,
                                "keyframes" : [
                                  {
                                    "endTime" : 117600000,
                                    "time" : -352800000,
                                    "value" : 0.0,
                                    "interp" : "eioe",
                                    "duration" : 470400000
                                  },
                                  {
                                    "endTime" : 776160000,
                                    "time" : 211680000,
                                    "value" : 271.294037343748,
                                    "interp" : "eioe",
                                    "duration" : 564480000
                                  }
                                ]
                              },
                              "geometryCrop1" : 0.0,
                              "geometryCrop2" : {
                                "type" : "double",
                                "defaultValue" : 271.230776303134,
                                "keyframes" : [
                                  {
                                    "endTime" : 117600000,
                                    "time" : -352800000,
                                    "value" : 0.0,
                                    "interp" : "eioe",
                                    "duration" : 470400000
                                  }
                                ]
                              },
                              "geometryCrop3" : 0.0
                            },
                            "effects" : [

                            ],
                            "start" : 1317120000,
                            "duration" : 1128960000,
                            "mediaStart" : -352800000,
                            "mediaDuration" : 1128960000,
                            "scalar" : 1,
                            "metadata" : {
                              "clipSpeedAttribute" : false,
                              "effectApplied" : "none"
                            },
                            "animationTracks" : {
                              "visual" : [
                                {
                                  "endTime" : 117600000,
                                  "duration" : 470400000,
                                  "range" : [ -352800000, 470400000],
                                  "interp" : "eioe"
                                },
                                {
                                  "endTime" : 776160000,
                                  "duration" : 564480000,
                                  "range" : [ 211680000, 564480000],
                                  "interp" : "eioe"
                                }
                              ]
                            }
                          }
                        ],
                          "ident" : "",
                          "audioMuted" : false,
                          "videoHidden" : false,
                          "magnetic" : false,
                          "matte" : 0,
                          "solo" : false,
                          "metadata" : {
                            "IsLocked" : "False",
                            "WinTrackHeight" : "56",
                            "trackHeight" : "48"
                          }
                      },
                      {
                        "trackIndex" : 4,
                        "medias" : [
                          {
                            "id" : 175,
                            "_type" : "Callout",
                            "def" : {
                                "kind" : "remix",
                                "shape" : "shape-star",
                                "style" : "abstract",
                                "fill-color-blue" : 1.0,
                                "fill-color-green" : 1.0,
                                "fill-color-opacity" : 0.0,
                                "fill-color-red" : 1.0,
                                "height" : 1.0,
                                "stroke-color-blue" : {
                                  "type" : "double",
                                  "defaultValue" : 0.266666666666667,
                                  "keyframes" : [
                                    {
                                      "endTime" : 117600000,
                                      "time" : -352800000,
                                      "value" : 0.266666666666667,
                                      "interp" : "eioe",
                                      "duration" : 470400000
                                    },
                                    {
                                      "endTime" : 776160000,
                                      "time" : 211680000,
                                      "value" : 0.266666666666667,
                                      "interp" : "eioe",
                                      "duration" : 564480000
                                    }
                                  ]
                                },
                                "stroke-color-green" : {
                                  "type" : "double",
                                  "defaultValue" : 0.623529411764706,
                                  "keyframes" : [
                                    {
                                      "endTime" : 117600000,
                                      "time" : -352800000,
                                      "value" : 0.623529411764706,
                                      "interp" : "eioe",
                                      "duration" : 470400000
                                    },
                                    {
                                      "endTime" : 776160000,
                                      "time" : 211680000,
                                      "value" : 0.623529411764706,
                                      "interp" : "eioe",
                                      "duration" : 564480000
                                    }
                                  ]
                                },
                                "stroke-color-opacity" : 1.0,
                                "stroke-color-red" : {
                                  "type" : "double",
                                  "defaultValue" : 0.270588235294118,
                                  "keyframes" : [
                                    {
                                      "endTime" : 117600000,
                                      "time" : -352800000,
                                      "value" : 0.270588235294118,
                                      "interp" : "eioe",
                                      "duration" : 470400000
                                    },
                                    {
                                      "endTime" : 776160000,
                                      "time" : 211680000,
                                      "value" : 0.270588235294118,
                                      "interp" : "eioe",
                                      "duration" : 564480000
                                    }
                                  ]
                                },
                                "stroke-width" : 5.0,
                                "width" : 277.006372070313,
                                "fill-style" : "solid",
                                "stroke-style" : "solid"
                            },
                            "attributes" : {
                              "ident" : "",
                              "autoRotateText" : true
                            },
                            "parameters" : {
                              "translation0" : {
                                "type" : "double",
                                "defaultValue" : -135.503190960375,
                                "keyframes" : [
                                  {
                                    "endTime" : 117600000,
                                    "time" : -352800000,
                                    "value" : -135.503190960375,
                                    "interp" : "eioe",
                                    "duration" : 470400000
                                  },
                                  {
                                    "endTime" : 776160000,
                                    "time" : 211680000,
                                    "value" : -135.503190960375,
                                    "interp" : "eioe",
                                    "duration" : 564480000
                                  }
                                ]
                              },
                              "translation1" : {
                                "type" : "double",
                                "defaultValue" : -187.602375527223,
                                "keyframes" : [
                                  {
                                    "endTime" : 117600000,
                                    "time" : -352800000,
                                    "value" : -187.602375527223,
                                    "interp" : "eioe",
                                    "duration" : 470400000
                                  },
                                  {
                                    "endTime" : 776160000,
                                    "time" : 211680000,
                                    "value" : -187.602375527223,
                                    "interp" : "eioe",
                                    "duration" : 564480000
                                  }
                                ]
                              },
                              "geometryCrop0" : {
                                "type" : "double",
                                "defaultValue" : 277.237662499998,
                                "keyframes" : [
                                  {
                                    "endTime" : 117600000,
                                    "time" : -352800000,
                                    "value" : 0.0,
                                    "interp" : "eioe",
                                    "duration" : 470400000
                                  }
                                ]
                              },
                              "geometryCrop1" : {
                                "type" : "double",
                                "defaultValue" : 0.0,
                                "keyframes" : [
                                  {
                                    "endTime" : 117600000,
                                    "time" : -352800000,
                                    "value" : 0.0,
                                    "interp" : "eioe",
                                    "duration" : 470400000
                                  }
                                ]
                              },
                              "geometryCrop2" : {
                                "type" : "double",
                                "defaultValue" : 0.0,
                                "keyframes" : [
                                  {
                                    "endTime" : 776160000,
                                    "time" : 211680000,
                                    "value" : 277.392700781248,
                                    "interp" : "eioe",
                                    "duration" : 564480000
                                  }
                                ]
                              },
                              "geometryCrop3" : 0.0
                            },
                            "effects" : [

                            ],
                            "start" : 1317120000,
                            "duration" : 1128960000,
                            "mediaStart" : -352800000,
                            "mediaDuration" : 1128960000,
                            "scalar" : 1,
                            "metadata" : {
                              "clipSpeedAttribute" : false,
                              "effectApplied" : "none"
                            },
                            "animationTracks" : {
                              "visual" : [
                                {
                                  "endTime" : 117600000,
                                  "duration" : 470400000,
                                  "range" : [ -352800000, 470400000],
                                  "interp" : "eioe"
                                },
                                {
                                  "endTime" : 776160000,
                                  "duration" : 564480000,
                                  "range" : [ 211680000, 564480000],
                                  "interp" : "eioe"
                                }
                              ]
                            }
                          }
                        ],
                          "ident" : "",
                          "audioMuted" : false,
                          "videoHidden" : false,
                          "magnetic" : false,
                          "matte" : 0,
                          "solo" : false,
                          "metadata" : {
                            "IsLocked" : "False",
                            "WinTrackHeight" : "56",
                            "trackHeight" : "48"
                          }
                      },
                      {
                        "trackIndex" : 5,
                        "medias" : [
                        ],
                          "ident" : "",
                          "audioMuted" : false,
                          "videoHidden" : false,
                          "magnetic" : false,
                          "matte" : 0,
                          "solo" : false,
                          "metadata" : {
                            "IsLocked" : "False",
                            "WinTrackHeight" : "56",
                            "trackHeight" : "48"
                          }
                      }
                    ],
                    "attributes" : {
                      "ident" : "My Outro",
                      "widthAttr" : 1918.0,
                      "heightAttr" : 1078.0,
                      "gain" : 1.0,
                      "mixToMono" : false,
                      "assetProperties" : [
                        {
                          "type" : 0,
                          "name" : "Title",
                          "objects" : [ 173 ],
                          "themeMappings" :  {
                            "font-color" : "foreground-1",
                            "font-family" : "font-1"
                          }
                        },
                        {
                          "type" : 1,
                          "name" : "Color",
                          "objects" : [ 171, 175, 174 ],
                          "themeMappings" :  {
                            "outline" : "accent-1"
                          }
                        },
                        {
                          "type" : 2,
                          "name" : "Logo",
                          "objects" : [ 172 ],
                          "themeMappings" :  {
                            "logo-1" : "logo-1"
                          }
                        }
                      ]
                    },
                    "effects" : [

                    ],
                    "start" : 68066880000,
                    "duration" : 3528000000,
                    "mediaStart" : 0.0,
                    "mediaDuration" : 3528000000.0,
                    "scalar" : 1,
                    "metadata" : {
                      "AppliedThemeId" : "",
                      "IsGroupExpanded" : "False",
                      "clipSpeedAttribute" : false,
                      "effectApplied" : "none",
                      "isOpen" : false
                    },
                    "animationTracks" : {

                    }
                  }
                ],
                "transitions" : [
                  {
                    "name" : "CubeRotate",
                    "duration" : 352800000,
                    "leftMedia" : 24,
                    "attributes" : {
                      "bypass" : false,
                      "reverse" : false,
                      "trivial" : false,
                      "useAudioPreRoll" : true,
                      "useVisualPreRoll" : true
                    }

                  },
                  {
                    "name" : "RadialWipe",
                    "duration" : 352800000,
                    "leftMedia" : 37,
                    "attributes" : {
                      "bypass" : false,
                      "reverse" : false,
                      "trivial" : false,
                      "useAudioPreRoll" : true,
                      "useVisualPreRoll" : true
                    }

                  },
                  {
                    "name" : "RadialWipe",
                    "duration" : 352800000,
                    "leftMedia" : 52,
                    "attributes" : {
                      "bypass" : false,
                      "reverse" : false,
                      "trivial" : false,
                      "useAudioPreRoll" : true,
                      "useVisualPreRoll" : true
                    }

                  },
                  {
                    "name" : "RadialWipe",
                    "duration" : 352800000,
                    "leftMedia" : 75,
                    "attributes" : {
                      "bypass" : false,
                      "reverse" : false,
                      "trivial" : false,
                      "useAudioPreRoll" : true,
                      "useVisualPreRoll" : true
                    }

                  },
                  {
                    "name" : "RadialWipe",
                    "duration" : 352800000,
                    "leftMedia" : 90,
                    "attributes" : {
                      "bypass" : false,
                      "reverse" : false,
                      "trivial" : false,
                      "useAudioPreRoll" : true,
                      "useVisualPreRoll" : true
                    }

                  },
                  {
                    "name" : "RadialWipe",
                    "duration" : 352800000,
                    "leftMedia" : 105,
                    "attributes" : {
                      "bypass" : false,
                      "reverse" : false,
                      "trivial" : false,
                      "useAudioPreRoll" : true,
                      "useVisualPreRoll" : true
                    }

                  },
                  {
                    "name" : "RadialWipe",
                    "duration" : 352800000,
                    "leftMedia" : 127,
                    "attributes" : {
                      "bypass" : false,
                      "reverse" : false,
                      "trivial" : false,
                      "useAudioPreRoll" : true,
                      "useVisualPreRoll" : true
                    }

                  },
                  {
                    "name" : "Flip",
                    "duration" : 352800000,
                    "rightMedia" : 170,
                    "attributes" : {
                      "bypass" : false,
                      "reverse" : false,
                      "trivial" : false,
                      "useAudioPreRoll" : true,
                      "useVisualPreRoll" : true
                    }

                  }
                ]
              },
              {
                "trackIndex" : 1,
                "medias" : [
                  {
                    "id" : 176,
                    "_type" : "Callout",
                    "def" : {
                        "kind" : "remix",
                        "shape" : "shape-rectangle",
                        "style" : "basic",
                        "fill-color-blue" : 1.0,
                        "fill-color-green" : 1.0,
                        "fill-color-opacity" : 1.0,
                        "fill-color-red" : 1.0,
                        "height" : 36.920731707317,
                        "stroke-color-blue" : 1.0,
                        "stroke-color-green" : 1.0,
                        "stroke-color-opacity" : 1.0,
                        "stroke-color-red" : 1.0,
                        "stroke-width" : 0.0,
                        "width" : 1613.56097560976,
                        "fill-style" : "solid",
                        "stroke-style" : "solid"
                    },
                    "attributes" : {
                      "ident" : "",
                      "autoRotateText" : true
                    },
                    "parameters" : {
                      "translation0" : -78.0243902439015,
                      "translation1" : 379.268292682927,
                      "scale0" : 1.10803324099723,
                      "scale1" : 1.10803324099723,
                      "geometryCrop0" : 0.0,
                      "geometryCrop1" : 0.0,
                      "geometryCrop2" : 0.0,
                      "geometryCrop3" : 0.0
                    },
                    "effects" : [

                    ],
                    "start" : 5644800000,
                    "duration" : 5762400000,
                    "mediaStart" : 0,
                    "mediaDuration" : 5762400000,
                    "scalar" : 1,
                    "metadata" : {
                      "clipSpeedAttribute" : false,
                      "default-anchor0" : 0.0,
                      "default-anchor1" : 0.0,
                      "default-anchor2" : 0.0,
                      "default-height" : 180.0,
                      "default-rotation0" : 0.0,
                      "default-rotation1" : 0.0,
                      "default-rotation2" : 0.0,
                      "default-scale0" : 1.0,
                      "default-scale1" : 1.0,
                      "default-scale2" : 1.0,
                      "default-shear0" : 0.0,
                      "default-shear1" : 0.0,
                      "default-shear2" : 0.0,
                      "default-translation0" : 0.0,
                      "default-translation1" : 0.0,
                      "default-translation2" : 0.0,
                      "default-width" : 240.0
                    },
                    "animationTracks" : {

                    }
                  },
                  {
                    "id" : 177,
                    "_type" : "Callout",
                    "def" : {
                        "kind" : "remix",
                        "shape" : "shape-rectangle",
                        "style" : "basic",
                        "fill-color-blue" : {
                          "type" : "double",
                          "defaultValue" : 1.0,
                          "interp" : "linr"
                        },
                        "fill-color-green" : {
                          "type" : "double",
                          "defaultValue" : 1.0,
                          "interp" : "linr"
                        },
                        "fill-color-opacity" : {
                          "type" : "double",
                          "defaultValue" : 1.0,
                          "interp" : "linr"
                        },
                        "fill-color-red" : {
                          "type" : "double",
                          "defaultValue" : 1.0,
                          "interp" : "linr"
                        },
                        "height" : {
                          "type" : "double",
                          "defaultValue" : 36.920731707317,
                          "interp" : "linr"
                        },
                        "stroke-color-blue" : {
                          "type" : "double",
                          "defaultValue" : 1.0,
                          "interp" : "linr"
                        },
                        "stroke-color-green" : {
                          "type" : "double",
                          "defaultValue" : 1.0,
                          "interp" : "linr"
                        },
                        "stroke-color-opacity" : {
                          "type" : "double",
                          "defaultValue" : 1.0,
                          "interp" : "linr"
                        },
                        "stroke-color-red" : {
                          "type" : "double",
                          "defaultValue" : 1.0,
                          "interp" : "linr"
                        },
                        "stroke-width" : {
                          "type" : "double",
                          "defaultValue" : 0.0,
                          "interp" : "linr"
                        },
                        "width" : {
                          "type" : "double",
                          "defaultValue" : 1613.56097560976,
                          "interp" : "linr"
                        },
                        "fill-style" : "solid",
                        "stroke-style" : "solid"
                    },
                    "attributes" : {
                      "ident" : "",
                      "autoRotateText" : true
                    },
                    "parameters" : {
                      "translation0" : {
                        "type" : "double",
                        "defaultValue" : -78.0243902439015,
                        "interp" : "eioe"
                      },
                      "translation1" : {
                        "type" : "double",
                        "defaultValue" : 379.268292682927,
                        "interp" : "eioe"
                      },
                      "scale0" : {
                        "type" : "double",
                        "defaultValue" : 1.10803324099723,
                        "interp" : "eioe"
                      },
                      "scale1" : {
                        "type" : "double",
                        "defaultValue" : 1.10803324099723,
                        "interp" : "eioe"
                      },
                      "geometryCrop0" : {
                        "type" : "double",
                        "defaultValue" : 0.0,
                        "interp" : "eioe"
                      },
                      "geometryCrop1" : {
                        "type" : "double",
                        "defaultValue" : 0.0,
                        "interp" : "eioe"
                      },
                      "geometryCrop2" : {
                        "type" : "double",
                        "defaultValue" : 0.0,
                        "interp" : "eioe"
                      },
                      "geometryCrop3" : {
                        "type" : "double",
                        "defaultValue" : 0.0,
                        "interp" : "eioe"
                      }
                    },
                    "effects" : [

                    ],
                    "start" : 18392640000,
                    "duration" : 8631840000,
                    "mediaStart" : 0,
                    "mediaDuration" : 8631840000,
                    "scalar" : 1,
                    "metadata" : {
                      "clipSpeedAttribute" : false,
                      "default-anchor0" : 0.0,
                      "default-anchor1" : 0.0,
                      "default-anchor2" : 0.0,
                      "default-height" : 180.0,
                      "default-rotation0" : 0.0,
                      "default-rotation1" : 0.0,
                      "default-rotation2" : 0.0,
                      "default-scale0" : 1.0,
                      "default-scale1" : 1.0,
                      "default-scale2" : 1.0,
                      "default-shear0" : 0.0,
                      "default-shear1" : 0.0,
                      "default-shear2" : 0.0,
                      "default-translation0" : 0.0,
                      "default-translation1" : 0.0,
                      "default-translation2" : 0.0,
                      "default-width" : 240.0
                    },
                    "animationTracks" : {

                    }
                  },
                  {
                    "id" : 178,
                    "_type" : "Callout",
                    "def" : {
                        "kind" : "remix",
                        "shape" : "shape-rectangle",
                        "style" : "basic",
                        "fill-color-blue" : {
                          "type" : "double",
                          "defaultValue" : 1.0,
                          "interp" : "linr"
                        },
                        "fill-color-green" : {
                          "type" : "double",
                          "defaultValue" : 1.0,
                          "interp" : "linr"
                        },
                        "fill-color-opacity" : {
                          "type" : "double",
                          "defaultValue" : 1.0,
                          "interp" : "linr"
                        },
                        "fill-color-red" : {
                          "type" : "double",
                          "defaultValue" : 1.0,
                          "interp" : "linr"
                        },
                        "height" : {
                          "type" : "double",
                          "defaultValue" : 36.920731707317,
                          "interp" : "linr"
                        },
                        "stroke-color-blue" : {
                          "type" : "double",
                          "defaultValue" : 1.0,
                          "interp" : "linr"
                        },
                        "stroke-color-green" : {
                          "type" : "double",
                          "defaultValue" : 1.0,
                          "interp" : "linr"
                        },
                        "stroke-color-opacity" : {
                          "type" : "double",
                          "defaultValue" : 1.0,
                          "interp" : "linr"
                        },
                        "stroke-color-red" : {
                          "type" : "double",
                          "defaultValue" : 1.0,
                          "interp" : "linr"
                        },
                        "stroke-width" : {
                          "type" : "double",
                          "defaultValue" : 0.0,
                          "interp" : "linr"
                        },
                        "width" : {
                          "type" : "double",
                          "defaultValue" : 1613.56097560976,
                          "interp" : "linr"
                        },
                        "fill-style" : "solid",
                        "stroke-style" : "solid"
                    },
                    "attributes" : {
                      "ident" : "",
                      "autoRotateText" : true
                    },
                    "parameters" : {
                      "translation0" : {
                        "type" : "double",
                        "defaultValue" : -78.0243902439015,
                        "interp" : "eioe"
                      },
                      "translation1" : {
                        "type" : "double",
                        "defaultValue" : 379.268292682927,
                        "interp" : "eioe"
                      },
                      "scale0" : {
                        "type" : "double",
                        "defaultValue" : 1.10803324099723,
                        "interp" : "eioe"
                      },
                      "scale1" : {
                        "type" : "double",
                        "defaultValue" : 1.10803324099723,
                        "interp" : "eioe"
                      },
                      "geometryCrop0" : {
                        "type" : "double",
                        "defaultValue" : 0.0,
                        "interp" : "eioe"
                      },
                      "geometryCrop1" : {
                        "type" : "double",
                        "defaultValue" : 0.0,
                        "interp" : "eioe"
                      },
                      "geometryCrop2" : {
                        "type" : "double",
                        "defaultValue" : 0.0,
                        "interp" : "eioe"
                      },
                      "geometryCrop3" : {
                        "type" : "double",
                        "defaultValue" : 0.0,
                        "interp" : "eioe"
                      }
                    },
                    "effects" : [

                    ],
                    "start" : 29211840000,
                    "duration" : 7432320000,
                    "mediaStart" : 0,
                    "mediaDuration" : 7432320000,
                    "scalar" : 1,
                    "metadata" : {
                      "clipSpeedAttribute" : false,
                      "default-anchor0" : 0.0,
                      "default-anchor1" : 0.0,
                      "default-anchor2" : 0.0,
                      "default-height" : 180.0,
                      "default-rotation0" : 0.0,
                      "default-rotation1" : 0.0,
                      "default-rotation2" : 0.0,
                      "default-scale0" : 1.0,
                      "default-scale1" : 1.0,
                      "default-scale2" : 1.0,
                      "default-shear0" : 0.0,
                      "default-shear1" : 0.0,
                      "default-shear2" : 0.0,
                      "default-translation0" : 0.0,
                      "default-translation1" : 0.0,
                      "default-translation2" : 0.0,
                      "default-width" : 240.0
                    },
                    "animationTracks" : {

                    }
                  },
                  {
                    "id" : 179,
                    "_type" : "Callout",
                    "def" : {
                        "kind" : "remix",
                        "shape" : "shape-rectangle",
                        "style" : "basic",
                        "fill-color-blue" : {
                          "type" : "double",
                          "defaultValue" : 1.0,
                          "interp" : "linr"
                        },
                        "fill-color-green" : {
                          "type" : "double",
                          "defaultValue" : 1.0,
                          "interp" : "linr"
                        },
                        "fill-color-opacity" : {
                          "type" : "double",
                          "defaultValue" : 1.0,
                          "interp" : "linr"
                        },
                        "fill-color-red" : {
                          "type" : "double",
                          "defaultValue" : 1.0,
                          "interp" : "linr"
                        },
                        "height" : {
                          "type" : "double",
                          "defaultValue" : 36.920731707317,
                          "interp" : "linr"
                        },
                        "stroke-color-blue" : {
                          "type" : "double",
                          "defaultValue" : 1.0,
                          "interp" : "linr"
                        },
                        "stroke-color-green" : {
                          "type" : "double",
                          "defaultValue" : 1.0,
                          "interp" : "linr"
                        },
                        "stroke-color-opacity" : {
                          "type" : "double",
                          "defaultValue" : 1.0,
                          "interp" : "linr"
                        },
                        "stroke-color-red" : {
                          "type" : "double",
                          "defaultValue" : 1.0,
                          "interp" : "linr"
                        },
                        "stroke-width" : {
                          "type" : "double",
                          "defaultValue" : 0.0,
                          "interp" : "linr"
                        },
                        "width" : {
                          "type" : "double",
                          "defaultValue" : 1613.56097560976,
                          "interp" : "linr"
                        },
                        "fill-style" : "solid",
                        "stroke-style" : "solid"
                    },
                    "attributes" : {
                      "ident" : "",
                      "autoRotateText" : true
                    },
                    "parameters" : {
                      "translation0" : {
                        "type" : "double",
                        "defaultValue" : -78.0243902439015,
                        "interp" : "eioe"
                      },
                      "translation1" : {
                        "type" : "double",
                        "defaultValue" : 379.268292682927,
                        "interp" : "eioe"
                      },
                      "scale0" : {
                        "type" : "double",
                        "defaultValue" : 1.10803324099723,
                        "interp" : "eioe"
                      },
                      "scale1" : {
                        "type" : "double",
                        "defaultValue" : 1.10803324099723,
                        "interp" : "eioe"
                      },
                      "geometryCrop0" : {
                        "type" : "double",
                        "defaultValue" : 0.0,
                        "interp" : "eioe"
                      },
                      "geometryCrop1" : {
                        "type" : "double",
                        "defaultValue" : 0.0,
                        "interp" : "eioe"
                      },
                      "geometryCrop2" : {
                        "type" : "double",
                        "defaultValue" : 0.0,
                        "interp" : "eioe"
                      },
                      "geometryCrop3" : {
                        "type" : "double",
                        "defaultValue" : 0.0,
                        "interp" : "eioe"
                      }
                    },
                    "effects" : [

                    ],
                    "start" : 38831520000,
                    "duration" : 4210080000,
                    "mediaStart" : 0,
                    "mediaDuration" : 4210080000,
                    "scalar" : 1,
                    "metadata" : {
                      "clipSpeedAttribute" : false,
                      "default-anchor0" : 0.0,
                      "default-anchor1" : 0.0,
                      "default-anchor2" : 0.0,
                      "default-height" : 180.0,
                      "default-rotation0" : 0.0,
                      "default-rotation1" : 0.0,
                      "default-rotation2" : 0.0,
                      "default-scale0" : 1.0,
                      "default-scale1" : 1.0,
                      "default-scale2" : 1.0,
                      "default-shear0" : 0.0,
                      "default-shear1" : 0.0,
                      "default-shear2" : 0.0,
                      "default-translation0" : 0.0,
                      "default-translation1" : 0.0,
                      "default-translation2" : 0.0,
                      "default-width" : 240.0
                    },
                    "animationTracks" : {

                    }
                  },
                  {
                    "id" : 180,
                    "_type" : "Callout",
                    "def" : {
                        "kind" : "remix",
                        "shape" : "shape-rectangle",
                        "style" : "basic",
                        "fill-color-blue" : {
                          "type" : "double",
                          "defaultValue" : 1.0,
                          "interp" : "linr"
                        },
                        "fill-color-green" : {
                          "type" : "double",
                          "defaultValue" : 1.0,
                          "interp" : "linr"
                        },
                        "fill-color-opacity" : {
                          "type" : "double",
                          "defaultValue" : 1.0,
                          "interp" : "linr"
                        },
                        "fill-color-red" : {
                          "type" : "double",
                          "defaultValue" : 1.0,
                          "interp" : "linr"
                        },
                        "height" : {
                          "type" : "double",
                          "defaultValue" : 36.920731707317,
                          "interp" : "linr"
                        },
                        "stroke-color-blue" : {
                          "type" : "double",
                          "defaultValue" : 1.0,
                          "interp" : "linr"
                        },
                        "stroke-color-green" : {
                          "type" : "double",
                          "defaultValue" : 1.0,
                          "interp" : "linr"
                        },
                        "stroke-color-opacity" : {
                          "type" : "double",
                          "defaultValue" : 1.0,
                          "interp" : "linr"
                        },
                        "stroke-color-red" : {
                          "type" : "double",
                          "defaultValue" : 1.0,
                          "interp" : "linr"
                        },
                        "stroke-width" : {
                          "type" : "double",
                          "defaultValue" : 0.0,
                          "interp" : "linr"
                        },
                        "width" : {
                          "type" : "double",
                          "defaultValue" : 1613.56097560976,
                          "interp" : "linr"
                        },
                        "fill-style" : "solid",
                        "stroke-style" : "solid"
                    },
                    "attributes" : {
                      "ident" : "",
                      "autoRotateText" : true
                    },
                    "parameters" : {
                      "translation0" : {
                        "type" : "double",
                        "defaultValue" : -78.0243902439015,
                        "interp" : "eioe"
                      },
                      "translation1" : {
                        "type" : "double",
                        "defaultValue" : 379.268292682927,
                        "interp" : "eioe"
                      },
                      "scale0" : {
                        "type" : "double",
                        "defaultValue" : 1.10803324099723,
                        "interp" : "eioe"
                      },
                      "scale1" : {
                        "type" : "double",
                        "defaultValue" : 1.10803324099723,
                        "interp" : "eioe"
                      },
                      "geometryCrop0" : {
                        "type" : "double",
                        "defaultValue" : 0.0,
                        "interp" : "eioe"
                      },
                      "geometryCrop1" : {
                        "type" : "double",
                        "defaultValue" : 0.0,
                        "interp" : "eioe"
                      },
                      "geometryCrop2" : {
                        "type" : "double",
                        "defaultValue" : 0.0,
                        "interp" : "eioe"
                      },
                      "geometryCrop3" : {
                        "type" : "double",
                        "defaultValue" : 0.0,
                        "interp" : "eioe"
                      }
                    },
                    "effects" : [

                    ],
                    "start" : 45228960000,
                    "duration" : 8255520000,
                    "mediaStart" : 0,
                    "mediaDuration" : 8255520000,
                    "scalar" : 1,
                    "metadata" : {
                      "clipSpeedAttribute" : false,
                      "default-anchor0" : 0.0,
                      "default-anchor1" : 0.0,
                      "default-anchor2" : 0.0,
                      "default-height" : 180.0,
                      "default-rotation0" : 0.0,
                      "default-rotation1" : 0.0,
                      "default-rotation2" : 0.0,
                      "default-scale0" : 1.0,
                      "default-scale1" : 1.0,
                      "default-scale2" : 1.0,
                      "default-shear0" : 0.0,
                      "default-shear1" : 0.0,
                      "default-shear2" : 0.0,
                      "default-translation0" : 0.0,
                      "default-translation1" : 0.0,
                      "default-translation2" : 0.0,
                      "default-width" : 240.0
                    },
                    "animationTracks" : {

                    }
                  }
                ]
              },
              {
                "trackIndex" : 2,
                "medias" : [
                  {
                    "id" : 181,
                    "_type" : "StitchedMedia",
                    "minMediaStart" : 0,
                    "attributes" : {
                      "ident" : "audioblocks-fun-times-by-cronicbeats-92bpm_SBKXmx0",
                      "gain" : 1.0,
                      "mixToMono" : false,
                      "loudnessNormalization" : true,
                      "sourceFileOffset" : 0
                    },
                    "parameters" : {
                      "volume" : {
                        "type" : "double",
                        "keyframes" : [
                          {
                            "endTime" : 0,
                            "time" : 0,
                            "value" : 1.0,
                            "duration" : 0
                          },
                          {
                            "endTime" : 5621280000,
                            "time" : 5621280000,
                            "value" : 1.0,
                            "duration" : 0
                          },
                          {
                            "endTime" : 5644800000,
                            "time" : 5644800000,
                            "value" : 0.0,
                            "duration" : 0
                          },
                          {
                            "endTime" : 7761600000,
                            "time" : 7761600000,
                            "value" : 0.622710622710625,
                            "duration" : 0
                          },
                          {
                            "endTime" : 75122880000,
                            "time" : 75122880000,
                            "value" : 0.622710622710625,
                            "duration" : 0
                          },
                          {
                            "endTime" : 77239680000,
                            "time" : 77239680000,
                            "value" : 0.0,
                            "duration" : 0
                          },
                          {
                            "endTime" : 77263200000,
                            "time" : 77263200000,
                            "value" : 0.622710622710625,
                            "duration" : 0
                          },
                          {
                            "endTime" : 99066240000,
                            "time" : 99066240000,
                            "value" : 0.622710622710625,
                            "duration" : 0
                          },
                          {
                            "endTime" : 101183040000,
                            "time" : 101183040000,
                            "value" : 0.0,
                            "duration" : 0
                          },
                          {
                            "endTime" : 101206560000,
                            "time" : 101206560000,
                            "value" : 1.0,
                            "duration" : 0
                          }
                        ]
                      },
                      "smoothCursorAcrossEditDuration" : 0
                    },
                    "medias" : [
                        {
                          "id" : 182,
                          "_type" : "AMFile",
                          "src" : 4,
                          "trackNumber" : 0,
                          "attributes" : {
                            "ident" : "audioblocks-fun-times-by-cronicbeats-92bpm_SBKXmx0",
                            "gain" : 1.0,
                            "mixToMono" : false,
                            "loudnessNormalization" : true,
                            "sourceFileOffset" : 0
                          },
                            "channelNumber" : "0,1",
                          "effects" : [

                          ],
                          "start" : 0,
                          "duration" : 16040640000,
                          "mediaStart" : 0,
                          "mediaDuration" : 16040640000,
                          "scalar" : 1,
                          "metadata" : {
                            "clipSpeedAttribute" : false
                          },
                          "animationTracks" : {

                          }
                        },
                        {
                          "id" : 183,
                          "_type" : "AMFile",
                          "src" : 4,
                          "trackNumber" : 0,
                          "attributes" : {
                            "ident" : "audioblocks-fun-times-by-cronicbeats-92bpm_SBKXmx0",
                            "gain" : 1.0,
                            "mixToMono" : false,
                            "loudnessNormalization" : true,
                            "sourceFileOffset" : 0
                          },
                            "channelNumber" : "0,1",
                          "effects" : [

                          ],
                          "start" : 16040640000,
                          "duration" : 138815040000,
                          "mediaStart" : 16534560000,
                          "mediaDuration" : 138815040000,
                          "scalar" : 1,
                          "metadata" : {
                            "clipSpeedAttribute" : false
                          },
                          "animationTracks" : {

                          }
                        }
                    ],
                    "effects" : [

                    ],
                    "start" : 0,
                    "duration" : 71594880000,
                    "mediaStart" : 5644800000,
                    "mediaDuration" : 71594880000,
                    "scalar" : 1,
                    "metadata" : {
                      "clipSpeedAttribute" : false
                    },
                    "animationTracks" : {

                    }
                  }
                ]
              },
              {
                "trackIndex" : 3,
                "medias" : [
                  {
                    "id" : 184,
                    "_type" : "AMFile",
                    "src" : 6,
                    "trackNumber" : 0,
                    "attributes" : {
                      "ident" : "n1",
                      "gain" : 1.0,
                      "mixToMono" : false,
                      "loudnessNormalization" : true,
                      "sourceFileOffset" : 0
                    },
                      "channelNumber" : "0",
                    "effects" : [
                        {
                          "effectName" : "Emphasize",
                          "bypassed" : false,
                          "category" : "categoryAudioEffects",
                          "parameters" : {
                            "emphasizeAmount" : 0.8,
                            "emphasizeRampPosition" : 0,
                            "emphasizeRampInTime" : 705600000,
                            "emphasizeRampOutTime" : 705600000
                          },
                          "metadata" : {
                            "presetName" : "Emphasize"
                          }
                        }
                    ],
                    "start" : 1293600000,
                    "duration" : 1387680000,
                    "mediaStart" : 0,
                    "mediaDuration" : 1387680000,
                    "scalar" : 1,
                    "metadata" : {
                      "clipSpeedAttribute" : false
                    },
                    "animationTracks" : {

                    }
                  },
                  {
                    "id" : 185,
                    "_type" : "AMFile",
                    "src" : 7,
                    "trackNumber" : 0,
                    "attributes" : {
                      "ident" : "n2",
                      "gain" : 1.0,
                      "mixToMono" : false,
                      "loudnessNormalization" : true,
                      "sourceFileOffset" : 0
                    },
                      "channelNumber" : "0",
                    "effects" : [
                        {
                          "effectName" : "Emphasize",
                          "bypassed" : false,
                          "category" : "categoryAudioEffects",
                          "parameters" : {
                            "emphasizeAmount" : 0.8,
                            "emphasizeRampPosition" : 0,
                            "emphasizeRampInTime" : 705600000,
                            "emphasizeRampOutTime" : 705600000
                          },
                          "metadata" : {
                            "presetName" : "Emphasize"
                          }
                        }
                    ],
                    "start" : 4139520000,
                    "duration" : 893760000,
                    "mediaStart" : 0,
                    "mediaDuration" : 893760000,
                    "scalar" : 1,
                    "metadata" : {
                      "clipSpeedAttribute" : false
                    },
                    "animationTracks" : {

                    }
                  },
                  {
                    "id" : 186,
                    "_type" : "StitchedMedia",
                    "minMediaStart" : 0,
                    "attributes" : {
                      "ident" : "n3",
                      "gain" : 1.0,
                      "mixToMono" : false,
                      "loudnessNormalization" : true,
                      "sourceFileOffset" : 0
                    },
                    "parameters" : {
                      "volume" : 1.0,
                      "smoothCursorAcrossEditDuration" : 0
                    },
                    "medias" : [
                        {
                          "id" : 187,
                          "_type" : "AMFile",
                          "src" : 8,
                          "trackNumber" : 0,
                          "attributes" : {
                            "ident" : "n3",
                            "gain" : 1.0,
                            "mixToMono" : false,
                            "loudnessNormalization" : true,
                            "sourceFileOffset" : 0
                          },
                            "channelNumber" : "0",
                          "effects" : [

                          ],
                          "start" : 0,
                          "duration" : 4021920000,
                          "mediaStart" : 0,
                          "mediaDuration" : 4021920000,
                          "scalar" : 1,
                          "metadata" : {
                            "clipSpeedAttribute" : false
                          },
                          "animationTracks" : {

                          }
                        },
                        {
                          "id" : 188,
                          "_type" : "AMFile",
                          "src" : 8,
                          "trackNumber" : 0,
                          "attributes" : {
                            "ident" : "n3",
                            "gain" : 1.0,
                            "mixToMono" : false,
                            "loudnessNormalization" : true,
                            "sourceFileOffset" : 0
                          },
                            "channelNumber" : "0",
                          "effects" : [

                          ],
                          "start" : 4021920000,
                          "duration" : 1223040000,
                          "mediaStart" : 4515840000,
                          "mediaDuration" : 1223040000,
                          "scalar" : 1,
                          "metadata" : {
                            "clipSpeedAttribute" : false
                          },
                          "animationTracks" : {

                          }
                        }
                    ],
                    "effects" : [
                        {
                          "effectName" : "Emphasize",
                          "bypassed" : false,
                          "category" : "categoryAudioEffects",
                          "parameters" : {
                            "emphasizeAmount" : 0.8,
                            "emphasizeRampPosition" : 0,
                            "emphasizeRampInTime" : 705600000,
                            "emphasizeRampOutTime" : 705600000
                          },
                          "metadata" : {
                            "presetName" : "Emphasize"
                          }
                        }
                    ],
                    "start" : 6232800000,
                    "duration" : 4774560000,
                    "mediaStart" : 0,
                    "mediaDuration" : 4774560000,
                    "scalar" : 1,
                    "metadata" : {
                      "clipSpeedAttribute" : false
                    },
                    "animationTracks" : {

                    }
                  },
                  {
                    "id" : 189,
                    "_type" : "AMFile",
                    "src" : 9,
                    "trackNumber" : 0,
                    "attributes" : {
                      "ident" : "n4",
                      "gain" : 1.0,
                      "mixToMono" : false,
                      "loudnessNormalization" : true,
                      "sourceFileOffset" : 0
                    },
                      "channelNumber" : "0",
                    "effects" : [
                        {
                          "effectName" : "Emphasize",
                          "bypassed" : false,
                          "category" : "categoryAudioEffects",
                          "parameters" : {
                            "emphasizeAmount" : 0.8,
                            "emphasizeRampPosition" : 0,
                            "emphasizeRampInTime" : 705600000,
                            "emphasizeRampOutTime" : 705600000
                          },
                          "metadata" : {
                            "presetName" : "Emphasize"
                          }
                        }
                    ],
                    "start" : 11971680000,
                    "duration" : 1293600000,
                    "mediaStart" : 0,
                    "mediaDuration" : 1293600000,
                    "scalar" : 1,
                    "metadata" : {
                      "clipSpeedAttribute" : false
                    },
                    "animationTracks" : {

                    }
                  },
                  {
                    "id" : 190,
                    "_type" : "AMFile",
                    "src" : 10,
                    "trackNumber" : 0,
                    "attributes" : {
                      "ident" : "n5",
                      "gain" : 1.0,
                      "mixToMono" : false,
                      "loudnessNormalization" : true,
                      "sourceFileOffset" : 0
                    },
                      "channelNumber" : "0",
                    "effects" : [
                        {
                          "effectName" : "Emphasize",
                          "bypassed" : false,
                          "category" : "categoryAudioEffects",
                          "parameters" : {
                            "emphasizeAmount" : 0.8,
                            "emphasizeRampPosition" : 0,
                            "emphasizeRampInTime" : 705600000,
                            "emphasizeRampOutTime" : 705600000
                          },
                          "metadata" : {
                            "presetName" : "Emphasize"
                          }
                        }
                    ],
                    "start" : 13994400000,
                    "duration" : 3833760000,
                    "mediaStart" : 0,
                    "mediaDuration" : 3833760000,
                    "scalar" : 1,
                    "metadata" : {
                      "clipSpeedAttribute" : false
                    },
                    "animationTracks" : {

                    }
                  },
                  {
                    "id" : 191,
                    "_type" : "AMFile",
                    "src" : 11,
                    "trackNumber" : 0,
                    "attributes" : {
                      "ident" : "n6",
                      "gain" : 1.0,
                      "mixToMono" : false,
                      "loudnessNormalization" : true,
                      "sourceFileOffset" : 0
                    },
                      "channelNumber" : "0",
                    "effects" : [
                        {
                          "effectName" : "Emphasize",
                          "bypassed" : false,
                          "category" : "categoryAudioEffects",
                          "parameters" : {
                            "emphasizeAmount" : 0.8,
                            "emphasizeRampPosition" : 0,
                            "emphasizeRampInTime" : 705600000,
                            "emphasizeRampOutTime" : 705600000
                          },
                          "metadata" : {
                            "presetName" : "Emphasize"
                          }
                        }
                    ],
                    "start" : 19215840000,
                    "duration" : 6891360000,
                    "mediaStart" : 0,
                    "mediaDuration" : 6891360000,
                    "scalar" : 1,
                    "metadata" : {
                      "clipSpeedAttribute" : false
                    },
                    "animationTracks" : {

                    }
                  },
                  {
                    "id" : 192,
                    "_type" : "AMFile",
                    "src" : 13,
                    "trackNumber" : 0,
                    "attributes" : {
                      "ident" : "n7",
                      "gain" : 1.0,
                      "mixToMono" : false,
                      "loudnessNormalization" : true,
                      "sourceFileOffset" : 0
                    },
                      "channelNumber" : "0",
                    "effects" : [
                        {
                          "effectName" : "Emphasize",
                          "bypassed" : false,
                          "category" : "categoryAudioEffects",
                          "parameters" : {
                            "emphasizeAmount" : 0.8,
                            "emphasizeRampPosition" : 0,
                            "emphasizeRampInTime" : 705600000,
                            "emphasizeRampOutTime" : 705600000
                          },
                          "metadata" : {
                            "presetName" : "Emphasize"
                          }
                        }
                    ],
                    "start" : 27683040000,
                    "duration" : 1176000000,
                    "mediaStart" : 0,
                    "mediaDuration" : 1176000000,
                    "scalar" : 1,
                    "metadata" : {
                      "clipSpeedAttribute" : false
                    },
                    "animationTracks" : {

                    }
                  },
                  {
                    "id" : 193,
                    "_type" : "AMFile",
                    "src" : 14,
                    "trackNumber" : 0,
                    "attributes" : {
                      "ident" : "n8",
                      "gain" : 1.0,
                      "mixToMono" : false,
                      "loudnessNormalization" : true,
                      "sourceFileOffset" : 0
                    },
                      "channelNumber" : "0",
                    "effects" : [
                        {
                          "effectName" : "Emphasize",
                          "bypassed" : false,
                          "category" : "categoryAudioEffects",
                          "parameters" : {
                            "emphasizeAmount" : 0.8,
                            "emphasizeRampPosition" : 0,
                            "emphasizeRampInTime" : 705600000,
                            "emphasizeRampOutTime" : 705600000
                          },
                          "metadata" : {
                            "presetName" : "Emphasize"
                          }
                        }
                    ],
                    "start" : 29705760000,
                    "duration" : 3034080000,
                    "mediaStart" : 0,
                    "mediaDuration" : 3034080000,
                    "scalar" : 1,
                    "metadata" : {
                      "clipSpeedAttribute" : false
                    },
                    "animationTracks" : {

                    }
                  },
                  {
                    "id" : 194,
                    "_type" : "AMFile",
                    "src" : 15,
                    "trackNumber" : 0,
                    "attributes" : {
                      "ident" : "n9",
                      "gain" : 1.0,
                      "mixToMono" : false,
                      "loudnessNormalization" : true,
                      "sourceFileOffset" : 0
                    },
                      "channelNumber" : "0",
                    "effects" : [
                        {
                          "effectName" : "Emphasize",
                          "bypassed" : false,
                          "category" : "categoryAudioEffects",
                          "parameters" : {
                            "emphasizeAmount" : 0.8,
                            "emphasizeRampPosition" : 0,
                            "emphasizeRampInTime" : 705600000,
                            "emphasizeRampOutTime" : 705600000
                          },
                          "metadata" : {
                            "presetName" : "Emphasize"
                          }
                        }
                    ],
                    "start" : 33421920000,
                    "duration" : 2798880000,
                    "mediaStart" : 0,
                    "mediaDuration" : 2798880000,
                    "scalar" : 1,
                    "metadata" : {
                      "clipSpeedAttribute" : false
                    },
                    "animationTracks" : {

                    }
                  },
                  {
                    "id" : 195,
                    "_type" : "AMFile",
                    "src" : 17,
                    "trackNumber" : 0,
                    "attributes" : {
                      "ident" : "n11",
                      "gain" : 1.0,
                      "mixToMono" : false,
                      "loudnessNormalization" : true,
                      "sourceFileOffset" : 0
                    },
                      "channelNumber" : "0",
                    "effects" : [
                        {
                          "effectName" : "Emphasize",
                          "bypassed" : false,
                          "category" : "categoryAudioEffects",
                          "parameters" : {
                            "emphasizeAmount" : 0.8,
                            "emphasizeRampPosition" : 0,
                            "emphasizeRampInTime" : 705600000,
                            "emphasizeRampOutTime" : 705600000
                          },
                          "metadata" : {
                            "presetName" : "Emphasize"
                          }
                        }
                    ],
                    "start" : 37349760000,
                    "duration" : 1481760000,
                    "mediaStart" : 0,
                    "mediaDuration" : 1481760000,
                    "scalar" : 1,
                    "metadata" : {
                      "clipSpeedAttribute" : false
                    },
                    "animationTracks" : {

                    }
                  },
                  {
                    "id" : 196,
                    "_type" : "AMFile",
                    "src" : 16,
                    "trackNumber" : 0,
                    "attributes" : {
                      "ident" : "n10",
                      "gain" : 1.0,
                      "mixToMono" : false,
                      "loudnessNormalization" : true,
                      "sourceFileOffset" : 0
                    },
                      "channelNumber" : "0",
                    "effects" : [
                        {
                          "effectName" : "Emphasize",
                          "bypassed" : false,
                          "category" : "categoryAudioEffects",
                          "parameters" : {
                            "emphasizeAmount" : 0.8,
                            "emphasizeRampPosition" : 0,
                            "emphasizeRampInTime" : 705600000,
                            "emphasizeRampOutTime" : 705600000
                          },
                          "metadata" : {
                            "presetName" : "Emphasize"
                          }
                        }
                    ],
                    "start" : 39137280000,
                    "duration" : 3386880000,
                    "mediaStart" : 0,
                    "mediaDuration" : 3386880000,
                    "scalar" : 1,
                    "metadata" : {
                      "clipSpeedAttribute" : false
                    },
                    "animationTracks" : {

                    }
                  },
                  {
                    "id" : 197,
                    "_type" : "AMFile",
                    "src" : 18,
                    "trackNumber" : 0,
                    "attributes" : {
                      "ident" : "n12",
                      "gain" : 1.0,
                      "mixToMono" : false,
                      "loudnessNormalization" : true,
                      "sourceFileOffset" : 0
                    },
                      "channelNumber" : "0",
                    "effects" : [
                        {
                          "effectName" : "Emphasize",
                          "bypassed" : false,
                          "category" : "categoryAudioEffects",
                          "parameters" : {
                            "emphasizeAmount" : 0.8,
                            "emphasizeRampPosition" : 0,
                            "emphasizeRampInTime" : 705600000,
                            "emphasizeRampOutTime" : 705600000
                          },
                          "metadata" : {
                            "presetName" : "Emphasize"
                          }
                        }
                    ],
                    "start" : 43676640000,
                    "duration" : 1552320000,
                    "mediaStart" : 0,
                    "mediaDuration" : 1552320000,
                    "scalar" : 1,
                    "metadata" : {
                      "clipSpeedAttribute" : false
                    },
                    "animationTracks" : {

                    }
                  },
                  {
                    "id" : 198,
                    "_type" : "AMFile",
                    "src" : 19,
                    "trackNumber" : 0,
                    "attributes" : {
                      "ident" : "n13",
                      "gain" : 1.0,
                      "mixToMono" : false,
                      "loudnessNormalization" : true,
                      "sourceFileOffset" : 0
                    },
                      "channelNumber" : "0",
                    "effects" : [
                        {
                          "effectName" : "Emphasize",
                          "bypassed" : false,
                          "category" : "categoryAudioEffects",
                          "parameters" : {
                            "emphasizeAmount" : 0.8,
                            "emphasizeRampPosition" : 0,
                            "emphasizeRampInTime" : 705600000,
                            "emphasizeRampOutTime" : 705600000
                          },
                          "metadata" : {
                            "presetName" : "Emphasize"
                          }
                        }
                    ],
                    "start" : 46310880000,
                    "duration" : 2093280000,
                    "mediaStart" : 0,
                    "mediaDuration" : 2093280000,
                    "scalar" : 1,
                    "metadata" : {
                      "clipSpeedAttribute" : false
                    },
                    "animationTracks" : {

                    }
                  },
                  {
                    "id" : 199,
                    "_type" : "AMFile",
                    "src" : 19,
                    "trackNumber" : 0,
                    "attributes" : {
                      "ident" : "n13",
                      "gain" : 1.0,
                      "mixToMono" : false,
                      "loudnessNormalization" : true,
                      "sourceFileOffset" : 0
                    },
                      "channelNumber" : "0",
                    "effects" : [
                        {
                          "effectName" : "Emphasize",
                          "bypassed" : false,
                          "category" : "categoryAudioEffects",
                          "parameters" : {
                            "emphasizeAmount" : 0.8,
                            "emphasizeRampPosition" : 0,
                            "emphasizeRampInTime" : 705600000,
                            "emphasizeRampOutTime" : 705600000
                          },
                          "metadata" : {
                            "presetName" : "Emphasize"
                          }
                        }
                    ],
                    "start" : 49862400000,
                    "duration" : 3175200000,
                    "mediaStart" : 2093280000,
                    "mediaDuration" : 3175200000,
                    "scalar" : 1,
                    "metadata" : {
                      "clipSpeedAttribute" : false
                    },
                    "animationTracks" : {

                    }
                  },
                  {
                    "id" : 200,
                    "_type" : "AMFile",
                    "src" : 20,
                    "trackNumber" : 0,
                    "attributes" : {
                      "ident" : "n14",
                      "gain" : 1.0,
                      "mixToMono" : false,
                      "loudnessNormalization" : true,
                      "sourceFileOffset" : 0
                    },
                      "channelNumber" : "0",
                    "effects" : [
                        {
                          "effectName" : "Emphasize",
                          "bypassed" : false,
                          "category" : "categoryAudioEffects",
                          "parameters" : {
                            "emphasizeAmount" : 0.8,
                            "emphasizeRampPosition" : 0,
                            "emphasizeRampInTime" : 705600000,
                            "emphasizeRampOutTime" : 705600000
                          },
                          "metadata" : {
                            "presetName" : "Emphasize"
                          }
                        }
                    ],
                    "start" : 54001920000,
                    "duration" : 1317120000,
                    "mediaStart" : 0,
                    "mediaDuration" : 1317120000,
                    "scalar" : 1,
                    "metadata" : {
                      "clipSpeedAttribute" : false
                    },
                    "animationTracks" : {

                    }
                  },
                  {
                    "id" : 201,
                    "_type" : "AMFile",
                    "src" : 21,
                    "trackNumber" : 0,
                    "attributes" : {
                      "ident" : "n15",
                      "gain" : 1.0,
                      "mixToMono" : false,
                      "loudnessNormalization" : true,
                      "sourceFileOffset" : 0
                    },
                      "channelNumber" : "0",
                    "effects" : [
                        {
                          "effectName" : "Emphasize",
                          "bypassed" : false,
                          "category" : "categoryAudioEffects",
                          "parameters" : {
                            "emphasizeAmount" : 0.8,
                            "emphasizeRampPosition" : 0,
                            "emphasizeRampInTime" : 705600000,
                            "emphasizeRampOutTime" : 705600000
                          },
                          "metadata" : {
                            "presetName" : "Emphasize"
                          }
                        }
                    ],
                    "start" : 55765920000,
                    "duration" : 2822400000,
                    "mediaStart" : 0,
                    "mediaDuration" : 2822400000,
                    "scalar" : 1,
                    "metadata" : {
                      "clipSpeedAttribute" : false
                    },
                    "animationTracks" : {

                    }
                  },
                  {
                    "id" : 202,
                    "_type" : "AMFile",
                    "src" : 22,
                    "trackNumber" : 0,
                    "attributes" : {
                      "ident" : "n16",
                      "gain" : 1.0,
                      "mixToMono" : false,
                      "loudnessNormalization" : true,
                      "sourceFileOffset" : 0
                    },
                      "channelNumber" : "0",
                    "effects" : [
                        {
                          "effectName" : "Emphasize",
                          "bypassed" : false,
                          "category" : "categoryAudioEffects",
                          "parameters" : {
                            "emphasizeAmount" : 0.8,
                            "emphasizeRampPosition" : 0,
                            "emphasizeRampInTime" : 705600000,
                            "emphasizeRampOutTime" : 705600000
                          },
                          "metadata" : {
                            "presetName" : "Emphasize"
                          }
                        }
                    ],
                    "start" : 59105760000,
                    "duration" : 8420160000,
                    "mediaStart" : 0,
                    "mediaDuration" : 8420160000,
                    "scalar" : 1,
                    "metadata" : {
                      "clipSpeedAttribute" : false
                    },
                    "animationTracks" : {

                    }
                  }
                ]
              },
              {
                "trackIndex" : 4,
                "medias" : [
                  {
                    "id" : 203,
                    "_type" : "Caption",
                    "allowTrimOut" : 1,
                    "maxMediaDuration" : 9.22337e+18,
                    "parameters" : {
                      "captionData" : {
                        "type" : "caption",
                        "keyframes" : [
                          {
                            "endTime" : -9999999,
                            "time" : -9999999,
                            "value" : { "text" : "Contoso Pizza Web UI", "textAttributes" : null },
                            "duration" : 0
                          }
                        ]
                      }
                    },
                    "effects" : [

                    ],
                    "start" : 1293600000,
                    "duration" : 1387680000,
                    "mediaStart" : 0,
                    "mediaDuration" : 1387680000,
                    "scalar" : 1,
                    "metadata" : {
                      "clipSpeedAttribute" : false
                    },
                    "animationTracks" : {

                    }
                  },
                  {
                    "id" : 204,
                    "_type" : "Caption",
                    "allowTrimOut" : 1,
                    "maxMediaDuration" : 9.22337e+18,
                    "parameters" : {
                      "captionData" : {
                        "type" : "caption",
                        "keyframes" : [
                          {
                            "endTime" : -9999999,
                            "time" : -9999999,
                            "value" : { "text" : "About the Project", "textAttributes" : null },
                            "duration" : 0
                          }
                        ]
                      }
                    },
                    "effects" : [

                    ],
                    "start" : 4139520000,
                    "duration" : 893760000,
                    "mediaStart" : 0,
                    "mediaDuration" : 893760000,
                    "scalar" : 1,
                    "metadata" : {
                      "clipSpeedAttribute" : false
                    },
                    "animationTracks" : {

                    }
                  },
                  {
                    "id" : 205,
                    "_type" : "Caption",
                    "allowTrimOut" : 1,
                    "maxMediaDuration" : 9.22337e+18,
                    "parameters" : {
                      "captionData" : {
                        "type" : "caption",
                        "keyframes" : [
                          {
                            "endTime" : -9999999,
                            "time" : -9999999,
                            "value" : { "text" : "This is a completed tutorial project from the Microsoft Learn course \"Create a web UI with ASP.NET Core\"", "textAttributes" : null },
                            "duration" : 0
                          }
                        ]
                      }
                    },
                    "effects" : [

                    ],
                    "start" : 6232800000,
                    "duration" : 4774560000,
                    "mediaStart" : 0,
                    "mediaDuration" : 4774560000,
                    "scalar" : 1,
                    "metadata" : {
                      "clipSpeedAttribute" : false
                    },
                    "animationTracks" : {

                    }
                  },
                  {
                    "id" : 206,
                    "_type" : "Caption",
                    "allowTrimOut" : 1,
                    "maxMediaDuration" : 9.22337e+18,
                    "parameters" : {
                      "captionData" : {
                        "type" : "caption",
                        "keyframes" : [
                          {
                            "endTime" : -9999999,
                            "time" : -9999999,
                            "value" : { "text" : "Running the project locally", "textAttributes" : null },
                            "duration" : 0
                          }
                        ]
                      }
                    },
                    "effects" : [

                    ],
                    "start" : 11971680000,
                    "duration" : 1293600000,
                    "mediaStart" : 0,
                    "mediaDuration" : 1293600000,
                    "scalar" : 1,
                    "metadata" : {
                      "clipSpeedAttribute" : false
                    },
                    "animationTracks" : {

                    }
                  },
                  {
                    "id" : 207,
                    "_type" : "Caption",
                    "allowTrimOut" : 1,
                    "maxMediaDuration" : 9.22337e+18,
                    "parameters" : {
                      "captionData" : {
                        "type" : "caption",
                        "keyframes" : [
                          {
                            "endTime" : -9999999,
                            "time" : -9999999,
                            "value" : { "text" : "use dotnet watch run with the project parameter to build, start, and run the project locally", "textAttributes" : null },
                            "duration" : 0
                          }
                        ]
                      }
                    },
                    "effects" : [

                    ],
                    "start" : 13994400000,
                    "duration" : 3833760000,
                    "mediaStart" : 0,
                    "mediaDuration" : 3833760000,
                    "scalar" : 1,
                    "metadata" : {
                      "clipSpeedAttribute" : false
                    },
                    "animationTracks" : {

                    }
                  },
                  {
                    "id" : 208,
                    "_type" : "Caption",
                    "allowTrimOut" : 1,
                    "maxMediaDuration" : 9.22337e+18,
                    "parameters" : {
                      "captionData" : {
                        "type" : "caption",
                        "keyframes" : [
                          {
                            "endTime" : -9999999,
                            "time" : -9999999,
                            "value" : { "text" : "The web application now opens with a custom welcome page. ", "textAttributes" : null },
                            "duration" : 0
                          },
                          {
                            "endTime" : 2704800000,
                            "time" : 2704800000,
                            "value" : { "text" : "The boilerplate templates are available, but let's direct attention to the Pizza List page. ", "textAttributes" : null },
                            "duration" : 0
                          }
                        ]
                      }
                    },
                    "effects" : [

                    ],
                    "start" : 19215840000,
                    "duration" : 6891360000,
                    "mediaStart" : 0,
                    "mediaDuration" : 6891360000,
                    "scalar" : 1,
                    "metadata" : {
                      "clipSpeedAttribute" : false
                    },
                    "animationTracks" : {

                    }
                  },
                  {
                    "id" : 209,
                    "_type" : "Caption",
                    "allowTrimOut" : 1,
                    "maxMediaDuration" : 9.22337e+18,
                    "parameters" : {
                      "captionData" : {
                        "type" : "caption",
                        "keyframes" : [
                          {
                            "endTime" : -9999999,
                            "time" : -9999999,
                            "value" : { "text" : "Creating a Pizza", "textAttributes" : null },
                            "duration" : 0
                          }
                        ]
                      }
                    },
                    "effects" : [

                    ],
                    "start" : 27683040000,
                    "duration" : 1176000000,
                    "mediaStart" : 0,
                    "mediaDuration" : 1176000000,
                    "scalar" : 1,
                    "metadata" : {
                      "clipSpeedAttribute" : false
                    },
                    "animationTracks" : {

                    }
                  },
                  {
                    "id" : 210,
                    "_type" : "Caption",
                    "allowTrimOut" : 1,
                    "maxMediaDuration" : 9.22337e+18,
                    "parameters" : {
                      "captionData" : {
                        "type" : "caption",
                        "keyframes" : [
                          {
                            "endTime" : -9999999,
                            "time" : -9999999,
                            "value" : { "text" : "Enter the pizza name, select the size, and enter a price. ", "textAttributes" : null },
                            "duration" : 0
                          }
                        ]
                      }
                    },
                    "effects" : [

                    ],
                    "start" : 29705760000,
                    "duration" : 3034080000,
                    "mediaStart" : 0,
                    "mediaDuration" : 3034080000,
                    "scalar" : 1,
                    "metadata" : {
                      "clipSpeedAttribute" : false
                    },
                    "animationTracks" : {

                    }
                  },
                  {
                    "id" : 211,
                    "_type" : "Caption",
                    "allowTrimOut" : 1,
                    "maxMediaDuration" : 9.22337e+18,
                    "parameters" : {
                      "captionData" : {
                        "type" : "caption",
                        "keyframes" : [
                          {
                            "endTime" : -9999999,
                            "time" : -9999999,
                            "value" : { "text" : "Notice the page is refreshed with the newly added pizza. ", "textAttributes" : null },
                            "duration" : 0
                          }
                        ]
                      }
                    },
                    "effects" : [

                    ],
                    "start" : 33398400000,
                    "duration" : 2822400000,
                    "mediaStart" : 0,
                    "mediaDuration" : 2822400000,
                    "scalar" : 1,
                    "metadata" : {
                      "clipSpeedAttribute" : false
                    },
                    "animationTracks" : {

                    }
                  },
                  {
                    "id" : 212,
                    "_type" : "Caption",
                    "allowTrimOut" : 1,
                    "maxMediaDuration" : 9.22337e+18,
                    "parameters" : {
                      "captionData" : {
                        "type" : "caption",
                        "keyframes" : [
                          {
                            "endTime" : -9999999,
                            "time" : -9999999,
                            "value" : { "text" : "Deleting a pizza", "textAttributes" : null },
                            "duration" : 0
                          }
                        ]
                      }
                    },
                    "effects" : [

                    ],
                    "start" : 37349760000,
                    "duration" : 1481760000,
                    "mediaStart" : 0,
                    "mediaDuration" : 1481760000,
                    "scalar" : 1,
                    "metadata" : {
                      "clipSpeedAttribute" : false
                    },
                    "animationTracks" : {

                    }
                  },
                  {
                    "id" : 213,
                    "_type" : "Caption",
                    "allowTrimOut" : 1,
                    "maxMediaDuration" : 9.22337e+18,
                    "parameters" : {
                      "captionData" : {
                        "type" : "caption",
                        "keyframes" : [
                          {
                            "endTime" : -9999999,
                            "time" : -9999999,
                            "value" : { "text" : "Click the Delete button and notice the pizza is now deleted from the list.", "textAttributes" : null },
                            "duration" : 0
                          }
                        ]
                      }
                    },
                    "effects" : [

                    ],
                    "start" : 39137280000,
                    "duration" : 3386880000,
                    "mediaStart" : 0,
                    "mediaDuration" : 3386880000,
                    "scalar" : 1,
                    "metadata" : {
                      "clipSpeedAttribute" : false
                    },
                    "animationTracks" : {

                    }
                  },
                  {
                    "id" : 214,
                    "_type" : "Caption",
                    "allowTrimOut" : 1,
                    "maxMediaDuration" : 9.22337e+18,
                    "parameters" : {
                      "captionData" : {
                        "type" : "caption",
                        "keyframes" : [
                          {
                            "endTime" : -9999999,
                            "time" : -9999999,
                            "value" : { "text" : "Form Validation", "textAttributes" : null },
                            "duration" : 0
                          }
                        ]
                      }
                    },
                    "effects" : [

                    ],
                    "start" : 43653120000,
                    "duration" : 1575840000,
                    "mediaStart" : 0,
                    "mediaDuration" : 1575840000,
                    "scalar" : 1,
                    "metadata" : {
                      "clipSpeedAttribute" : false
                    },
                    "animationTracks" : {

                    }
                  },
                  {
                    "id" : 215,
                    "_type" : "Caption",
                    "allowTrimOut" : 1,
                    "maxMediaDuration" : 9.22337e+18,
                    "parameters" : {
                      "captionData" : {
                        "type" : "caption",
                        "keyframes" : [
                          {
                            "endTime" : -9999999,
                            "time" : -9999999,
                            "value" : { "text" : "The name and price form fields are required. ", "textAttributes" : null },
                            "duration" : 0
                          }
                        ]
                      }
                    },
                    "effects" : [

                    ],
                    "start" : 46310880000,
                    "duration" : 2046240000,
                    "mediaStart" : 0,
                    "mediaDuration" : 2046240000,
                    "scalar" : 1,
                    "metadata" : {
                      "clipSpeedAttribute" : false
                    },
                    "animationTracks" : {

                    }
                  },
                  {
                    "id" : 216,
                    "_type" : "Caption",
                    "allowTrimOut" : 1,
                    "maxMediaDuration" : 9.22337e+18,
                    "parameters" : {
                      "captionData" : {
                        "type" : "caption",
                        "keyframes" : [
                          {
                            "endTime" : -9999999,
                            "time" : -9999999,
                            "value" : { "text" : "Users are required to enter the price within a preset range. ", "textAttributes" : null },
                            "duration" : 0
                          }
                        ]
                      }
                    },
                    "effects" : [

                    ],
                    "start" : 49815360000,
                    "duration" : 3222240000,
                    "mediaStart" : 2046240000,
                    "mediaDuration" : 3222240000,
                    "scalar" : 1,
                    "metadata" : {
                      "clipSpeedAttribute" : false
                    },
                    "animationTracks" : {

                    }
                  },
                  {
                    "id" : 217,
                    "_type" : "Caption",
                    "allowTrimOut" : 1,
                    "maxMediaDuration" : 9.22337e+18,
                    "parameters" : {
                      "captionData" : {
                        "type" : "caption",
                        "keyframes" : [
                          {
                            "endTime" : -9999999,
                            "time" : -9999999,
                            "value" : { "text" : "Embedded SQL Database", "textAttributes" : null },
                            "duration" : 0
                          }
                        ]
                      }
                    },
                    "effects" : [

                    ],
                    "start" : 54001920000,
                    "duration" : 1317120000,
                    "mediaStart" : 0,
                    "mediaDuration" : 1317120000,
                    "scalar" : 1,
                    "metadata" : {
                      "clipSpeedAttribute" : false
                    },
                    "animationTracks" : {

                    }
                  },
                  {
                    "id" : 218,
                    "_type" : "Caption",
                    "allowTrimOut" : 1,
                    "maxMediaDuration" : 9.22337e+18,
                    "parameters" : {
                      "captionData" : {
                        "type" : "caption",
                        "keyframes" : [
                          {
                            "endTime" : -9999999,
                            "time" : -9999999,
                            "value" : { "text" : "To make things simple, this project uses an embedded SQL database.", "textAttributes" : null },
                            "duration" : 0
                          }
                        ]
                      }
                    },
                    "effects" : [

                    ],
                    "start" : 55765920000,
                    "duration" : 2822400000,
                    "mediaStart" : 0,
                    "mediaDuration" : 2822400000,
                    "scalar" : 1,
                    "metadata" : {
                      "clipSpeedAttribute" : false
                    },
                    "animationTracks" : {

                    }
                  },
                  {
                    "id" : 219,
                    "_type" : "Caption",
                    "allowTrimOut" : 1,
                    "maxMediaDuration" : 9.22337e+18,
                    "parameters" : {
                      "captionData" : {
                        "type" : "caption",
                        "keyframes" : [
                          {
                            "endTime" : -9999999,
                            "time" : -9999999,
                            "value" : { "text" : "SQL Light is a Visual Studio extension that can be used to view and edit the embedded database. ", "textAttributes" : null },
                            "duration" : 0
                          },
                          {
                            "endTime" : 4116000000,
                            "time" : 4116000000,
                            "value" : { "text" : "This extension can currently be downloaded and installed for free from the Visual Studio marketplace.", "textAttributes" : null },
                            "duration" : 0
                          }
                        ]
                      }
                    },
                    "effects" : [

                    ],
                    "start" : 59105760000,
                    "duration" : 8420160000,
                    "mediaStart" : 0,
                    "mediaDuration" : 8420160000,
                    "scalar" : 1,
                    "metadata" : {
                      "clipSpeedAttribute" : false
                    },
                    "animationTracks" : {

                    }
                  }
                ]
              },
              {
                "trackIndex" : 5,
                "medias" : [
                ]
              }            ]
          }
        }
      ]
    },
    "trackAttributes" : [
      {
        "ident" : "Video",
        "audioMuted" : false,
        "videoHidden" : false,
        "magnetic" : false,
        "matte" : 0,
        "solo" : false,
        "metadata" : {
          "IsLocked" : "False",
          "WinTrackHeight" : "56"
        }
      },
      {
        "ident" : "Annotation",
        "audioMuted" : false,
        "videoHidden" : false,
        "magnetic" : false,
        "matte" : 0,
        "solo" : false,
        "metadata" : {
          "IsLocked" : "False",
          "WinTrackHeight" : "56"
        }
      },
      {
        "ident" : "Music",
        "audioMuted" : false,
        "videoHidden" : false,
        "magnetic" : false,
        "matte" : 0,
        "solo" : false,
        "metadata" : {
          "IsLocked" : "False",
          "WinTrackHeight" : "56"
        }
      },
      {
        "ident" : "Narration",
        "audioMuted" : false,
        "videoHidden" : false,
        "magnetic" : false,
        "matte" : 0,
        "solo" : false,
        "metadata" : {
          "IsLocked" : "False",
          "WinTrackHeight" : "56"
        }
      },
      {
        "ident" : "Captions",
        "audioMuted" : true,
        "videoHidden" : true,
        "magnetic" : false,
        "matte" : 0,
        "solo" : false,
        "metadata" : {
          "IsLocked" : "False",
          "WinTrackHeight" : "56"
        }
      },
      {
        "ident" : "",
        "audioMuted" : false,
        "videoHidden" : false,
        "magnetic" : false,
        "matte" : 0,
        "solo" : false,
        "metadata" : {
          "IsLocked" : "False",
          "WinTrackHeight" : "56"
        }
      }
    ],
    "captionAttributes" : {
      "enabled" : true,
      "fontName" : "Arial",
      "fontSize" : 64,
      "backgroundColor" : [ 0, 0, 0, 191],
      "foregroundColor" : [ 255, 255, 255, 255],
      "lang" : "en",
      "alignment" : 0,
      "defaultFontSize" : true,
      "opacity" : 0.5,
      "backgroundEnabled" : true,
      "backgroundOnlyAroundText" : true
    },
    "gain" : 1.0,
    "legacyAttenuateAudioMix" : true,
    "backgroundColor" : [ 0, 0, 0, 255]
  },
  "metadata" : {
    "AutoSaveFile" : "C:\\Users\\kathl\\AppData\\Local\\TechSmith\\Camtasia Studio\\23.0\\Auto-Saves\\ContosoPizzaWebUIProject12c471dd.autosave.tscproj",
    "CanvasZoom" : 44,
    "Date" : "2023-10-14 05:23:19 PM",
    "Fit" : 1,
    "IsAutoSave" : false,
    "IsStandalone" : false,
    "Language" : "ENU",
    "ProfileName" : "",
    "ProjectDimensionsChanged" : "1",
    "ProjectThumbnail" : "iVBORw0KGgoAAAANSUhEUgAAAoAAAAFoCAYAAADHMkpRAAAAAXNSR0IArs4c6QAAAARnQU1BAACx\r\njwv8YQUAAAAJcEhZcwAAFiUAABYlAUlSJPAAAAchSURBVHhe7dmxiapRGEVRM8HEwEwwNxG0GgN7\r\nmbEasQ8LGAbLEbxvRHlF/HstODf4KthwZ3/GYrEYx+NxfH19jfP5bGZmZmYT2vf39zidTmO5XI5X\r\n+83m8/m4Xq8DAIBpu1wu7wDcbrfj8Xh8zgAATNX9fn8H4H6//5wAAJiyn58fAQgAUCIAAQBiBCAA\r\nQIwABACIEYAAADECEAAgRgACAMQIQACAGAEIABAjAAEAYgQgAECMAAQAiBGAAAAxAhAAIEYAAgDE\r\nCEAAgBgBCAAQIwABAGIEIABAjAAEAIgRgAAAMQIQACBGAAIAxAhAAIAYAQgAECMAAQBiBCAAQIwA\r\nBACIEYAAADECEAAgRgACAMQIQACAGAEIABAjAAEAYgQgAECMAAQAiBGAAAAxAhAAIEYAAgDECEAA\r\ngBgBCAAQIwABAGIEIABAjAAEAIgRgAAAMQIQACBGAAIAxAhAAIAYAQgAECMAAQBiBCAAQIwABACI\r\nEYAAADECEAAgRgACAMQIQACAGAEIABAjAAEAYgQgAECMAAQAiBGAAAAxAhAAIEYAAgDECEAAgBgB\r\nCAAQIwABAGIEIABAjAAEAIgRgAAAMQIQACBGAAIAxAhAAIAYAQgAECMAAQBiBCAAQIwABACIEYAA\r\nADECEAAgRgACAMQIQACAGAEIABAjAAEAYgQgAECMAAQAiBGAAAAxAhAAIEYAAgDECEAAgBgBCAAQ\r\nIwABAGIEIABAjAAEAIgRgAAAMQIQACBGAAIAxAhAAIAYAQgAECMAAQBiBCAAQIwABACIEYAAADEC\r\nEAAgRgACAMQIQACAGAEIABAjAAEAYgQgAECMAAQAiBGAAAAxAhAAIEYAAgDECEAAgBgBCAAQIwAB\r\nAGIEIABAjAAEAIgRgAAAMQIQACBGAAIAxAhAAIAYAQgAECMAAQBiBCAAQIwABACIEYAAADECEAAg\r\nRgACAMQIQACAGAEIABAjAAEAYgQgAECMAAQAiBGAAAAxAhAAIEYAAgDECEAAgBgBCAAQIwABAGIE\r\nIABAjAAEAIgRgAAAMQIQACBGAAIAxAhAAIAYAQgAECMAAQBiBCAAQIwABACIEYAAADECEAAgRgAC\r\nAMQIQACAGAEIABAjAAEAYgQgAECMAAQAiBGAAAAxAhAAIEYAAgDECEAAgBgBCAAQIwABAGIEIABA\r\njAAEAIgRgAAAMQIQACBGAAIAxAhAAIAYAQgAECMAAQBiBCAAQIwABACIEYAAADECEAAgRgACAMQI\r\nQACAGAEIABAjAAEAYgQgAECMAAQAiBGAAAAxAhAAIEYAAgDECEAAgBgBCAAQIwABAGIEIABAjAAE\r\nAIgRgAAAMQIQACBGAAIAxAhAAIAYAQgAECMAAQBiBCAAQIwABACIEYAAADECEAAgRgACAMQIQACA\r\nGAEIABAjAAEAYgQgAECMAAQAiBGAAAAxAhAAIEYAAgDECEAAgBgBCAAQIwABAGIEIABAjAAEAIgR\r\ngAAAMQIQACBGAAIAxAhAAIAYAQgAECMAAQBiBCAAQIwABACIEYAAADECEAAgRgACAMQIQACAGAEI\r\nABAjAAEAYgQgAECMAAQAiBGAAAAxAhAAIEYAAgDECEAAgBgBCAAQIwABAGIEIABAjAAEAIgRgAAA\r\nMQIQACBGAAIAxAhAAIAYAQgAECMAAQBiBCAAQIwABACIEYAAADECEAAgRgACAMQIQACAGAEIABAj\r\nAAEAYgQgAECMAAQAiBGAAAAxAhAAIEYAAgDECEAAgBgBCAAQIwABAGIEIABAjAAEAIgRgAAAMQIQ\r\nACBGAAIAxAhAAIAYAQgAECMAAQBiBCAAQIwABACIEYAAADECEAAgRgACAMQIQACAGAEIABAjAAEA\r\nYgQgAECMAAQAiBGAAAAxAhAAIEYAAgDECEAAgBgBCAAQIwABAGIEIABAjAAEAIgRgAAAMQIQACBG\r\nAAIAxAhAAIAYAQgAECMAAQBiBCAAQIwABACIEYAAADECEAAgRgACAMQIQACAGAEIABAjAAEAYgQg\r\nAECMAAQAiBGAAAAxAhAAIEYAAgDECEAAgBgBCAAQIwABAGIEIABAjAAEAIgRgAAAMQIQACBGAAIA\r\nxAhAAIAYAQgAECMAAQBiBCAAQIwABACIEYAAADECEAAgRgACAMQIQACAGAEIABAjAAEAYgQgAECM\r\nAAQAiBGAAAAxAhAAIEYAAgDECEAAgBgBCAAQIwABAGIEIABAjAAEAIgRgAAAMQIQACBGAAIAxAhA\r\nAIAYAQgAECMAAQBiBCAAQIwABACIEYAAADECEAAgRgACAMQIQACAGAEIABAjAAEAYgQgAECMAAQA\r\niBGAAAAxAhAAIEYAAgDECEAAgBgBCAAQ8z8Ad7vdeD6fnzMAAFP1+/v7DsDVajXu9/vnDADAVN1u\r\nt3cAvp71ej0Oh8N4fQebmZmZ2fT2ar3NZvMXf7PxD3NOkSCoE9AfAAAAAElFTkSuQmCC",
    "RulerGuidesX" : [],
    "RulerGuidesY" : [],
    "RulerShowing" : false,
    "Title" : "Azure Function App Kubernetes Demo",
    "audioNarrationNotes" : "",
    "calloutStyle" : "Basic"
  }
}
